<svg width="29" height="27" viewBox="0 0 29 27" fill="none" xmlns="http://www.w3.org/2000/svg">
<mask id="path-1-outside-1_179_1369" maskUnits="userSpaceOnUse" x="0" y="0.128906" width="29" height="25" fill="black">
<rect fill="white" y="0.128906" width="29" height="25"/>
<path d="M17.4939 23.6228H3.1151C2.81526 23.6225 2.5278 23.5033 2.31576 23.2913C2.10372 23.0793 1.98442 22.7918 1.98404 22.492V8.93247H17.4924C17.6217 8.93064 17.7451 8.878 17.8359 8.78592C17.9266 8.69385 17.9775 8.56975 17.9775 8.44045C17.9775 8.31115 17.9266 8.18705 17.8359 8.09497C17.7451 8.0029 17.6217 7.95026 17.4924 7.94843H1.98404V5.63633C1.98437 5.33646 2.10365 5.04897 2.31569 4.83692C2.52773 4.62488 2.81523 4.50561 3.1151 4.50527H5.01038V5.35837C5.01089 5.7849 5.18057 6.19381 5.48219 6.49539C5.78381 6.79697 6.19275 6.96659 6.61927 6.96704H7.12547C7.25596 6.96704 7.3811 6.9152 7.47338 6.82293C7.56565 6.73066 7.61748 6.60551 7.61748 6.47502C7.61748 6.34453 7.56565 6.21938 7.47338 6.12711C7.3811 6.03484 7.25596 5.983 7.12547 5.983H6.61928C6.45365 5.98285 6.29483 5.917 6.17769 5.7999C6.06054 5.6828 5.99463 5.52401 5.99442 5.35837V2.7378C5.99463 2.57214 6.06053 2.41333 6.17767 2.29619C6.29481 2.17905 6.45362 2.11315 6.61928 2.11294H7.12548C7.29111 2.11315 7.4499 2.17906 7.567 2.29621C7.68411 2.41335 7.74996 2.57217 7.75011 2.7378V3.52123H7.13054C7.00131 3.52315 6.87803 3.57584 6.78732 3.6679C6.69662 3.75997 6.64577 3.88402 6.64578 4.01326C6.64578 4.1425 6.69663 4.26656 6.78734 4.35862C6.87805 4.45068 7.00134 4.50335 7.13056 4.50527H12.8575V5.35837C12.858 5.7849 13.0276 6.19381 13.3293 6.49539C13.6309 6.79697 14.0398 6.96659 14.4663 6.96704H14.9725C15.1018 6.96521 15.2252 6.91257 15.316 6.8205C15.4068 6.72842 15.4577 6.60432 15.4577 6.47502C15.4577 6.34572 15.4068 6.22162 15.316 6.12955C15.2252 6.03747 15.1018 5.98483 14.9725 5.983H14.4663C14.3007 5.98285 14.1419 5.917 14.0247 5.7999C13.9076 5.6828 13.8417 5.52401 13.8415 5.35837V2.7378C13.8417 2.57214 13.9076 2.41333 14.0247 2.29619C14.1419 2.17905 14.3007 2.11315 14.4663 2.11294H14.9725C15.1382 2.11315 15.297 2.17905 15.4141 2.29619C15.5313 2.41333 15.5972 2.57214 15.5974 2.7378V3.52123H15.0372C14.9079 3.52306 14.7845 3.5757 14.6937 3.66778C14.6029 3.75985 14.552 3.88395 14.552 4.01325C14.552 4.14255 14.6029 4.26665 14.6937 4.35873C14.7845 4.4508 14.9079 4.50344 15.0372 4.50527H20.7045V5.35837C20.705 5.7849 20.8747 6.19381 21.1763 6.49539C21.4779 6.79697 21.8869 6.96659 22.3134 6.96704H22.8196C22.9501 6.96704 23.0752 6.9152 23.1675 6.82293C23.2598 6.73066 23.3116 6.60551 23.3116 6.47502C23.3116 6.34453 23.2598 6.21938 23.1675 6.12711C23.0752 6.03484 22.9501 5.983 22.8196 5.983H22.3134C22.1478 5.98285 21.9889 5.917 21.8718 5.7999C21.7547 5.6828 21.6887 5.52401 21.6885 5.35837V2.7378C21.6887 2.57214 21.7546 2.41333 21.8718 2.29619C21.9889 2.17905 22.1477 2.11315 22.3134 2.11294H22.8196C22.9852 2.11315 23.1441 2.17905 23.2612 2.29619C23.3783 2.41333 23.4442 2.57214 23.4444 2.7378V3.52123H22.8991C22.7698 3.52306 22.6464 3.5757 22.5557 3.66778C22.4649 3.75985 22.414 3.88395 22.414 4.01325C22.414 4.14255 22.4649 4.26665 22.5557 4.35873C22.6464 4.4508 22.7698 4.50344 22.8991 4.50527H26.3237C26.6236 4.50561 26.9111 4.62488 27.1231 4.83692C27.3352 5.04897 27.4545 5.33646 27.4548 5.63633V7.94843H19.4605C19.3312 7.95026 19.2078 8.0029 19.1171 8.09497C19.0263 8.18705 18.9754 8.31115 18.9754 8.44045C18.9754 8.56975 19.0263 8.69385 19.1171 8.78592C19.2078 8.878 19.3312 8.93064 19.4605 8.93247H27.4548V15.1411C27.4548 15.2716 27.5066 15.3967 27.5989 15.489C27.6912 15.5812 27.8163 15.6331 27.9468 15.6331C28.0773 15.6331 28.2025 15.5812 28.2947 15.489C28.387 15.3967 28.4388 15.2716 28.4388 15.1411C28.4394 13.1746 28.4385 7.50961 28.4388 5.63634C28.4382 5.07556 28.2152 4.53792 27.8187 4.14139C27.4221 3.74486 26.8845 3.52183 26.3237 3.52123H24.4285V2.7378C24.428 2.31124 24.2584 1.90228 23.9567 1.60065C23.6551 1.29903 23.2462 1.12937 22.8196 1.12891H22.3134C21.8868 1.12937 21.4779 1.29903 21.1762 1.60065C20.8746 1.90228 20.705 2.31124 20.7045 2.7378V3.52123H16.5814V2.7378C16.581 2.31124 16.4113 1.90228 16.1097 1.60065C15.8081 1.29903 15.3991 1.12937 14.9725 1.12891H14.4663C14.0398 1.12937 13.6308 1.29903 13.3292 1.60065C13.0276 1.90228 12.8579 2.31124 12.8574 2.7378V3.52123H8.73414V2.7378C8.73369 2.31128 8.56407 1.90234 8.26249 1.60072C7.96091 1.2991 7.552 1.12942 7.12548 1.12891H6.61928C6.19272 1.12937 5.78376 1.29903 5.48213 1.60065C5.18051 1.90228 5.01085 2.31124 5.01039 2.7378V3.52123H3.11513C2.55435 3.52182 2.01671 3.74485 1.62017 4.14138C1.22363 4.53791 1.0006 5.07555 1 5.63633V22.492C1.00065 23.0527 1.2237 23.5903 1.62023 23.9868C2.01675 24.3833 2.55436 24.6063 3.1151 24.6069H17.4939C17.6228 24.6045 17.7457 24.5516 17.836 24.4596C17.9263 24.3676 17.9769 24.2438 17.9769 24.1149C17.9769 23.9859 17.9263 23.8621 17.836 23.7701C17.7457 23.6781 17.6228 23.6252 17.4939 23.6228Z"/>
</mask>
<path d="M17.4939 23.6228H3.1151C2.81526 23.6225 2.5278 23.5033 2.31576 23.2913C2.10372 23.0793 1.98442 22.7918 1.98404 22.492V8.93247H17.4924C17.6217 8.93064 17.7451 8.878 17.8359 8.78592C17.9266 8.69385 17.9775 8.56975 17.9775 8.44045C17.9775 8.31115 17.9266 8.18705 17.8359 8.09497C17.7451 8.0029 17.6217 7.95026 17.4924 7.94843H1.98404V5.63633C1.98437 5.33646 2.10365 5.04897 2.31569 4.83692C2.52773 4.62488 2.81523 4.50561 3.1151 4.50527H5.01038V5.35837C5.01089 5.7849 5.18057 6.19381 5.48219 6.49539C5.78381 6.79697 6.19275 6.96659 6.61927 6.96704H7.12547C7.25596 6.96704 7.3811 6.9152 7.47338 6.82293C7.56565 6.73066 7.61748 6.60551 7.61748 6.47502C7.61748 6.34453 7.56565 6.21938 7.47338 6.12711C7.3811 6.03484 7.25596 5.983 7.12547 5.983H6.61928C6.45365 5.98285 6.29483 5.917 6.17769 5.7999C6.06054 5.6828 5.99463 5.52401 5.99442 5.35837V2.7378C5.99463 2.57214 6.06053 2.41333 6.17767 2.29619C6.29481 2.17905 6.45362 2.11315 6.61928 2.11294H7.12548C7.29111 2.11315 7.4499 2.17906 7.567 2.29621C7.68411 2.41335 7.74996 2.57217 7.75011 2.7378V3.52123H7.13054C7.00131 3.52315 6.87803 3.57584 6.78732 3.6679C6.69662 3.75997 6.64577 3.88402 6.64578 4.01326C6.64578 4.1425 6.69663 4.26656 6.78734 4.35862C6.87805 4.45068 7.00134 4.50335 7.13056 4.50527H12.8575V5.35837C12.858 5.7849 13.0276 6.19381 13.3293 6.49539C13.6309 6.79697 14.0398 6.96659 14.4663 6.96704H14.9725C15.1018 6.96521 15.2252 6.91257 15.316 6.8205C15.4068 6.72842 15.4577 6.60432 15.4577 6.47502C15.4577 6.34572 15.4068 6.22162 15.316 6.12955C15.2252 6.03747 15.1018 5.98483 14.9725 5.983H14.4663C14.3007 5.98285 14.1419 5.917 14.0247 5.7999C13.9076 5.6828 13.8417 5.52401 13.8415 5.35837V2.7378C13.8417 2.57214 13.9076 2.41333 14.0247 2.29619C14.1419 2.17905 14.3007 2.11315 14.4663 2.11294H14.9725C15.1382 2.11315 15.297 2.17905 15.4141 2.29619C15.5313 2.41333 15.5972 2.57214 15.5974 2.7378V3.52123H15.0372C14.9079 3.52306 14.7845 3.5757 14.6937 3.66778C14.6029 3.75985 14.552 3.88395 14.552 4.01325C14.552 4.14255 14.6029 4.26665 14.6937 4.35873C14.7845 4.4508 14.9079 4.50344 15.0372 4.50527H20.7045V5.35837C20.705 5.7849 20.8747 6.19381 21.1763 6.49539C21.4779 6.79697 21.8869 6.96659 22.3134 6.96704H22.8196C22.9501 6.96704 23.0752 6.9152 23.1675 6.82293C23.2598 6.73066 23.3116 6.60551 23.3116 6.47502C23.3116 6.34453 23.2598 6.21938 23.1675 6.12711C23.0752 6.03484 22.9501 5.983 22.8196 5.983H22.3134C22.1478 5.98285 21.9889 5.917 21.8718 5.7999C21.7547 5.6828 21.6887 5.52401 21.6885 5.35837V2.7378C21.6887 2.57214 21.7546 2.41333 21.8718 2.29619C21.9889 2.17905 22.1477 2.11315 22.3134 2.11294H22.8196C22.9852 2.11315 23.1441 2.17905 23.2612 2.29619C23.3783 2.41333 23.4442 2.57214 23.4444 2.7378V3.52123H22.8991C22.7698 3.52306 22.6464 3.5757 22.5557 3.66778C22.4649 3.75985 22.414 3.88395 22.414 4.01325C22.414 4.14255 22.4649 4.26665 22.5557 4.35873C22.6464 4.4508 22.7698 4.50344 22.8991 4.50527H26.3237C26.6236 4.50561 26.9111 4.62488 27.1231 4.83692C27.3352 5.04897 27.4545 5.33646 27.4548 5.63633V7.94843H19.4605C19.3312 7.95026 19.2078 8.0029 19.1171 8.09497C19.0263 8.18705 18.9754 8.31115 18.9754 8.44045C18.9754 8.56975 19.0263 8.69385 19.1171 8.78592C19.2078 8.878 19.3312 8.93064 19.4605 8.93247H27.4548V15.1411C27.4548 15.2716 27.5066 15.3967 27.5989 15.489C27.6912 15.5812 27.8163 15.6331 27.9468 15.6331C28.0773 15.6331 28.2025 15.5812 28.2947 15.489C28.387 15.3967 28.4388 15.2716 28.4388 15.1411C28.4394 13.1746 28.4385 7.50961 28.4388 5.63634C28.4382 5.07556 28.2152 4.53792 27.8187 4.14139C27.4221 3.74486 26.8845 3.52183 26.3237 3.52123H24.4285V2.7378C24.428 2.31124 24.2584 1.90228 23.9567 1.60065C23.6551 1.29903 23.2462 1.12937 22.8196 1.12891H22.3134C21.8868 1.12937 21.4779 1.29903 21.1762 1.60065C20.8746 1.90228 20.705 2.31124 20.7045 2.7378V3.52123H16.5814V2.7378C16.581 2.31124 16.4113 1.90228 16.1097 1.60065C15.8081 1.29903 15.3991 1.12937 14.9725 1.12891H14.4663C14.0398 1.12937 13.6308 1.29903 13.3292 1.60065C13.0276 1.90228 12.8579 2.31124 12.8574 2.7378V3.52123H8.73414V2.7378C8.73369 2.31128 8.56407 1.90234 8.26249 1.60072C7.96091 1.2991 7.552 1.12942 7.12548 1.12891H6.61928C6.19272 1.12937 5.78376 1.29903 5.48213 1.60065C5.18051 1.90228 5.01085 2.31124 5.01039 2.7378V3.52123H3.11513C2.55435 3.52182 2.01671 3.74485 1.62017 4.14138C1.22363 4.53791 1.0006 5.07555 1 5.63633V22.492C1.00065 23.0527 1.2237 23.5903 1.62023 23.9868C2.01675 24.3833 2.55436 24.6063 3.1151 24.6069H17.4939C17.6228 24.6045 17.7457 24.5516 17.836 24.4596C17.9263 24.3676 17.9769 24.2438 17.9769 24.1149C17.9769 23.9859 17.9263 23.8621 17.836 23.7701C17.7457 23.6781 17.6228 23.6252 17.4939 23.6228Z" fill="#808080"/>
<path d="M17.4939 23.6228H3.1151C2.81526 23.6225 2.5278 23.5033 2.31576 23.2913C2.10372 23.0793 1.98442 22.7918 1.98404 22.492V8.93247H17.4924C17.6217 8.93064 17.7451 8.878 17.8359 8.78592C17.9266 8.69385 17.9775 8.56975 17.9775 8.44045C17.9775 8.31115 17.9266 8.18705 17.8359 8.09497C17.7451 8.0029 17.6217 7.95026 17.4924 7.94843H1.98404V5.63633C1.98437 5.33646 2.10365 5.04897 2.31569 4.83692C2.52773 4.62488 2.81523 4.50561 3.1151 4.50527H5.01038V5.35837C5.01089 5.7849 5.18057 6.19381 5.48219 6.49539C5.78381 6.79697 6.19275 6.96659 6.61927 6.96704H7.12547C7.25596 6.96704 7.3811 6.9152 7.47338 6.82293C7.56565 6.73066 7.61748 6.60551 7.61748 6.47502C7.61748 6.34453 7.56565 6.21938 7.47338 6.12711C7.3811 6.03484 7.25596 5.983 7.12547 5.983H6.61928C6.45365 5.98285 6.29483 5.917 6.17769 5.7999C6.06054 5.6828 5.99463 5.52401 5.99442 5.35837V2.7378C5.99463 2.57214 6.06053 2.41333 6.17767 2.29619C6.29481 2.17905 6.45362 2.11315 6.61928 2.11294H7.12548C7.29111 2.11315 7.4499 2.17906 7.567 2.29621C7.68411 2.41335 7.74996 2.57217 7.75011 2.7378V3.52123H7.13054C7.00131 3.52315 6.87803 3.57584 6.78732 3.6679C6.69662 3.75997 6.64577 3.88402 6.64578 4.01326C6.64578 4.1425 6.69663 4.26656 6.78734 4.35862C6.87805 4.45068 7.00134 4.50335 7.13056 4.50527H12.8575V5.35837C12.858 5.7849 13.0276 6.19381 13.3293 6.49539C13.6309 6.79697 14.0398 6.96659 14.4663 6.96704H14.9725C15.1018 6.96521 15.2252 6.91257 15.316 6.8205C15.4068 6.72842 15.4577 6.60432 15.4577 6.47502C15.4577 6.34572 15.4068 6.22162 15.316 6.12955C15.2252 6.03747 15.1018 5.98483 14.9725 5.983H14.4663C14.3007 5.98285 14.1419 5.917 14.0247 5.7999C13.9076 5.6828 13.8417 5.52401 13.8415 5.35837V2.7378C13.8417 2.57214 13.9076 2.41333 14.0247 2.29619C14.1419 2.17905 14.3007 2.11315 14.4663 2.11294H14.9725C15.1382 2.11315 15.297 2.17905 15.4141 2.29619C15.5313 2.41333 15.5972 2.57214 15.5974 2.7378V3.52123H15.0372C14.9079 3.52306 14.7845 3.5757 14.6937 3.66778C14.6029 3.75985 14.552 3.88395 14.552 4.01325C14.552 4.14255 14.6029 4.26665 14.6937 4.35873C14.7845 4.4508 14.9079 4.50344 15.0372 4.50527H20.7045V5.35837C20.705 5.7849 20.8747 6.19381 21.1763 6.49539C21.4779 6.79697 21.8869 6.96659 22.3134 6.96704H22.8196C22.9501 6.96704 23.0752 6.9152 23.1675 6.82293C23.2598 6.73066 23.3116 6.60551 23.3116 6.47502C23.3116 6.34453 23.2598 6.21938 23.1675 6.12711C23.0752 6.03484 22.9501 5.983 22.8196 5.983H22.3134C22.1478 5.98285 21.9889 5.917 21.8718 5.7999C21.7547 5.6828 21.6887 5.52401 21.6885 5.35837V2.7378C21.6887 2.57214 21.7546 2.41333 21.8718 2.29619C21.9889 2.17905 22.1477 2.11315 22.3134 2.11294H22.8196C22.9852 2.11315 23.1441 2.17905 23.2612 2.29619C23.3783 2.41333 23.4442 2.57214 23.4444 2.7378V3.52123H22.8991C22.7698 3.52306 22.6464 3.5757 22.5557 3.66778C22.4649 3.75985 22.414 3.88395 22.414 4.01325C22.414 4.14255 22.4649 4.26665 22.5557 4.35873C22.6464 4.4508 22.7698 4.50344 22.8991 4.50527H26.3237C26.6236 4.50561 26.9111 4.62488 27.1231 4.83692C27.3352 5.04897 27.4545 5.33646 27.4548 5.63633V7.94843H19.4605C19.3312 7.95026 19.2078 8.0029 19.1171 8.09497C19.0263 8.18705 18.9754 8.31115 18.9754 8.44045C18.9754 8.56975 19.0263 8.69385 19.1171 8.78592C19.2078 8.878 19.3312 8.93064 19.4605 8.93247H27.4548V15.1411C27.4548 15.2716 27.5066 15.3967 27.5989 15.489C27.6912 15.5812 27.8163 15.6331 27.9468 15.6331C28.0773 15.6331 28.2025 15.5812 28.2947 15.489C28.387 15.3967 28.4388 15.2716 28.4388 15.1411C28.4394 13.1746 28.4385 7.50961 28.4388 5.63634C28.4382 5.07556 28.2152 4.53792 27.8187 4.14139C27.4221 3.74486 26.8845 3.52183 26.3237 3.52123H24.4285V2.7378C24.428 2.31124 24.2584 1.90228 23.9567 1.60065C23.6551 1.29903 23.2462 1.12937 22.8196 1.12891H22.3134C21.8868 1.12937 21.4779 1.29903 21.1762 1.60065C20.8746 1.90228 20.705 2.31124 20.7045 2.7378V3.52123H16.5814V2.7378C16.581 2.31124 16.4113 1.90228 16.1097 1.60065C15.8081 1.29903 15.3991 1.12937 14.9725 1.12891H14.4663C14.0398 1.12937 13.6308 1.29903 13.3292 1.60065C13.0276 1.90228 12.8579 2.31124 12.8574 2.7378V3.52123H8.73414V2.7378C8.73369 2.31128 8.56407 1.90234 8.26249 1.60072C7.96091 1.2991 7.552 1.12942 7.12548 1.12891H6.61928C6.19272 1.12937 5.78376 1.29903 5.48213 1.60065C5.18051 1.90228 5.01085 2.31124 5.01039 2.7378V3.52123H3.11513C2.55435 3.52182 2.01671 3.74485 1.62017 4.14138C1.22363 4.53791 1.0006 5.07555 1 5.63633V22.492C1.00065 23.0527 1.2237 23.5903 1.62023 23.9868C2.01675 24.3833 2.55436 24.6063 3.1151 24.6069H17.4939C17.6228 24.6045 17.7457 24.5516 17.836 24.4596C17.9263 24.3676 17.9769 24.2438 17.9769 24.1149C17.9769 23.9859 17.9263 23.8621 17.836 23.7701C17.7457 23.6781 17.6228 23.6252 17.4939 23.6228Z" stroke="#808080" stroke-width="0.3" mask="url(#path-1-outside-1_179_1369)"/>
<path d="M23.1815 15.0812L23.1813 15.0813C21.7375 15.0829 20.3533 15.6572 19.3324 16.6781C18.3115 17.699 17.7372 19.0832 17.7355 20.527L17.7355 20.527L17.7356 20.5302C18.0345 27.7518 28.3297 27.7493 28.6275 20.5302L28.6275 20.5302L28.6275 20.527C28.6258 19.0832 28.0515 17.6989 27.0306 16.678C26.0096 15.6571 24.6253 15.0828 23.1815 15.0812ZM23.1814 24.8392C22.0382 24.8379 20.9422 24.3831 20.1339 23.5747C19.3259 22.7667 18.8713 21.6713 18.8696 20.5286C19.1079 14.8069 27.256 14.8085 27.4935 20.5287C27.4917 21.6713 27.0371 22.7667 26.229 23.5748C25.4206 24.3831 24.3246 24.8379 23.1814 24.8392Z" fill="#808080" stroke="#808080" stroke-width="0.15"/>
<path d="M25.0153 18.7743L25.0153 18.7743L25.0143 18.7754L22.8595 21.098L21.6085 19.946L21.6085 19.946C21.4978 19.8441 21.3512 19.7904 21.201 19.7966C21.0507 19.8029 20.9091 19.8685 20.8072 19.9792C20.7054 20.0899 20.6517 20.2364 20.6579 20.3867C20.6641 20.537 20.7298 20.6786 20.8405 20.7804C20.8405 20.7804 20.8405 20.7804 20.8405 20.7804L22.507 22.3151L22.507 22.3151C22.6174 22.4167 22.7635 22.4704 22.9134 22.4645C23.0632 22.4586 23.2046 22.3935 23.3066 22.2836L23.3066 22.2836L25.8455 19.5467L25.8455 19.5467L25.8465 19.5457C25.9454 19.4349 25.997 19.2897 25.9901 19.1413C25.9831 18.993 25.9182 18.8532 25.8094 18.7522C25.7005 18.6511 25.5563 18.5969 25.4078 18.601C25.2593 18.6051 25.1184 18.6674 25.0153 18.7743Z" fill="#808080" stroke="#808080" stroke-width="0.15"/>
<path d="M8.24312 10.3195V10.3195H8.242H4.45003C4.29964 10.3195 4.15542 10.3793 4.04908 10.4856C3.94275 10.5919 3.88301 10.7362 3.88301 10.8865C3.88301 11.0369 3.94275 11.1812 4.04908 11.2875C4.15542 11.3938 4.29964 11.4536 4.45003 11.4536H8.242V11.4536L8.24312 11.4536C8.39204 11.4513 8.53412 11.3906 8.63865 11.2845C8.74318 11.1784 8.80178 11.0355 8.80178 10.8865C8.80178 10.7376 8.74318 10.5946 8.63865 10.4886C8.53412 10.3825 8.39204 10.3217 8.24312 10.3195Z" fill="#808080" stroke="#808080" stroke-width="0.15"/>
<path d="M8.24312 12.3352V12.3352H8.242H4.45003C4.29964 12.3352 4.15542 12.3949 4.04908 12.5012C3.94275 12.6076 3.88301 12.7518 3.88301 12.9022C3.88301 13.0526 3.94275 13.1968 4.04908 13.3031C4.15542 13.4095 4.29964 13.4692 4.45003 13.4692H8.242V13.4692L8.24312 13.4692C8.39204 13.467 8.53412 13.4063 8.63865 13.3002C8.74318 13.1941 8.80178 13.0511 8.80178 12.9022C8.80178 12.7532 8.74318 12.6103 8.63865 12.5042C8.53412 12.3981 8.39204 12.3374 8.24312 12.3352Z" fill="#808080" stroke="#808080" stroke-width="0.15"/>
</svg>
