<svg width="28" height="28" viewBox="0 0 28 28" fill="none" xmlns="http://www.w3.org/2000/svg">
<path d="M20.8552 2.64877H20.4699V3.03413V4.30149C20.4699 4.41582 20.4281 4.5204 20.359 4.60082C20.383 4.505 20.3957 4.40473 20.3957 4.30149V1.76678C20.3957 1.0873 19.8449 0.536514 19.1654 0.536514C18.486 0.536514 17.9352 1.0873 17.9352 1.76678V2.64877H16.2083H15.8229V3.03413V4.30149C15.8229 4.41582 15.7811 4.5204 15.712 4.60082C15.736 4.505 15.7487 4.40473 15.7487 4.30149V1.76678C15.7487 1.0873 15.1979 0.536514 14.5185 0.536514C13.839 0.536514 13.2882 1.0873 13.2882 1.76678V2.64877H11.1388H10.7535V3.03413V4.30149C10.7535 4.41582 10.7117 4.5204 10.6426 4.60082C10.6666 4.505 10.6793 4.40473 10.6793 4.30149V1.76678C10.6793 1.0873 10.1285 0.536514 9.44903 0.536514C8.76959 0.536514 8.21877 1.0873 8.21877 1.76678V2.64877H6.49187H6.10651V3.03413V4.30149C6.10651 4.41582 6.06475 4.5204 5.99566 4.60082C6.01961 4.505 6.03233 4.40473 6.03233 4.30149V1.76678C6.03233 1.0873 5.4815 0.536514 4.80206 0.536514C4.12262 0.536514 3.5718 1.0873 3.5718 1.76678V2.64877H2.68981C1.54371 2.64877 0.614639 3.57784 0.614639 4.72394V7.25865V7.64401H1H22.9675H23.3528V7.25865V4.72394C23.3528 3.57784 22.4238 2.64877 21.2777 2.64877H20.8552Z" stroke="#3FBD5A" stroke-width="0.770721"/>
<path d="M21.5338 22.0462L21.3267 21.9655L21.1531 22.1044L19.9116 23.0978L19.8651 23.0396L21.1081 22.0454L21.2813 21.9069L21.2485 21.6875C21.2413 21.6394 21.2402 21.6283 21.2402 21.6196C21.2402 21.4536 21.3304 21.3068 21.4711 21.225L21.6626 21.1135V20.8919V18.6254H21.7368V20.8919V21.1135L21.9283 21.225C22.069 21.3068 22.1592 21.4536 22.1592 21.6196C22.1592 21.8734 21.9535 22.0792 21.6997 22.0792C21.645 22.0792 21.5898 22.068 21.5338 22.0462ZM21.6997 16.5873C18.9204 16.5873 16.6674 18.8403 16.6674 21.6196C16.6674 24.3989 18.9204 26.652 21.6997 26.652C24.479 26.652 26.732 24.3989 26.732 21.6196C26.732 18.8403 24.479 16.5873 21.6997 16.5873Z" stroke="#3FBD5A" stroke-width="0.770721"/>
<path d="M16.6305 24.1176H17.2088L16.9862 23.5839C16.734 22.9793 16.5936 22.3165 16.5936 21.62C16.5936 19.4969 17.89 17.6764 19.7358 16.9062L19.7326 16.8906L20.1289 16.7625C20.6248 16.6021 21.152 16.5135 21.7001 16.5135C22.1037 16.5135 22.4967 16.5656 22.8787 16.656L23.3528 16.7682V16.281V8.10156V7.7162H22.9675H1H0.614639V8.10156V22.0425C0.614639 23.1889 1.54335 24.1176 2.68981 24.1176H16.6305ZM19.625 14.4012V16.3529L19.5874 16.1652H17.861V14.4012H19.625ZM17.861 9.75428H19.625V11.5183H17.861V9.75428ZM13.214 9.75428H14.978V11.5183H13.214V9.75428ZM13.214 14.4012H14.978V16.1652H13.214V14.4012ZM13.214 19.0482H14.978V20.8122H13.214V19.0482ZM8.56704 9.75428H10.331V11.5183H8.56704V9.75428ZM8.56704 14.4012H10.331V16.1652H8.56704V14.4012ZM8.56704 19.0482H10.331V20.8122H8.56704V19.0482ZM3.92007 9.75428H5.68406V11.5183H3.92007V9.75428ZM3.92007 14.4012H5.68406V16.1652H3.92007V14.4012ZM3.92007 19.0482H5.68406V20.8122H3.92007V19.0482Z" stroke="#3FBD5A" stroke-width="0.770721"/>
</svg>
