<svg width="27" height="28" viewBox="0 0 27 28" fill="none" xmlns="http://www.w3.org/2000/svg">
<path d="M10.3967 0.949219H1.96688C0.882288 0.949219 0 1.83151 0 2.9161V7.97398C0 9.05878 0.882288 9.94106 1.96688 9.94106H10.3967C11.4815 9.94106 12.3638 9.05878 12.3638 7.97398V2.9161C12.3638 1.83151 11.4815 0.949219 10.3967 0.949219Z" fill="#3FBD5A"/>
<path d="M10.3967 12.1875H1.96688C0.882288 12.1875 0 13.0698 0 14.1546V25.9563C0 27.0409 0.882288 27.9232 1.96688 27.9232H10.3967C11.4815 27.9232 12.3638 27.0409 12.3638 25.9563V14.1546C12.3638 13.0698 11.4815 12.1875 10.3967 12.1875Z" fill="#3FBD5A"/>
<path d="M25.0082 18.9336H16.5784C15.4936 18.9336 14.6113 19.8159 14.6113 20.9007V25.9586C14.6113 27.0432 15.4936 27.9254 16.5784 27.9254H25.0082C26.0928 27.9254 26.9751 27.0432 26.9751 25.9586V20.9007C26.9751 19.8159 26.0928 18.9336 25.0082 18.9336Z" fill="#3FBD5A"/>
<path d="M25.0082 0.949219H16.5784C15.4936 0.949219 14.6113 1.83151 14.6113 2.9161V14.7178C14.6113 15.8026 15.4936 16.6849 16.5784 16.6849H25.0082C26.0928 16.6849 26.9751 15.8026 26.9751 14.7178V2.9161C26.9751 1.83151 26.0928 0.949219 25.0082 0.949219Z" fill="#3FBD5A"/>
</svg>
