<svg width="27" height="25" viewBox="0 0 27 25" fill="none" xmlns="http://www.w3.org/2000/svg">
<path d="M26.7127 15.7671C26.1991 15.0123 25.1649 14.8126 24.4078 15.3214L20.9622 17.6273L20.9522 10.4497L22.1492 11.5711C22.4038 11.8095 22.7357 11.9407 23.0842 11.9407C23.0848 11.9407 23.0855 11.9407 23.0862 11.9407C23.4624 11.9401 23.8257 11.7825 24.0828 11.508C24.3326 11.2413 24.4636 10.8934 24.4517 10.5281C24.4398 10.1629 24.2863 9.82418 24.0197 9.57438L21.7502 7.44844C21.5949 7.3029 21.351 7.31086 21.2055 7.46622C21.06 7.62157 21.068 7.86541 21.2233 8.01096L23.4927 10.1369C23.6091 10.2459 23.6761 10.3938 23.6813 10.5532C23.6865 10.7126 23.6293 10.8646 23.5202 10.981C23.4063 11.1026 23.2518 11.1696 23.0851 11.1699C23.0847 11.1699 23.0845 11.1699 23.0842 11.1699C22.9321 11.1699 22.7873 11.1126 22.6761 11.0085L22.6761 11.0084L13.6647 2.56677C13.5162 2.42771 13.2852 2.42792 13.137 2.56751L4.14909 11.0344C4.03302 11.1438 3.88125 11.2011 3.72178 11.1966C3.56231 11.1919 3.41429 11.1253 3.30492 11.0091C3.19554 10.8931 3.13791 10.7413 3.14271 10.5819C3.14745 10.4224 3.21405 10.2744 3.33012 10.165L12.9898 1.06526C13.2188 0.849527 13.578 0.849 13.8076 1.06416L19.459 6.35827C19.6143 6.50376 19.8582 6.49585 20.0037 6.34049C20.1492 6.18514 20.1413 5.94129 19.986 5.79575L14.3346 0.501638C13.8087 0.008888 12.9859 0.00999542 12.4613 0.504222L9.36905 3.41727L9.36821 2.89768C9.368 2.73388 9.30398 2.58001 9.18801 2.46441C9.07226 2.34898 8.9186 2.28543 8.75512 2.28543C8.7548 2.28543 8.75454 2.28543 8.75422 2.28543L6.54217 2.28854C6.37838 2.28875 6.22456 2.35277 6.10891 2.46874C5.99331 2.5847 5.92972 2.73874 5.92998 2.90258L5.9361 6.65131L2.80162 9.60407C2.53563 9.85461 2.38317 10.1937 2.37226 10.559C2.36134 10.9242 2.49333 11.2718 2.74388 11.5377C2.99436 11.8037 3.3335 11.9562 3.69879 11.9671C3.71276 11.9676 3.72674 11.9678 3.74071 11.9678C4.09061 11.9678 4.42194 11.8365 4.67764 11.5955L5.87203 10.4703L5.87677 13.8607C5.49033 13.8044 5.09936 13.7749 4.7066 13.7749H4.04715V13.5438C4.04715 12.768 3.41597 12.1368 2.6402 12.1368H1.40695C0.631178 12.1368 0 12.7679 0 13.5437V19.5828C0 19.7956 0.172547 19.9682 0.385383 19.9682C0.598219 19.9682 0.770766 19.7956 0.770766 19.5828V13.5437C0.770766 13.193 1.05616 12.9076 1.40695 12.9076H2.64015C2.99094 12.9076 3.27633 13.193 3.27633 13.5437V14.1602V22.0596V22.67C3.27633 23.0208 2.99094 23.3062 2.64015 23.3062H1.40695C1.05616 23.3062 0.770766 23.0208 0.770766 22.67V21.9956C0.770766 21.7828 0.598219 21.6103 0.385383 21.6103C0.172547 21.6103 0 21.7828 0 21.9956V22.67C0 23.4458 0.631178 24.077 1.40695 24.077H2.64015C3.41592 24.077 4.0471 23.4458 4.0471 22.67V22.6176L9.69094 24.7549C9.70138 24.7588 9.71198 24.7623 9.72274 24.7653C9.96811 24.8346 10.2134 24.8694 10.4555 24.8694C10.5865 24.8694 10.7166 24.8592 10.8454 24.8388L19.1395 23.6432C19.1415 23.643 19.1434 23.6426 19.1453 23.6423C19.8505 23.5297 20.5157 23.2316 21.0691 22.7803C21.0739 22.7764 21.0786 22.7724 21.0832 22.7682L26.4416 17.9489C27.0656 17.3949 27.1821 16.457 26.7127 15.7671ZM8.59765 3.05646L8.59945 4.14226L6.70565 5.92627L6.70096 3.05904L8.59765 3.05646ZM13.402 3.37677L20.1803 9.72662L20.1921 18.1427L19.101 18.8729L17.9455 18.8081L17.915 18.5012C17.8074 17.4203 17.0095 16.5507 15.9543 16.3432L15.9473 11.3363C15.9468 10.9521 15.634 10.6399 15.2498 10.6399C15.2495 10.6399 15.2493 10.6399 15.2489 10.6399L11.5757 10.645C11.3894 10.6453 11.2143 10.7181 11.0828 10.85C10.9512 10.9819 10.8789 11.1572 10.8792 11.3435L10.8853 15.7089C10.1577 15.5425 9.46303 15.2678 8.8135 14.8879C8.73244 14.8405 8.6506 14.7947 8.56807 14.7502C8.5359 14.7329 8.50321 14.7166 8.47078 14.6996C8.42057 14.6734 8.37047 14.6471 8.31974 14.6219C8.27935 14.6019 8.23848 14.5829 8.19777 14.5635C8.15458 14.543 8.11144 14.5223 8.06794 14.5025C8.02364 14.4824 7.97897 14.4633 7.93436 14.444C7.8936 14.4264 7.85283 14.4086 7.81181 14.3917C7.76593 14.3728 7.71979 14.3546 7.67359 14.3365C7.63262 14.3205 7.59159 14.3045 7.5504 14.2891C7.50468 14.2721 7.45875 14.2556 7.41271 14.2394C7.36952 14.2241 7.32628 14.2093 7.28283 14.1948C7.23874 14.18 7.19455 14.1656 7.15015 14.1517C7.10285 14.1367 7.05533 14.1225 7.00777 14.1084C6.9669 14.0964 6.92608 14.0844 6.885 14.073C6.83137 14.0581 6.77747 14.0441 6.72353 14.0303C6.69827 14.0238 6.67317 14.0165 6.64775 14.0102L6.64179 9.74513L13.402 3.37677ZM15.1834 16.2468L11.9601 15.8757L11.6564 15.8407L11.6501 11.4157L15.1767 11.4107L15.1834 16.2468ZM25.9281 17.3743L20.5749 22.1888C20.1289 22.5505 19.5938 22.7898 19.0266 22.8808L10.7361 24.0759C10.7343 24.0761 10.7327 24.0764 10.7309 24.0766L10.7252 24.0775C10.474 24.1173 10.2124 24.1005 9.94765 24.0279L4.04715 21.7934V14.5456H4.7066C5.26795 14.5456 5.82551 14.6104 6.36847 14.7363C6.38866 14.741 6.40881 14.7458 6.42895 14.7506C6.49566 14.7667 6.56221 14.7833 6.62845 14.8012C6.63425 14.8028 6.64 14.8045 6.6458 14.8061C6.71219 14.8242 6.77832 14.8433 6.84424 14.8633C6.85605 14.8669 6.86791 14.8704 6.87967 14.8741C6.94981 14.8958 7.01963 14.9184 7.08908 14.9421C7.09625 14.9446 7.10337 14.9471 7.11055 14.9496C7.2552 14.9995 7.39842 15.054 7.53986 15.113C7.54755 15.1162 7.55525 15.1194 7.56295 15.1227C7.63346 15.1523 7.70354 15.1829 7.77315 15.2148C7.775 15.2156 7.7769 15.2165 7.77874 15.2174C7.84603 15.2483 7.91285 15.2804 7.97924 15.3134C7.98704 15.3172 7.9949 15.321 8.00271 15.3249C8.06757 15.3573 8.1319 15.3909 8.19587 15.4253C8.20795 15.4318 8.21997 15.4384 8.23205 15.445C8.29659 15.4802 8.36077 15.516 8.42432 15.5532C9.34142 16.0897 10.3398 16.4371 11.3917 16.586C11.3951 16.5865 11.3983 16.5869 11.4016 16.5873L15.7196 17.0844C15.7435 17.0878 15.7672 17.0918 15.7908 17.0962C16.4264 17.2156 16.9282 17.6853 17.096 18.297C17.1209 18.3876 17.1384 18.4813 17.148 18.5775L17.1651 18.7499L9.07253 18.0409C8.86064 18.0224 8.67354 18.1792 8.65498 18.3911C8.63636 18.6032 8.79325 18.7901 9.00524 18.8087L17.561 19.5583C17.563 19.5585 17.565 19.5584 17.567 19.5586C17.569 19.5587 17.571 19.5591 17.573 19.5592L19.1866 19.6498C19.1938 19.6502 19.201 19.6503 19.2081 19.6503C19.2158 19.6503 19.2233 19.6491 19.2309 19.6486C19.2395 19.6481 19.2481 19.6478 19.2566 19.6467C19.2681 19.6453 19.2794 19.6428 19.2907 19.6403C19.2987 19.6385 19.3068 19.6372 19.3148 19.6349C19.3271 19.6314 19.339 19.6266 19.3509 19.6218C19.3574 19.6192 19.364 19.6172 19.3703 19.6143C19.3883 19.6059 19.4058 19.5963 19.4225 19.5852L20.7921 18.6686L20.7923 18.6684L24.8371 15.9615C25.244 15.6879 25.7996 15.7952 26.0754 16.2007C26.3276 16.5712 26.265 17.0751 25.9281 17.3743Z" fill="#808080"/>
</svg>
