<svg width="26" height="31" viewBox="0 0 26 31" fill="none" xmlns="http://www.w3.org/2000/svg">
<path d="M14.1507 5.53712C14.1507 5.9227 14.4636 6.23558 14.8492 6.23558C15.2346 6.23558 15.5476 5.92403 15.5476 5.53712V3.51397C15.5476 2.13248 14.4243 1.00913 13.0428 1.00913C11.6613 1.00913 10.5379 2.13248 10.5379 3.51397V5.53712C10.5379 5.92403 10.8509 6.23558 11.2364 6.23558C11.622 6.23558 11.9349 5.9227 11.9349 5.53712V3.51397C11.9349 2.90364 12.4324 2.40606 13.0428 2.40606C13.6531 2.40606 14.1507 2.90364 14.1507 3.51397V5.53712Z" fill="#3FBD5A" stroke="#3FBD5A" stroke-width="0.19268"/>
<path d="M8.7313 25.7935C8.7313 28.1709 10.6651 30.1048 13.0425 30.1048C15.4199 30.1048 17.3537 28.1709 17.3537 25.7935C17.3537 25.408 17.0409 25.0951 16.6553 25.0951C16.2697 25.0951 15.9568 25.408 15.9568 25.7935C15.9568 27.3998 14.6488 28.7078 13.0425 28.7078C11.4363 28.7078 10.1282 27.3998 10.1282 25.7935C10.1282 25.408 9.81534 25.0951 9.42976 25.0951C9.04418 25.0951 8.7313 25.408 8.7313 25.7935Z" fill="#3FBD5A" stroke="#3FBD5A" stroke-width="0.19268"/>
<path d="M1.57004 23.1425L1.56957 23.1429C1.146 23.5056 0.90366 24.0321 0.90366 24.5889C0.90366 25.638 1.75725 26.4916 2.80638 26.4916H23.2787C24.329 26.4916 25.1814 25.638 25.1814 24.5889C25.1814 24.0317 24.9388 23.5054 24.5059 23.1345L24.5054 23.134C22.6388 21.5567 21.5686 19.251 21.5686 16.807V13.1485C21.5686 8.44689 17.7441 4.62241 13.0425 4.62241C8.3409 4.62241 4.51642 8.44689 4.51642 13.1485V16.807C4.51642 19.2497 3.44634 21.5567 1.57004 23.1425ZM5.91335 13.1485C5.91335 9.21685 9.11086 6.01934 13.0425 6.01934C16.9742 6.01934 20.1717 9.21685 20.1717 13.1485V16.807C20.1717 19.6617 21.4233 22.3571 23.6076 24.2047C23.7198 24.3008 23.7844 24.4413 23.7844 24.5889C23.7844 24.8681 23.5578 25.0947 23.2787 25.0947H2.80638C2.52721 25.0947 2.30059 24.8681 2.30059 24.5889C2.30059 24.4418 2.36487 24.3012 2.48208 24.2012C4.66291 22.3572 5.91335 19.6629 5.91335 16.807V13.1485Z" fill="#3FBD5A" stroke="#3FBD5A" stroke-width="0.19268"/>
</svg>
