<svg width="29" height="33" viewBox="0 0 29 33" fill="none" xmlns="http://www.w3.org/2000/svg">
<mask id="path-1-outside-1_232_2662" maskUnits="userSpaceOnUse" x="8.5415" y="0.0078125" width="18" height="33" fill="black">
<rect fill="white" x="8.5415" y="0.0078125" width="18" height="33"/>
<path d="M24.6072 26.2104L24.3752 26.2494C24.076 24.9308 24.7201 24.0967 25.1628 22.7589C25.7063 21.306 25.7087 19.3119 25.1715 16.092L24.8048 13.9169C24.7787 13.7566 24.7211 13.6031 24.6355 13.4652C24.5498 13.3273 24.4378 13.2077 24.3057 13.1132C24.1737 13.0187 24.0243 12.9513 23.8661 12.9148C23.7079 12.8783 23.544 12.8734 23.384 12.9005C23.0454 12.9178 22.7161 13.0167 22.4239 13.1887C22.3229 12.9179 22.1309 12.6907 21.881 12.5457C21.631 12.4007 21.3385 12.347 21.0533 12.3937C20.7179 12.415 20.3921 12.5144 20.1019 12.6839C20.0014 12.4136 19.8101 12.1865 19.5608 12.0416C19.3114 11.8968 19.0194 11.843 18.7347 11.8896C18.405 11.908 18.084 12.0023 17.7969 12.1653L17.5249 10.5442C18.4398 10.642 19.2569 10.0924 19.2722 9.12723V2.42481C19.2719 2.04912 19.1225 1.68891 18.8568 1.42326C18.5911 1.1576 18.2309 1.00819 17.8552 1.00781H11.1528C10.7771 1.00818 10.4169 1.15759 10.1512 1.42325C9.88557 1.68891 9.73616 2.04911 9.73579 2.42481V9.12723C9.73616 9.50293 9.88557 9.86313 10.1512 10.1288C10.4169 10.3945 10.7771 10.5439 11.1528 10.5442H14.4941L15.063 16.0434C15.1435 16.4992 15.0048 18.8661 15.0028 19.3728C15.0023 19.3881 14.9978 19.4029 14.9895 19.4158C14.9813 19.4287 14.9697 19.4391 14.9561 19.4459C14.9424 19.4527 14.9271 19.4557 14.9119 19.4545C14.8967 19.4534 14.8821 19.4481 14.8696 19.4392L12.4458 17.9209C12.1324 17.7264 11.7741 17.6164 11.4055 17.6015C11.037 17.5866 10.6709 17.6673 10.3428 17.8359L9.96507 18.0313C9.85912 18.0881 9.76727 18.1679 9.69631 18.2649C9.62535 18.3619 9.57708 18.4737 9.55507 18.5918C9.53306 18.71 9.53788 18.8316 9.56916 18.9476C9.60044 19.0637 9.65739 19.1712 9.73579 19.2623L15.5014 25.8358C15.9391 26.3334 16.2271 26.9447 16.3321 27.599L16.0989 27.638C15.9139 27.6698 15.749 27.7733 15.6399 27.9261C15.5309 28.0789 15.4866 28.2685 15.5166 28.4538L16.0916 31.8804C16.1073 31.9729 16.159 32.0555 16.2355 32.1101C16.3119 32.1646 16.4068 32.1866 16.4995 32.1713L25.7068 30.6268C25.7992 30.6107 25.8816 30.5589 25.936 30.4825C25.9905 30.4062 26.0127 30.3115 25.9978 30.2189L25.4228 26.7916C25.3915 26.6065 25.288 26.4414 25.1351 26.3325C24.9822 26.2235 24.7924 26.1796 24.6072 26.2104ZM11.1528 9.83573C10.965 9.83549 10.7849 9.76077 10.6521 9.62795C10.5192 9.49513 10.4445 9.31506 10.4443 9.12723V2.42481C10.4445 2.23698 10.5193 2.05691 10.6521 1.9241C10.7849 1.79128 10.965 1.71656 11.1528 1.71631H17.8552C18.043 1.71657 18.2231 1.79129 18.3559 1.92411C18.4887 2.05692 18.5635 2.23698 18.5637 2.42481V9.12723C18.5635 9.31506 18.4887 9.49513 18.3559 9.62794C18.2231 9.76076 18.043 9.83548 17.8552 9.83573H17.406C17.2977 9.28855 17.2944 8.43736 16.7503 8.11191C16.367 7.8069 15.8392 7.8757 15.3921 7.97421C15.0733 8.02912 14.7885 8.20622 14.5982 8.46785C14.408 8.72948 14.3273 9.055 14.3733 9.3752L14.4209 9.83573H11.1528ZM16.0344 25.3687L10.2683 18.795C10.2593 18.7852 10.2526 18.7734 10.2489 18.7606C10.2452 18.7478 10.2445 18.7343 10.2469 18.7211C10.2493 18.708 10.2547 18.6956 10.2626 18.6849C10.2706 18.6742 10.2809 18.6655 10.2928 18.6594L10.6683 18.4654C10.8869 18.3528 11.1309 18.2989 11.3766 18.3087C11.6222 18.3185 11.8612 18.3918 12.0701 18.5214L14.4945 20.0405C14.6131 20.1135 14.7487 20.1543 14.8879 20.1587C15.0271 20.1631 15.1651 20.131 15.2881 20.0657C15.4111 20.0003 15.5148 19.9039 15.589 19.7861C15.6633 19.6682 15.7054 19.533 15.7112 19.3939C15.7136 18.7992 15.858 16.515 15.7672 15.9641L15.1695 10.1922C15.1708 10.1889 15.1688 10.1861 15.1685 10.1828L15.0752 9.28115C15.0523 9.14286 15.0852 9.00113 15.1667 8.88706C15.2481 8.77298 15.3715 8.69586 15.5097 8.67262L15.9446 8.59822C16.0826 8.57524 16.224 8.60788 16.338 8.68899C16.452 8.7701 16.5292 8.89307 16.5527 9.03098L17.2768 13.3484L17.7228 15.9977C17.7305 16.0436 17.7472 16.0875 17.7719 16.1269C17.7966 16.1664 17.8288 16.2005 17.8667 16.2275C17.9046 16.2545 17.9474 16.2738 17.9928 16.2842C18.0381 16.2946 18.0851 16.296 18.131 16.2883C18.1769 16.2805 18.2208 16.2639 18.2602 16.2392C18.2996 16.2145 18.3338 16.1822 18.3608 16.1443C18.3878 16.1064 18.407 16.0636 18.4175 16.0182C18.4279 15.9729 18.4293 15.9259 18.4215 15.88L17.9776 13.243C17.9635 13.1084 18.0009 12.9734 18.0822 12.8652C18.1635 12.757 18.2828 12.6835 18.416 12.6596L18.8526 12.5884C18.9907 12.5661 19.1321 12.5991 19.2461 12.6802C19.3601 12.7613 19.4376 12.884 19.4619 13.0219L19.6055 13.8791L19.6079 13.894L19.6081 13.8945L19.9698 16.0676C19.9863 16.1592 20.0383 16.2406 20.1144 16.2942C20.1905 16.3478 20.2847 16.3692 20.3765 16.354C20.4683 16.3387 20.5504 16.2879 20.6051 16.2126C20.6597 16.1372 20.6826 16.0434 20.6686 15.9514L20.3063 13.775C20.2946 13.7065 20.2965 13.636 20.3121 13.5682C20.3277 13.5005 20.3566 13.4365 20.3971 13.3799C20.4375 13.3234 20.4888 13.2755 20.5479 13.2389C20.6071 13.2023 20.6728 13.1778 20.7415 13.1668L21.1715 13.0921C21.3099 13.0697 21.4516 13.1026 21.5662 13.1836C21.6807 13.2646 21.7588 13.3872 21.7838 13.5252L21.9295 14.3946L22.2211 16.1385C22.2288 16.1844 22.2454 16.2283 22.2701 16.2678C22.2947 16.3072 22.3269 16.3414 22.3648 16.3685C22.4027 16.3955 22.4455 16.4148 22.4908 16.4252C22.5361 16.4357 22.5831 16.4371 22.629 16.4295C22.6749 16.4218 22.7188 16.4051 22.7582 16.3805C22.7977 16.3558 22.8319 16.3237 22.8589 16.2858C22.8859 16.2479 22.9052 16.2051 22.9157 16.1598C22.9262 16.1144 22.9276 16.0675 22.9199 16.0216L22.6283 14.2777V14.277C22.6066 14.1396 22.6395 13.9992 22.7201 13.8858C22.8007 13.7725 22.9225 13.6952 23.0594 13.6706L23.5011 13.5993C23.5693 13.588 23.6391 13.5902 23.7064 13.6059C23.7738 13.6216 23.8374 13.6504 23.8935 13.6907C23.9497 13.731 23.9974 13.782 24.0338 13.8408C24.0702 13.8995 24.0947 13.9649 24.1058 14.0331L24.4726 16.2091C24.988 19.2981 24.996 21.1828 24.4989 22.5112L24.4985 22.5119C23.9975 23.9487 23.3457 24.9214 23.6762 26.3664L17.0305 27.4804C16.9036 26.6968 16.5583 25.965 16.0344 25.3687ZM16.7316 31.4142L16.2155 28.337L23.769 27.0692L24.1432 27.0064L24.724 26.909L25.2405 29.9869L16.7316 31.4142Z"/>
</mask>
<path d="M24.6072 26.2104L24.3752 26.2494C24.076 24.9308 24.7201 24.0967 25.1628 22.7589C25.7063 21.306 25.7087 19.3119 25.1715 16.092L24.8048 13.9169C24.7787 13.7566 24.7211 13.6031 24.6355 13.4652C24.5498 13.3273 24.4378 13.2077 24.3057 13.1132C24.1737 13.0187 24.0243 12.9513 23.8661 12.9148C23.7079 12.8783 23.544 12.8734 23.384 12.9005C23.0454 12.9178 22.7161 13.0167 22.4239 13.1887C22.3229 12.9179 22.1309 12.6907 21.881 12.5457C21.631 12.4007 21.3385 12.347 21.0533 12.3937C20.7179 12.415 20.3921 12.5144 20.1019 12.6839C20.0014 12.4136 19.8101 12.1865 19.5608 12.0416C19.3114 11.8968 19.0194 11.843 18.7347 11.8896C18.405 11.908 18.084 12.0023 17.7969 12.1653L17.5249 10.5442C18.4398 10.642 19.2569 10.0924 19.2722 9.12723V2.42481C19.2719 2.04912 19.1225 1.68891 18.8568 1.42326C18.5911 1.1576 18.2309 1.00819 17.8552 1.00781H11.1528C10.7771 1.00818 10.4169 1.15759 10.1512 1.42325C9.88557 1.68891 9.73616 2.04911 9.73579 2.42481V9.12723C9.73616 9.50293 9.88557 9.86313 10.1512 10.1288C10.4169 10.3945 10.7771 10.5439 11.1528 10.5442H14.4941L15.063 16.0434C15.1435 16.4992 15.0048 18.8661 15.0028 19.3728C15.0023 19.3881 14.9978 19.4029 14.9895 19.4158C14.9813 19.4287 14.9697 19.4391 14.9561 19.4459C14.9424 19.4527 14.9271 19.4557 14.9119 19.4545C14.8967 19.4534 14.8821 19.4481 14.8696 19.4392L12.4458 17.9209C12.1324 17.7264 11.7741 17.6164 11.4055 17.6015C11.037 17.5866 10.6709 17.6673 10.3428 17.8359L9.96507 18.0313C9.85912 18.0881 9.76727 18.1679 9.69631 18.2649C9.62535 18.3619 9.57708 18.4737 9.55507 18.5918C9.53306 18.71 9.53788 18.8316 9.56916 18.9476C9.60044 19.0637 9.65739 19.1712 9.73579 19.2623L15.5014 25.8358C15.9391 26.3334 16.2271 26.9447 16.3321 27.599L16.0989 27.638C15.9139 27.6698 15.749 27.7733 15.6399 27.9261C15.5309 28.0789 15.4866 28.2685 15.5166 28.4538L16.0916 31.8804C16.1073 31.9729 16.159 32.0555 16.2355 32.1101C16.3119 32.1646 16.4068 32.1866 16.4995 32.1713L25.7068 30.6268C25.7992 30.6107 25.8816 30.5589 25.936 30.4825C25.9905 30.4062 26.0127 30.3115 25.9978 30.2189L25.4228 26.7916C25.3915 26.6065 25.288 26.4414 25.1351 26.3325C24.9822 26.2235 24.7924 26.1796 24.6072 26.2104ZM11.1528 9.83573C10.965 9.83549 10.7849 9.76077 10.6521 9.62795C10.5192 9.49513 10.4445 9.31506 10.4443 9.12723V2.42481C10.4445 2.23698 10.5193 2.05691 10.6521 1.9241C10.7849 1.79128 10.965 1.71656 11.1528 1.71631H17.8552C18.043 1.71657 18.2231 1.79129 18.3559 1.92411C18.4887 2.05692 18.5635 2.23698 18.5637 2.42481V9.12723C18.5635 9.31506 18.4887 9.49513 18.3559 9.62794C18.2231 9.76076 18.043 9.83548 17.8552 9.83573H17.406C17.2977 9.28855 17.2944 8.43736 16.7503 8.11191C16.367 7.8069 15.8392 7.8757 15.3921 7.97421C15.0733 8.02912 14.7885 8.20622 14.5982 8.46785C14.408 8.72948 14.3273 9.055 14.3733 9.3752L14.4209 9.83573H11.1528ZM16.0344 25.3687L10.2683 18.795C10.2593 18.7852 10.2526 18.7734 10.2489 18.7606C10.2452 18.7478 10.2445 18.7343 10.2469 18.7211C10.2493 18.708 10.2547 18.6956 10.2626 18.6849C10.2706 18.6742 10.2809 18.6655 10.2928 18.6594L10.6683 18.4654C10.8869 18.3528 11.1309 18.2989 11.3766 18.3087C11.6222 18.3185 11.8612 18.3918 12.0701 18.5214L14.4945 20.0405C14.6131 20.1135 14.7487 20.1543 14.8879 20.1587C15.0271 20.1631 15.1651 20.131 15.2881 20.0657C15.4111 20.0003 15.5148 19.9039 15.589 19.7861C15.6633 19.6682 15.7054 19.533 15.7112 19.3939C15.7136 18.7992 15.858 16.515 15.7672 15.9641L15.1695 10.1922C15.1708 10.1889 15.1688 10.1861 15.1685 10.1828L15.0752 9.28115C15.0523 9.14286 15.0852 9.00113 15.1667 8.88706C15.2481 8.77298 15.3715 8.69586 15.5097 8.67262L15.9446 8.59822C16.0826 8.57524 16.224 8.60788 16.338 8.68899C16.452 8.7701 16.5292 8.89307 16.5527 9.03098L17.2768 13.3484L17.7228 15.9977C17.7305 16.0436 17.7472 16.0875 17.7719 16.1269C17.7966 16.1664 17.8288 16.2005 17.8667 16.2275C17.9046 16.2545 17.9474 16.2738 17.9928 16.2842C18.0381 16.2946 18.0851 16.296 18.131 16.2883C18.1769 16.2805 18.2208 16.2639 18.2602 16.2392C18.2996 16.2145 18.3338 16.1822 18.3608 16.1443C18.3878 16.1064 18.407 16.0636 18.4175 16.0182C18.4279 15.9729 18.4293 15.9259 18.4215 15.88L17.9776 13.243C17.9635 13.1084 18.0009 12.9734 18.0822 12.8652C18.1635 12.757 18.2828 12.6835 18.416 12.6596L18.8526 12.5884C18.9907 12.5661 19.1321 12.5991 19.2461 12.6802C19.3601 12.7613 19.4376 12.884 19.4619 13.0219L19.6055 13.8791L19.6079 13.894L19.6081 13.8945L19.9698 16.0676C19.9863 16.1592 20.0383 16.2406 20.1144 16.2942C20.1905 16.3478 20.2847 16.3692 20.3765 16.354C20.4683 16.3387 20.5504 16.2879 20.6051 16.2126C20.6597 16.1372 20.6826 16.0434 20.6686 15.9514L20.3063 13.775C20.2946 13.7065 20.2965 13.636 20.3121 13.5682C20.3277 13.5005 20.3566 13.4365 20.3971 13.3799C20.4375 13.3234 20.4888 13.2755 20.5479 13.2389C20.6071 13.2023 20.6728 13.1778 20.7415 13.1668L21.1715 13.0921C21.3099 13.0697 21.4516 13.1026 21.5662 13.1836C21.6807 13.2646 21.7588 13.3872 21.7838 13.5252L21.9295 14.3946L22.2211 16.1385C22.2288 16.1844 22.2454 16.2283 22.2701 16.2678C22.2947 16.3072 22.3269 16.3414 22.3648 16.3685C22.4027 16.3955 22.4455 16.4148 22.4908 16.4252C22.5361 16.4357 22.5831 16.4371 22.629 16.4295C22.6749 16.4218 22.7188 16.4051 22.7582 16.3805C22.7977 16.3558 22.8319 16.3237 22.8589 16.2858C22.8859 16.2479 22.9052 16.2051 22.9157 16.1598C22.9262 16.1144 22.9276 16.0675 22.9199 16.0216L22.6283 14.2777V14.277C22.6066 14.1396 22.6395 13.9992 22.7201 13.8858C22.8007 13.7725 22.9225 13.6952 23.0594 13.6706L23.5011 13.5993C23.5693 13.588 23.6391 13.5902 23.7064 13.6059C23.7738 13.6216 23.8374 13.6504 23.8935 13.6907C23.9497 13.731 23.9974 13.782 24.0338 13.8408C24.0702 13.8995 24.0947 13.9649 24.1058 14.0331L24.4726 16.2091C24.988 19.2981 24.996 21.1828 24.4989 22.5112L24.4985 22.5119C23.9975 23.9487 23.3457 24.9214 23.6762 26.3664L17.0305 27.4804C16.9036 26.6968 16.5583 25.965 16.0344 25.3687ZM16.7316 31.4142L16.2155 28.337L23.769 27.0692L24.1432 27.0064L24.724 26.909L25.2405 29.9869L16.7316 31.4142Z" fill="#3FBD5A"/>
<path d="M24.6072 26.2104L24.3752 26.2494C24.076 24.9308 24.7201 24.0967 25.1628 22.7589C25.7063 21.306 25.7087 19.3119 25.1715 16.092L24.8048 13.9169C24.7787 13.7566 24.7211 13.6031 24.6355 13.4652C24.5498 13.3273 24.4378 13.2077 24.3057 13.1132C24.1737 13.0187 24.0243 12.9513 23.8661 12.9148C23.7079 12.8783 23.544 12.8734 23.384 12.9005C23.0454 12.9178 22.7161 13.0167 22.4239 13.1887C22.3229 12.9179 22.1309 12.6907 21.881 12.5457C21.631 12.4007 21.3385 12.347 21.0533 12.3937C20.7179 12.415 20.3921 12.5144 20.1019 12.6839C20.0014 12.4136 19.8101 12.1865 19.5608 12.0416C19.3114 11.8968 19.0194 11.843 18.7347 11.8896C18.405 11.908 18.084 12.0023 17.7969 12.1653L17.5249 10.5442C18.4398 10.642 19.2569 10.0924 19.2722 9.12723V2.42481C19.2719 2.04912 19.1225 1.68891 18.8568 1.42326C18.5911 1.1576 18.2309 1.00819 17.8552 1.00781H11.1528C10.7771 1.00818 10.4169 1.15759 10.1512 1.42325C9.88557 1.68891 9.73616 2.04911 9.73579 2.42481V9.12723C9.73616 9.50293 9.88557 9.86313 10.1512 10.1288C10.4169 10.3945 10.7771 10.5439 11.1528 10.5442H14.4941L15.063 16.0434C15.1435 16.4992 15.0048 18.8661 15.0028 19.3728C15.0023 19.3881 14.9978 19.4029 14.9895 19.4158C14.9813 19.4287 14.9697 19.4391 14.9561 19.4459C14.9424 19.4527 14.9271 19.4557 14.9119 19.4545C14.8967 19.4534 14.8821 19.4481 14.8696 19.4392L12.4458 17.9209C12.1324 17.7264 11.7741 17.6164 11.4055 17.6015C11.037 17.5866 10.6709 17.6673 10.3428 17.8359L9.96507 18.0313C9.85912 18.0881 9.76727 18.1679 9.69631 18.2649C9.62535 18.3619 9.57708 18.4737 9.55507 18.5918C9.53306 18.71 9.53788 18.8316 9.56916 18.9476C9.60044 19.0637 9.65739 19.1712 9.73579 19.2623L15.5014 25.8358C15.9391 26.3334 16.2271 26.9447 16.3321 27.599L16.0989 27.638C15.9139 27.6698 15.749 27.7733 15.6399 27.9261C15.5309 28.0789 15.4866 28.2685 15.5166 28.4538L16.0916 31.8804C16.1073 31.9729 16.159 32.0555 16.2355 32.1101C16.3119 32.1646 16.4068 32.1866 16.4995 32.1713L25.7068 30.6268C25.7992 30.6107 25.8816 30.5589 25.936 30.4825C25.9905 30.4062 26.0127 30.3115 25.9978 30.2189L25.4228 26.7916C25.3915 26.6065 25.288 26.4414 25.1351 26.3325C24.9822 26.2235 24.7924 26.1796 24.6072 26.2104ZM11.1528 9.83573C10.965 9.83549 10.7849 9.76077 10.6521 9.62795C10.5192 9.49513 10.4445 9.31506 10.4443 9.12723V2.42481C10.4445 2.23698 10.5193 2.05691 10.6521 1.9241C10.7849 1.79128 10.965 1.71656 11.1528 1.71631H17.8552C18.043 1.71657 18.2231 1.79129 18.3559 1.92411C18.4887 2.05692 18.5635 2.23698 18.5637 2.42481V9.12723C18.5635 9.31506 18.4887 9.49513 18.3559 9.62794C18.2231 9.76076 18.043 9.83548 17.8552 9.83573H17.406C17.2977 9.28855 17.2944 8.43736 16.7503 8.11191C16.367 7.8069 15.8392 7.8757 15.3921 7.97421C15.0733 8.02912 14.7885 8.20622 14.5982 8.46785C14.408 8.72948 14.3273 9.055 14.3733 9.3752L14.4209 9.83573H11.1528ZM16.0344 25.3687L10.2683 18.795C10.2593 18.7852 10.2526 18.7734 10.2489 18.7606C10.2452 18.7478 10.2445 18.7343 10.2469 18.7211C10.2493 18.708 10.2547 18.6956 10.2626 18.6849C10.2706 18.6742 10.2809 18.6655 10.2928 18.6594L10.6683 18.4654C10.8869 18.3528 11.1309 18.2989 11.3766 18.3087C11.6222 18.3185 11.8612 18.3918 12.0701 18.5214L14.4945 20.0405C14.6131 20.1135 14.7487 20.1543 14.8879 20.1587C15.0271 20.1631 15.1651 20.131 15.2881 20.0657C15.4111 20.0003 15.5148 19.9039 15.589 19.7861C15.6633 19.6682 15.7054 19.533 15.7112 19.3939C15.7136 18.7992 15.858 16.515 15.7672 15.9641L15.1695 10.1922C15.1708 10.1889 15.1688 10.1861 15.1685 10.1828L15.0752 9.28115C15.0523 9.14286 15.0852 9.00113 15.1667 8.88706C15.2481 8.77298 15.3715 8.69586 15.5097 8.67262L15.9446 8.59822C16.0826 8.57524 16.224 8.60788 16.338 8.68899C16.452 8.7701 16.5292 8.89307 16.5527 9.03098L17.2768 13.3484L17.7228 15.9977C17.7305 16.0436 17.7472 16.0875 17.7719 16.1269C17.7966 16.1664 17.8288 16.2005 17.8667 16.2275C17.9046 16.2545 17.9474 16.2738 17.9928 16.2842C18.0381 16.2946 18.0851 16.296 18.131 16.2883C18.1769 16.2805 18.2208 16.2639 18.2602 16.2392C18.2996 16.2145 18.3338 16.1822 18.3608 16.1443C18.3878 16.1064 18.407 16.0636 18.4175 16.0182C18.4279 15.9729 18.4293 15.9259 18.4215 15.88L17.9776 13.243C17.9635 13.1084 18.0009 12.9734 18.0822 12.8652C18.1635 12.757 18.2828 12.6835 18.416 12.6596L18.8526 12.5884C18.9907 12.5661 19.1321 12.5991 19.2461 12.6802C19.3601 12.7613 19.4376 12.884 19.4619 13.0219L19.6055 13.8791L19.6079 13.894L19.6081 13.8945L19.9698 16.0676C19.9863 16.1592 20.0383 16.2406 20.1144 16.2942C20.1905 16.3478 20.2847 16.3692 20.3765 16.354C20.4683 16.3387 20.5504 16.2879 20.6051 16.2126C20.6597 16.1372 20.6826 16.0434 20.6686 15.9514L20.3063 13.775C20.2946 13.7065 20.2965 13.636 20.3121 13.5682C20.3277 13.5005 20.3566 13.4365 20.3971 13.3799C20.4375 13.3234 20.4888 13.2755 20.5479 13.2389C20.6071 13.2023 20.6728 13.1778 20.7415 13.1668L21.1715 13.0921C21.3099 13.0697 21.4516 13.1026 21.5662 13.1836C21.6807 13.2646 21.7588 13.3872 21.7838 13.5252L21.9295 14.3946L22.2211 16.1385C22.2288 16.1844 22.2454 16.2283 22.2701 16.2678C22.2947 16.3072 22.3269 16.3414 22.3648 16.3685C22.4027 16.3955 22.4455 16.4148 22.4908 16.4252C22.5361 16.4357 22.5831 16.4371 22.629 16.4295C22.6749 16.4218 22.7188 16.4051 22.7582 16.3805C22.7977 16.3558 22.8319 16.3237 22.8589 16.2858C22.8859 16.2479 22.9052 16.2051 22.9157 16.1598C22.9262 16.1144 22.9276 16.0675 22.9199 16.0216L22.6283 14.2777V14.277C22.6066 14.1396 22.6395 13.9992 22.7201 13.8858C22.8007 13.7725 22.9225 13.6952 23.0594 13.6706L23.5011 13.5993C23.5693 13.588 23.6391 13.5902 23.7064 13.6059C23.7738 13.6216 23.8374 13.6504 23.8935 13.6907C23.9497 13.731 23.9974 13.782 24.0338 13.8408C24.0702 13.8995 24.0947 13.9649 24.1058 14.0331L24.4726 16.2091C24.988 19.2981 24.996 21.1828 24.4989 22.5112L24.4985 22.5119C23.9975 23.9487 23.3457 24.9214 23.6762 26.3664L17.0305 27.4804C16.9036 26.6968 16.5583 25.965 16.0344 25.3687ZM16.7316 31.4142L16.2155 28.337L23.769 27.0692L24.1432 27.0064L24.724 26.909L25.2405 29.9869L16.7316 31.4142Z" stroke="#3FBD5A" stroke-width="0.413292" mask="url(#path-1-outside-1_232_2662)"/>
<path d="M6.82622 7.08418H6.8261L2.06275 7.08418L2.06264 7.08418C1.75351 7.08452 1.45714 7.20747 1.23855 7.42605C1.01997 7.64464 0.897017 7.94101 0.896677 8.25014V8.25025L0.896677 13.0136L0.896677 13.0137C0.897017 13.3228 1.01997 13.6192 1.23855 13.8378C1.45714 14.0564 1.75351 14.1793 2.06264 14.1797H2.06275H6.8261H6.82622C7.13535 14.1793 7.43172 14.0564 7.6503 13.8378C7.86889 13.6192 7.99184 13.3228 7.99218 13.0137V13.0136V8.25025V8.25014C7.99184 7.94101 7.86889 7.64464 7.6503 7.42605C7.43172 7.20747 7.13535 7.08452 6.82622 7.08418ZM7.07703 13.0135C7.07699 13.0801 7.05053 13.1439 7.00346 13.191C6.9564 13.238 6.89259 13.2645 6.82603 13.2645H2.06282C1.99627 13.2645 1.93245 13.238 1.88539 13.191C1.83833 13.1439 1.81187 13.0801 1.81182 13.0135V8.25031C1.81186 8.18376 1.83832 8.11994 1.88538 8.07288C1.93244 8.02582 1.99626 7.99936 2.06281 7.99932H6.82603C6.89259 7.99937 6.9564 8.02583 7.00346 8.07289C7.05053 8.11995 7.07699 8.18377 7.07703 8.25032V13.0135Z" fill="#3FBD5A" stroke="#3FBD5A" stroke-width="0.206646"/>
<path d="M27.2149 3.55293H27.2148L22.4514 3.55293L22.4513 3.55293C22.1422 3.55327 21.8458 3.67622 21.6272 3.8948C21.4086 4.11339 21.2857 4.40976 21.2853 4.71889V4.719L21.2853 9.48235L21.2853 9.48247C21.2857 9.7916 21.4086 10.088 21.6272 10.3066C21.8458 10.5251 22.1422 10.6481 22.4513 10.6484H22.4514H27.2148H27.2149C27.524 10.6481 27.8204 10.5251 28.039 10.3066C28.2576 10.088 28.3805 9.7916 28.3808 9.48247V9.48235V4.719V4.71889C28.3805 4.40976 28.2576 4.11339 28.039 3.8948C27.8204 3.67622 27.524 3.55327 27.2149 3.55293ZM27.4657 9.48228C27.4657 9.54884 27.4392 9.61265 27.3921 9.65971C27.3451 9.70678 27.2813 9.73324 27.2147 9.73328H22.4515C22.3849 9.73324 22.3211 9.70678 22.2741 9.65971C22.227 9.61265 22.2005 9.54884 22.2005 9.48228V4.71907C22.2005 4.65252 22.227 4.5887 22.2741 4.54164C22.3211 4.49458 22.3849 4.46812 22.4515 4.46807H27.2147C27.2813 4.46811 27.3451 4.49457 27.3921 4.54163C27.4392 4.58869 27.4657 4.65251 27.4657 4.71906V9.48228Z" fill="#3FBD5A" stroke="#3FBD5A" stroke-width="0.206646"/>
<path d="M17.1966 3.52675L17.1966 3.52674C17.1108 3.44096 16.9945 3.39277 16.8731 3.39277C16.7518 3.39277 16.6354 3.44096 16.5496 3.52674L16.5496 3.52675L14.0637 6.01266L12.8263 4.77527L12.8263 4.77526L12.8252 4.77417C12.7389 4.69051 12.6232 4.64414 12.5031 4.64505C12.383 4.64597 12.268 4.69411 12.183 4.77907C12.0981 4.86404 12.0499 4.979 12.049 5.09915C12.0481 5.2193 12.0945 5.33498 12.1782 5.42122L12.1782 5.42123L12.1793 5.42234L13.7402 6.98324L13.7402 6.98324C13.826 7.06904 13.9424 7.11723 14.0637 7.11723C14.1851 7.11723 14.3015 7.06904 14.3873 6.98324L14.3873 6.98324L17.1967 4.17382L17.1967 4.17381C17.2825 4.08799 17.3307 3.97161 17.3307 3.85027C17.3307 3.72893 17.2824 3.61256 17.1966 3.52675Z" fill="#3FBD5A" stroke="#3FBD5A" stroke-width="0.206646"/>
<path d="M4.44539 9.29119L4.44347 9.29121C4.09013 9.29449 3.75236 9.43715 3.50366 9.68817C3.25495 9.93919 3.11543 10.2783 3.11543 10.6316C3.11543 10.985 3.25495 11.3241 3.50366 11.5751C3.75236 11.8261 4.09013 11.9688 4.44347 11.9721L4.44539 11.972C4.79874 11.9688 5.1365 11.8261 5.3852 11.5751C5.63391 11.3241 5.77344 10.985 5.77344 10.6316C5.77344 10.2783 5.63391 9.93919 5.3852 9.68817C5.1365 9.43715 4.79874 9.29449 4.44539 9.29119ZM4.73981 10.9302C4.66169 11.0095 4.55565 11.0549 4.44443 11.0569C4.33322 11.0549 4.22717 11.0095 4.14905 10.9302C4.07059 10.8507 4.0266 10.7434 4.0266 10.6316C4.0266 10.5199 4.07059 10.4126 4.14905 10.333C4.22717 10.2538 4.33322 10.2083 4.44443 10.2064C4.55565 10.2083 4.66169 10.2538 4.73981 10.333C4.81827 10.4126 4.86226 10.5199 4.86226 10.6316C4.86226 10.7434 4.81827 10.8507 4.73981 10.9302Z" fill="#3FBD5A" stroke="#3FBD5A" stroke-width="0.206646"/>
<path d="M24.8335 5.75995L24.832 5.75996C24.4782 5.76264 24.1399 5.90504 23.8907 6.15613C23.6415 6.40722 23.5017 6.74664 23.5017 7.10039C23.5017 7.45415 23.6415 7.79357 23.8907 8.04466C24.1399 8.29574 24.4782 8.43815 24.832 8.44084L24.8335 8.44083C25.1873 8.43815 25.5256 8.29575 25.7748 8.04466C26.024 7.79357 26.1639 7.45415 26.1639 7.10039C26.1639 6.74664 26.024 6.40722 25.7748 6.15613C25.5256 5.90504 25.1873 5.76264 24.8335 5.75995ZM25.1291 7.3994C25.0507 7.47873 24.9443 7.52407 24.8328 7.52567C24.7213 7.52407 24.6148 7.47873 24.5364 7.3994C24.4577 7.31978 24.4136 7.21234 24.4136 7.10039C24.4136 6.98844 24.4577 6.88101 24.5364 6.80139C24.6148 6.72206 24.7213 6.67672 24.8328 6.67511C24.9443 6.67672 25.0507 6.72206 25.1291 6.80139C25.2078 6.88101 25.252 6.98844 25.252 7.10039C25.252 7.21234 25.2078 7.31978 25.1291 7.3994Z" fill="#3FBD5A" stroke="#3FBD5A" stroke-width="0.206646"/>
</svg>
