<svg width="67" height="68" viewBox="0 0 67 68" fill="none" xmlns="http://www.w3.org/2000/svg">
<path fill-rule="evenodd" clip-rule="evenodd" d="M35.1576 9.65109C37.5746 7.91341 40.5396 6.88983 43.7437 6.88983C51.8773 6.88983 58.4709 13.4834 58.4709 21.617C58.4709 29.7506 51.8773 36.3442 43.7437 36.3442C35.6101 36.3442 29.0165 29.7506 29.0165 21.617C29.0165 20.6201 29.1157 19.6465 29.3047 18.7054L31.9376 20.377C32.2441 20.5714 32.6063 20.582 32.9235 20.4058C33.2408 20.2294 33.4231 19.9162 33.4194 19.5534L33.3181 8.87483C33.3149 8.538 33.155 8.24998 32.8705 8.06952C32.586 7.88894 32.2573 7.86656 31.9512 8.0071L22.244 12.4582C21.9141 12.6094 21.7082 12.9075 21.6837 13.2697C21.6591 13.632 21.8227 13.9552 22.1291 14.1498L25.096 16.0335C24.5672 17.8021 24.283 19.6765 24.283 21.6171C24.283 32.365 32.9958 41.0779 43.7437 41.0779C54.4916 41.0779 63.2045 32.365 63.2045 21.6171C63.2045 10.8693 54.4917 2.15625 43.7438 2.15625C39.3262 2.15625 35.2529 3.62881 31.9869 6.10925C32.6286 6.02262 33.2853 6.16277 33.8523 6.52277C34.6609 7.036 35.141 7.8998 35.1502 8.85743L35.1578 9.65122L35.1576 9.65109Z" fill="#FDC72E"/>
<path fill-rule="evenodd" clip-rule="evenodd" d="M50.9637 8.77878C55.4445 11.3041 58.471 16.1066 58.471 21.6166C58.471 29.7502 51.8774 36.3438 43.7438 36.3438C40.5617 36.3438 37.6156 35.3345 35.2075 33.6188C30.7267 31.0933 27.7002 26.2909 27.7002 20.7809C27.7002 19.7842 27.7994 18.8105 27.9884 17.8693L29.3048 18.7051L30.6239 19.5426C30.9298 19.7355 31.2907 19.7455 31.607 19.5697C31.9244 19.3933 32.1067 19.0802 32.103 18.7173L32.0017 8.03877C32.0016 8.02097 32.0009 8.00344 31.9999 7.9859C31.9836 7.99245 31.9674 7.99938 31.9512 8.00684L22.244 12.4579C21.9141 12.6092 21.7082 12.9073 21.6837 13.2695C21.6591 13.6317 21.8227 13.9549 22.1291 14.1495L23.7795 15.1974L25.096 16.0332C24.5672 17.8018 24.283 19.6762 24.283 21.6169C24.283 28.2569 27.6094 34.1192 32.6858 37.6312C35.5509 39.2911 38.8778 40.242 42.4273 40.242C53.1751 40.242 61.888 31.5291 61.888 20.7812C61.888 14.1413 58.5618 8.27916 53.4855 4.76716C50.6204 3.10707 47.2933 2.15625 43.7437 2.15625C39.326 2.15625 35.2528 3.62881 31.9868 6.10925C32.6285 6.02262 33.2852 6.16277 33.8522 6.52277C34.4243 6.8859 34.8319 7.42439 35.0246 8.04767C37.1994 6.7803 39.7284 6.05416 42.4271 6.05416C45.6091 6.05416 48.5554 7.06348 50.9635 8.77917L50.9637 8.77878Z" fill="#FCDB35"/>
<path fill-rule="evenodd" clip-rule="evenodd" d="M53.084 15.2713C53.7999 15.9873 53.7999 17.1588 53.084 17.8748L43.0346 27.9241C42.591 28.3677 42.0211 28.5611 41.3991 28.4794C40.7772 28.3974 40.2768 28.0631 39.9631 27.5198L36.4779 21.4831C35.9716 20.6062 36.2748 19.4745 37.1517 18.9684C38.0274 18.4627 39.1609 18.7666 39.6664 19.6422L42.0249 23.7271L50.4807 15.2713C51.1966 14.5554 52.3682 14.5554 53.0841 15.2713H53.084Z" fill="#2DD62D"/>
<path fill-rule="evenodd" clip-rule="evenodd" d="M45.307 48.7373C46.4727 46.7759 44.9961 44.2913 42.7161 44.3775C23.9795 44.3775 23.9463 29.1422 6.42017 51.6819L15.6948 61.4052C19.8258 57.2393 24.7366 57.0468 30.153 57.3708C33.1074 57.5476 36.6331 57.9741 39.868 57.9026C44.3878 57.8028 47.1579 56.576 51.1267 54.4734C55.6454 52.0798 63.4988 47.3124 64.8689 45.5114C66.8296 42.9337 64.2982 40.506 61.3076 42.2326C57.7902 44.2633 48.4771 48.705 43.6792 50.0431C44.4052 49.7283 44.9724 49.3006 45.3071 48.7372L45.307 48.7373Z" fill="#FDB0A0"/>
<path fill-rule="evenodd" clip-rule="evenodd" d="M45.307 48.7373C46.4727 46.7759 44.9961 44.2913 42.7161 44.3775C23.9795 44.3775 23.9463 29.1422 6.42017 51.6819L13.5794 59.1873C17.9078 54.9185 23.0393 54.7222 28.6937 55.0605C31.8083 55.2468 35.5253 55.6964 38.9353 55.6211C43.7002 55.5157 46.6203 54.2224 50.8044 52.0061C55.521 49.5076 63.6828 44.5563 65.2455 42.616C64.5972 41.6213 63.0286 41.2391 61.3076 42.2327C57.7902 44.2634 48.4771 48.7052 43.6792 50.0432C44.4052 49.7285 44.9724 49.3007 45.3071 48.7373H45.307Z" fill="#FFCEC0"/>
<path fill-rule="evenodd" clip-rule="evenodd" d="M45.307 48.7367C46.2163 47.2067 45.5177 45.3583 44.0842 44.6602C45.1218 45.7965 44.4259 47.4099 42.7986 48.0019C41.898 48.3296 40.6843 48.4844 39.3655 48.5166C35.9208 48.6009 31.9575 47.7927 30.3903 46.977C29.8378 46.6898 29.1571 46.9049 28.8699 47.4574C28.5826 48.0099 28.7978 48.6906 29.3503 48.9779C31.1611 49.9203 35.6195 50.857 39.4185 50.7641C40.9876 50.7256 42.4715 50.5079 43.6794 50.0424C44.4054 49.7277 44.9725 49.2999 45.3073 48.7366L45.307 48.7367Z" fill="#FDB0A0"/>
<path fill-rule="evenodd" clip-rule="evenodd" d="M1.43945 53.0197L5.73334 48.7259C6.57621 47.883 7.9556 47.883 8.79846 48.7259L19.0067 58.934C19.8495 59.7768 19.8495 61.1562 19.0067 61.9991L14.7128 66.293L1.43945 53.0197Z" fill="#2A92FA"/>
<path fill-rule="evenodd" clip-rule="evenodd" d="M1.43945 53.0198L5.73334 48.7259C6.57581 47.8833 7.95429 47.8831 8.79728 48.7249L8.79833 48.7259L16.8375 56.7651C17.6804 57.608 17.6804 58.9874 16.8375 59.8303L12.5438 64.1242L1.43945 53.0198Z" fill="#4EB1FC"/>
</svg>
