<svg width="116" height="117" viewBox="0 0 116 117" fill="none" xmlns="http://www.w3.org/2000/svg">
<g filter="url(#filter0_d_67_687)">
<circle cx="59" cy="54.7266" r="50" fill="#3FBD5A" fill-opacity="0.06" shape-rendering="crispEdges"/>
</g>
<g clip-path="url(#clip0_67_687)">
<path d="M75.0281 81.897C81.0294 81.897 85.8945 77.0319 85.8945 71.0305C85.8945 65.0291 81.0294 60.1641 75.0281 60.1641C69.0267 60.1641 64.1616 65.0291 64.1616 71.0305C64.1616 77.0319 69.0267 81.897 75.0281 81.897Z" fill="#BADE96"/>
<path d="M47.4742 66.5232C48.2707 67.3186 48.2707 68.6085 47.4742 69.4038L45.1401 71.738C43.2436 71.3128 42.36 70.3055 42.2605 68.8561L44.5936 66.5231C45.3889 65.7267 46.6788 65.7267 47.4742 66.5232Z" fill="#E8EBFA"/>
<path d="M61.0378 73.3835V76.6358C59.7231 77.692 58.3306 77.7153 56.9629 76.6358V73.3345C56.9629 72.1848 57.9149 71.258 59.0732 71.2981C60.1782 71.3374 61.0378 72.2784 61.0378 73.3835Z" fill="#E8EBFA"/>
<path d="M61.0377 33.3584V36.6596C61.0377 37.7854 60.126 38.697 59.0002 38.697C57.8744 38.697 56.9628 37.7854 56.9628 36.6596V33.3584C58.1578 32.35 59.548 32.3278 61.0377 33.3584Z" fill="#E8EBFA"/>
<path d="M47.4741 40.588C48.2706 41.3835 48.2706 42.6734 47.4741 43.4687C46.6786 44.2652 45.3887 44.2652 44.5934 43.4687L42.2593 41.1346C42.169 39.3191 43.1225 38.345 45.1399 38.2539L47.4741 40.588Z" fill="#E8EBFA"/>
<path d="M40.663 52.9609C41.7888 52.9609 42.7004 53.8726 42.7004 54.9984C42.7004 56.1242 41.7888 57.0358 40.663 57.0358H37.3618C36.047 55.6384 36.2011 54.2569 37.3618 52.9609H40.663Z" fill="#E8EBFA"/>
<path d="M75.7409 41.1373L73.4068 43.4714C72.6113 44.2679 71.3215 44.2679 70.5261 43.4714C69.7296 42.676 69.7296 41.3861 70.5261 40.5908L72.8592 38.2578C74.3991 38.2646 75.3458 39.2615 75.7409 41.1373Z" fill="#E8EBFA"/>
<path d="M80.6385 52.961C81.4556 54.2757 81.4741 55.6683 80.6385 57.0359H77.3372C76.1875 57.0359 75.2606 56.084 75.3008 54.9256C75.3399 53.8205 76.2809 52.9609 77.3861 52.9609H80.6385V52.961Z" fill="#E8EBFA"/>
<path d="M60.6298 43.591V53.2654C59.6334 52.6847 58.3782 52.6777 57.3699 53.2654V43.591C57.3699 42.6912 58.1001 41.9609 58.9998 41.9609C59.4497 41.9609 59.8571 42.1435 60.1516 42.439C60.4473 42.7336 60.6298 43.1411 60.6298 43.591Z" fill="#666667"/>
<path d="M69.5947 55.0011C69.5947 55.8994 68.8646 56.631 67.9648 56.631H60.7354C61.3161 55.6347 61.323 54.3794 60.7354 53.3711H67.9648C68.8646 53.3712 69.5947 54.1014 69.5947 55.0011Z" fill="#666667"/>
<path d="M45.1398 71.7408C49.6499 75.4792 55.3719 77.171 61.0374 76.6384V79.8625C61.0374 80.9784 60.1366 81.8934 59.0207 81.8945C44.097 81.8945 32.1055 69.8121 32.1055 55C32.1055 40.1825 44.1825 28.1055 59 28.1055C73.8064 28.1055 85.8945 40.0915 85.8945 55.0207C85.8935 56.1366 84.9785 57.0374 83.8625 57.0374H80.6384C81.1711 51.3702 79.4781 45.6485 75.7408 41.1398C74.8726 40.0923 73.9077 39.1274 72.859 38.2602C69.5882 35.548 65.5101 33.7778 61.0373 33.3616C60.3669 33.2985 59.6866 33.2671 58.9999 33.2671C58.3132 33.2671 57.6329 33.2986 56.9625 33.3616C52.4898 33.7767 48.4105 35.548 45.1397 38.2592C44.0922 39.1274 43.1273 40.0923 42.2591 41.1398C34.6539 50.3148 35.8332 64.0272 45.1398 71.7408Z" fill="#DC796F"/>
<path d="M81.6958 71.8416H80.8808V66.9516C80.8808 66.6104 80.6683 66.3053 80.3483 66.1872C80.0282 66.0691 79.6686 66.1627 79.4467 66.4218L74.5642 72.1267C74.3574 72.3684 74.31 72.7084 74.4431 72.9975C74.5762 73.2865 74.8653 73.4716 75.1834 73.4716H79.2508V75.1016C79.2508 75.5518 79.6156 75.9166 80.0658 75.9166C80.5159 75.9166 80.8807 75.5518 80.8807 75.1016V73.4716H81.6957C82.1458 73.4716 82.5106 73.1068 82.5106 72.6566C82.5107 72.2064 82.1459 71.8416 81.6958 71.8416ZM79.2508 71.8416H76.9536L79.2508 69.1573V71.8416Z" fill="#E8EBFA"/>
<path d="M73.5459 74.2868H70.3279L72.7037 71.911C73.2692 71.3441 73.5806 70.5917 73.5806 69.7923C73.5806 68.0993 72.1676 66.7155 70.4368 66.8006C69.4986 66.8468 68.6542 67.3165 68.1203 68.0891L67.69 68.7117C67.4341 69.0821 67.5268 69.5896 67.897 69.8456C68.2673 70.1016 68.775 70.0088 69.0309 69.6386L69.4612 69.0159C69.9731 68.2751 71.0469 68.2252 71.6281 68.9112C72.0773 69.4408 72.0632 70.2453 71.5505 70.7591L67.7841 74.5253C67.551 74.7585 67.4814 75.109 67.6075 75.4136C67.7336 75.7182 68.0308 75.9167 68.3605 75.9167H73.546C73.9962 75.9167 74.361 75.5519 74.361 75.1017C74.3609 74.6516 73.9961 74.2868 73.5459 74.2868Z" fill="#E8EBFA"/>
<path d="M62.2599 55.0021C62.2599 56.7966 60.8033 58.2621 58.9999 58.2621C57.1994 58.2621 55.74 56.8027 55.74 55.0021C55.74 53.1991 57.2052 51.7422 58.9999 51.7422C60.8032 51.7422 62.2599 53.208 62.2599 55.0021Z" fill="#DC796F"/>
</g>
<defs>
<filter id="filter0_d_67_687" x="0" y="0.726562" width="116" height="116" filterUnits="userSpaceOnUse" color-interpolation-filters="sRGB">
<feFlood flood-opacity="0" result="BackgroundImageFix"/>
<feColorMatrix in="SourceAlpha" type="matrix" values="0 0 0 0 0 0 0 0 0 0 0 0 0 0 0 0 0 0 127 0" result="hardAlpha"/>
<feOffset dx="-1" dy="4"/>
<feGaussianBlur stdDeviation="4"/>
<feComposite in2="hardAlpha" operator="out"/>
<feColorMatrix type="matrix" values="0 0 0 0 0 0 0 0 0 0 0 0 0 0 0 0 0 0 0.07 0"/>
<feBlend mode="normal" in2="BackgroundImageFix" result="effect1_dropShadow_67_687"/>
<feBlend mode="normal" in="SourceGraphic" in2="effect1_dropShadow_67_687" result="shape"/>
</filter>
<clipPath id="clip0_67_687">
<rect width="54" height="54" fill="white" transform="translate(32 28)"/>
</clipPath>
</defs>
</svg>
