<svg width="62" height="63" viewBox="0 0 62 63" fill="none" xmlns="http://www.w3.org/2000/svg">
<path d="M43.5937 23.4764C43.4021 23.4763 43.2148 23.4195 43.0556 23.313C42.8963 23.2066 42.7722 23.0553 42.6989 22.8783C42.6255 22.7013 42.6064 22.5066 42.6437 22.3187C42.6811 22.1308 42.7733 21.9582 42.9088 21.8227L47.7525 16.979C47.9352 16.8025 48.1799 16.7049 48.4339 16.7071C48.6879 16.7093 48.9309 16.8112 49.1105 16.9908C49.2901 17.1704 49.392 17.4134 49.3942 17.6674C49.3964 17.9214 49.2988 18.1661 49.1223 18.3488L44.2786 23.1925C44.0969 23.3742 43.8506 23.4763 43.5937 23.4764Z" fill="#D6E4E8"/>
<path d="M13.5624 47.6951C13.3708 47.6951 13.1836 47.6382 13.0243 47.5318C12.865 47.4253 12.7409 47.2741 12.6676 47.0971C12.5943 46.9201 12.5751 46.7253 12.6125 46.5374C12.6498 46.3496 12.7421 46.177 12.8775 46.0415L18.69 40.229C18.8727 40.0525 19.1174 39.9549 19.3714 39.9571C19.6254 39.9593 19.8684 40.0612 20.048 40.2408C20.2276 40.4204 20.3295 40.6634 20.3317 40.9174C20.3339 41.1714 20.2363 41.4161 20.0598 41.5988L14.2473 47.4113C14.0657 47.593 13.8193 47.6951 13.5624 47.6951Z" fill="#D6E4E8"/>
<path d="M19.3751 20.5713C19.1181 20.5713 18.8718 20.4692 18.6901 20.2875L11.9089 13.5062C11.7271 13.3245 11.625 13.0779 11.625 12.8209C11.625 12.5638 11.7271 12.3172 11.9089 12.1355C12.0907 11.9537 12.3372 11.8516 12.5943 11.8516C12.8514 11.8516 13.0979 11.9537 13.2797 12.1355L20.0609 18.9167C20.1968 19.0522 20.2893 19.225 20.3268 19.4131C20.3644 19.6013 20.3452 19.7963 20.2717 19.9735C20.1982 20.1508 20.0738 20.3022 19.9142 20.4086C19.7545 20.515 19.5669 20.5717 19.3751 20.5713Z" fill="#D6E4E8"/>
<path d="M31 15.7266C30.7431 15.7266 30.4967 15.6245 30.315 15.4428C30.1333 15.2611 30.0312 15.0147 30.0312 14.7578V10.8828C30.0312 10.6259 30.1333 10.3795 30.315 10.1978C30.4967 10.0161 30.7431 9.91406 31 9.91406C31.2569 9.91406 31.5033 10.0161 31.685 10.1978C31.8667 10.3795 31.9688 10.6259 31.9688 10.8828V14.7578C31.9688 15.0147 31.8667 15.2611 31.685 15.4428C31.5033 15.6245 31.2569 15.7266 31 15.7266Z" fill="#D6E4E8"/>
<path d="M53.2813 38.0073C53.1317 38.0088 52.9838 37.9756 52.8492 37.9104L45.0992 34.0354C44.8693 33.9206 44.6944 33.7191 44.613 33.4753C44.5316 33.2314 44.5504 32.9653 44.6652 32.7353C44.7801 32.5054 44.9816 32.3305 45.2254 32.2491C45.4692 32.1677 45.7353 32.1865 45.9653 32.3013L53.7153 36.1763C53.9082 36.2752 54.0624 36.4358 54.1533 36.6327C54.2441 36.8295 54.2663 37.0511 54.2163 37.262C54.1663 37.4729 54.047 37.661 53.8775 37.7961C53.708 37.9312 53.4981 38.0056 53.2813 38.0073Z" fill="#D6E4E8"/>
<path d="M14.5312 32.1953H10.6562C10.3993 32.1953 10.1529 32.0932 9.97124 31.9116C9.78956 31.7299 9.6875 31.4835 9.6875 31.2266C9.6875 30.9696 9.78956 30.7232 9.97124 30.5416C10.1529 30.3599 10.3993 30.2578 10.6562 30.2578H14.5312C14.7882 30.2578 15.0346 30.3599 15.2163 30.5416C15.3979 30.7232 15.5 30.9696 15.5 31.2266C15.5 31.4835 15.3979 31.7299 15.2163 31.9116C15.0346 32.0932 14.7882 32.1953 14.5312 32.1953Z" fill="#D6E4E8"/>
<path d="M34.875 55.4425C34.6592 55.4423 34.4497 55.37 34.2796 55.2372C34.1096 55.1043 33.9888 54.9185 33.9363 54.7092L31.9988 46.9592C31.9384 46.7107 31.9788 46.4484 32.111 46.2295C32.2433 46.0106 32.4567 45.8529 32.7048 45.7908C32.9528 45.7286 33.2154 45.7671 33.4352 45.8978C33.6551 46.0284 33.8143 46.2407 33.8782 46.4884L35.8157 54.2384C35.8781 54.4876 35.839 54.7514 35.7069 54.9718C35.5748 55.1921 35.3606 55.351 35.1114 55.4135C35.0342 55.4331 34.9547 55.4428 34.875 55.4425Z" fill="#D6E4E8"/>
<path d="M53.2812 20.5703C57.5615 20.5703 61.0312 17.1005 61.0312 12.8203C61.0312 8.54011 57.5615 5.07031 53.2812 5.07031C49.001 5.07031 45.5312 8.54011 45.5312 12.8203C45.5312 17.1005 49.001 20.5703 53.2812 20.5703Z" fill="#D6E4E8"/>
<path d="M8.71875 59.3203C12.999 59.3203 16.4688 55.8505 16.4688 51.5703C16.4688 47.2901 12.999 43.8203 8.71875 43.8203C4.43854 43.8203 0.96875 47.2901 0.96875 51.5703C0.96875 55.8505 4.43854 59.3203 8.71875 59.3203Z" fill="#D6E4E8"/>
<path d="M8.71875 16.6953C12.999 16.6953 16.4688 13.2255 16.4688 8.94531C16.4688 4.66511 12.999 1.19531 8.71875 1.19531C4.43854 1.19531 0.96875 4.66511 0.96875 8.94531C0.96875 13.2255 4.43854 16.6953 8.71875 16.6953Z" fill="#D6E4E8"/>
<path d="M11.625 13.7924C10.2689 13.7935 8.93621 13.4385 7.7604 12.7628C6.58459 12.0871 5.60685 11.1145 4.92503 9.94221C4.24321 8.76994 3.88122 7.43916 3.87529 6.08305C3.86935 4.72693 4.21968 3.39303 4.89121 2.21484C3.85075 2.8025 2.96027 3.62279 2.28935 4.61161C1.61844 5.60044 1.18527 6.73101 1.02369 7.91499C0.862114 9.09896 0.976508 10.3043 1.35793 11.4367C1.73936 12.5691 2.37748 13.598 3.22244 14.443C4.06739 15.2879 5.09629 15.9261 6.22873 16.3075C7.36117 16.6889 8.56647 16.8033 9.75044 16.6417C10.9344 16.4802 12.065 16.047 13.0538 15.3761C14.0426 14.7052 14.8629 13.8147 15.4506 12.7742C14.2857 13.4408 12.9671 13.7917 11.625 13.7924Z" fill="#BACED3"/>
<path d="M60.3918 57.8788L45.0856 42.5725C44.7697 42.2561 44.5731 41.8401 44.5289 41.3951C44.4848 40.9502 44.5959 40.5037 44.8434 40.1313C47.0452 36.7104 47.9043 32.5961 47.2556 28.58C46.6069 24.5638 44.4961 20.9293 41.3292 18.3755C38.1624 15.8218 34.1631 14.5291 30.1007 14.7462C26.0383 14.9632 22.1995 16.6747 19.3228 19.5514C16.4462 22.428 14.7347 26.2668 14.5176 30.3292C14.3006 34.3917 15.5932 38.3909 18.147 41.5578C20.7008 44.7246 24.3353 46.8354 28.3514 47.4841C32.3676 48.1328 36.4818 47.2737 39.9028 45.0719C40.2752 44.8244 40.7217 44.7133 41.1666 44.7574C41.6116 44.8016 42.0276 44.9982 42.344 45.3141L57.7278 60.6882C57.9261 60.888 58.1656 61.0421 58.4297 61.1396C58.6939 61.2371 58.9761 61.2757 59.2567 61.2526C59.5372 61.2295 59.8094 61.1454 60.054 61.006C60.2986 60.8667 60.5098 60.6755 60.6728 60.446C60.9331 60.0526 61.0475 59.5805 60.9962 59.1116C60.9449 58.6427 60.7311 58.2066 60.3918 57.8788ZM31 43.8222C28.5092 43.8222 26.0743 43.0836 24.0033 41.6998C21.9322 40.316 20.3181 38.3491 19.3649 36.0479C18.4117 33.7467 18.1623 31.2145 18.6482 28.7716C19.1341 26.3286 20.3336 24.0846 22.0948 22.3234C23.8561 20.5621 26.1001 19.3627 28.5431 18.8767C30.986 18.3908 33.5182 18.6402 35.8194 19.5934C38.1206 20.5466 40.0875 22.1607 41.4713 24.2318C42.8551 26.3028 43.5937 28.7377 43.5937 31.2285C43.5937 34.5686 42.2669 37.7718 39.9051 40.1336C37.5433 42.4954 34.34 43.8222 31 43.8222Z" fill="#8E969B"/>
<path d="M45.0856 42.5693C44.925 42.4094 44.7938 42.2225 44.6981 42.0171C44.3968 41.8787 44.0652 41.8194 43.7347 41.8448C43.4041 41.8702 43.0855 41.9795 42.809 42.1624C39.5932 44.2414 35.7512 45.1291 31.9493 44.6715C29.9595 44.4348 28.031 43.8307 26.2618 42.8899C24.7133 42.2589 23.3055 41.3266 22.1201 40.1473C20.9348 38.9679 19.9954 37.5648 19.3565 36.0196C18.4247 34.2851 17.8201 32.3939 17.5731 30.4405C17.2926 28.2849 17.4426 26.0951 18.0143 23.9979C18.586 21.9007 19.5681 19.9377 20.9036 18.2227C17.5516 20.8213 15.332 24.6135 14.7077 28.8086C14.0834 33.0038 15.1025 37.278 17.5527 40.7401C20.0028 44.2021 23.6948 46.5848 27.8587 47.3913C32.0227 48.1977 36.3373 47.3657 39.9028 45.0687C40.2751 44.8211 40.7216 44.71 41.1666 44.7542C41.6115 44.7983 42.0275 44.995 42.344 45.3108L57.7278 60.6849C57.926 60.8848 58.1656 61.0388 58.4297 61.1363C58.6938 61.2338 58.9761 61.2724 59.2566 61.2493C59.5372 61.2263 59.8093 61.1421 60.054 61.0028C60.2986 60.8634 60.5098 60.6723 60.6728 60.4427C60.9331 60.0493 61.0475 59.5773 60.9962 59.1084C60.9449 58.6395 60.731 58.2033 60.3918 57.8755L45.0856 42.5693Z" fill="#778084"/>
<path d="M31 28.3203C32.6051 28.3203 33.9062 27.0191 33.9062 25.4141C33.9062 23.809 32.6051 22.5078 31 22.5078C29.3949 22.5078 28.0938 23.809 28.0938 25.4141C28.0938 27.0191 29.3949 28.3203 31 28.3203Z" fill="#FCAB68"/>
<path d="M30.0312 25.4141C30.0323 24.8148 30.2192 24.2306 30.5663 23.742C30.9133 23.2534 31.4033 22.8845 31.9688 22.6861C31.6585 22.5713 31.3308 22.5109 31 22.5078C30.2292 22.5078 29.49 22.814 28.945 23.359C28.3999 23.9041 28.0938 24.6433 28.0938 25.4141C28.0938 26.1848 28.3999 26.9241 28.945 27.4691C29.49 28.0141 30.2292 28.3203 31 28.3203C31.3308 28.3172 31.6585 28.2569 31.9688 28.1421C31.4033 27.9436 30.9133 27.5747 30.5663 27.0861C30.2192 26.5975 30.0323 26.0133 30.0312 25.4141Z" fill="#EA8E49"/>
<path d="M53.2812 11.8516C54.3513 11.8516 55.2188 10.9841 55.2188 9.91406C55.2188 8.84401 54.3513 7.97656 53.2812 7.97656C52.2112 7.97656 51.3438 8.84401 51.3438 9.91406C51.3438 10.9841 52.2112 11.8516 53.2812 11.8516Z" fill="#FCAB68"/>
<path d="M31 28.3203C29.2015 28.3203 27.4767 29.0348 26.2049 30.3065C24.9332 31.5782 24.2188 33.3031 24.2188 35.1016V36.8317C24.2203 37.2017 24.3264 37.5636 24.5249 37.8758C24.7234 38.1879 25.0062 38.4376 25.3406 38.5958C27.0952 39.4829 29.0339 39.945 31 39.945C32.9661 39.945 34.9048 39.4829 36.6594 38.5958C36.9938 38.4376 37.2766 38.1879 37.4751 37.8758C37.6736 37.5636 37.7797 37.2017 37.7812 36.8317V35.1016C37.7812 33.3031 37.0668 31.5782 35.7951 30.3065C34.5233 29.0348 32.7985 28.3203 31 28.3203Z" fill="#FCAB68"/>
<path d="M29.6128 36.2643C28.8763 35.988 28.2426 35.4919 27.7976 34.8433C27.3526 34.1947 27.1178 33.4249 27.125 32.6383V32.1956C27.125 31.1116 27.3862 30.0436 27.8864 29.082C26.7816 29.6523 25.855 30.5156 25.2081 31.5774C24.5612 32.6392 24.2189 33.8585 24.2188 35.1018V36.832C24.2203 37.202 24.3264 37.5639 24.5249 37.8761C24.7234 38.1882 25.0062 38.4378 25.3406 38.5961C27.0952 39.4832 29.0339 39.9453 31 39.9453C32.9661 39.9453 34.9048 39.4832 36.6594 38.5961C36.9938 38.4378 37.2766 38.1882 37.4751 37.8761C37.6736 37.5639 37.7797 37.202 37.7812 36.832V36.3903C35.1244 37.2851 32.2408 37.2406 29.6128 36.2643Z" fill="#EA8E49"/>
<path d="M56.1991 17.1148C54.3228 17.8471 52.2397 17.8471 50.3634 17.1148C50.082 17.0076 49.8398 16.8175 49.6689 16.5696C49.4979 16.3217 49.4064 16.0277 49.4063 15.7266C49.4062 14.6988 49.8145 13.7132 50.5412 12.9865C51.2679 12.2598 52.2535 11.8516 53.2812 11.8516C54.309 11.8516 55.2946 12.2598 56.0213 12.9865C56.748 13.7132 57.1562 14.6988 57.1562 15.7266C57.1561 16.0277 57.0646 16.3217 56.8936 16.5696C56.7227 16.8175 56.4805 17.0076 56.1991 17.1148Z" fill="#FCAB68"/>
<path d="M8.71875 50.6016C9.7888 50.6016 10.6562 49.7341 10.6562 48.6641C10.6562 47.594 9.7888 46.7266 8.71875 46.7266C7.6487 46.7266 6.78125 47.594 6.78125 48.6641C6.78125 49.7341 7.6487 50.6016 8.71875 50.6016Z" fill="#FCAB68"/>
<path d="M11.6366 55.8648C9.7603 56.5971 7.6772 56.5971 5.80087 55.8648C5.51948 55.7576 5.27728 55.5675 5.10636 55.3196C4.93544 55.0717 4.84386 54.7777 4.84375 54.4766C4.84375 53.4488 5.25201 52.4632 5.97871 51.7365C6.70541 51.0098 7.69104 50.6016 8.71875 50.6016C9.74646 50.6016 10.7321 51.0098 11.4588 51.7365C12.1855 52.4632 12.5938 53.4488 12.5938 54.4766C12.5936 54.7777 12.5021 55.0717 12.3311 55.3196C12.1602 55.5675 11.918 55.7576 11.6366 55.8648Z" fill="#FCAB68"/>
<path d="M8.71875 7.97656C9.7888 7.97656 10.6562 7.10911 10.6562 6.03906C10.6562 4.96901 9.7888 4.10156 8.71875 4.10156C7.6487 4.10156 6.78125 4.96901 6.78125 6.03906C6.78125 7.10911 7.6487 7.97656 8.71875 7.97656Z" fill="#FCAB68"/>
<path d="M11.6366 13.2398C9.7603 13.9721 7.6772 13.9721 5.80087 13.2398C5.51948 13.1326 5.27728 12.9425 5.10636 12.6946C4.93544 12.4467 4.84386 12.1527 4.84375 11.8516C4.84375 10.8238 5.25201 9.83823 5.97871 9.11152C6.70541 8.38482 7.69104 7.97656 8.71875 7.97656C9.74646 7.97656 10.7321 8.38482 11.4588 9.11152C12.1855 9.83823 12.5938 10.8238 12.5938 11.8516C12.5936 12.1527 12.5021 12.4467 12.3311 12.6946C12.1602 12.9425 11.918 13.1326 11.6366 13.2398Z" fill="#FCAB68"/>
<path d="M10.1845 13.6479C9.16719 13.4555 8.19876 13.0612 7.33638 12.4884C6.474 11.9155 5.73515 11.1757 5.16344 10.3125C4.95293 10.7974 4.84413 11.3203 4.84375 11.8489C4.84386 12.1501 4.93544 12.444 5.10636 12.6919C5.27728 12.9398 5.51948 13.13 5.80087 13.2372C7.19499 13.781 8.71359 13.9233 10.1845 13.6479Z" fill="#EA8E49"/>
<path d="M56.1875 17.6674C54.8314 17.6685 53.4987 17.3135 52.3229 16.6378C51.1471 15.9621 50.1693 14.9895 49.4875 13.8172C48.8057 12.6449 48.4437 11.3142 48.4378 9.95805C48.4318 8.60193 48.7822 7.26803 49.4537 6.08984C48.4132 6.6775 47.5228 7.49779 46.8519 8.48661C46.1809 9.47544 45.7478 10.606 45.5862 11.79C45.4246 12.974 45.539 14.1793 45.9204 15.3117C46.3019 16.4441 46.94 17.473 47.7849 18.318C48.6299 19.1629 49.6588 19.8011 50.7912 20.1825C51.9237 20.5639 53.129 20.6783 54.3129 20.5167C55.4969 20.3552 56.6275 19.922 57.6163 19.2511C58.6051 18.5802 59.4254 17.6897 60.0131 16.6492C58.8482 17.3158 57.5296 17.6667 56.1875 17.6674Z" fill="#BACED3"/>
<path d="M54.747 17.5229C53.7297 17.3305 52.7613 16.9362 51.8989 16.3634C51.0365 15.7905 50.2976 15.0507 49.7259 14.1875C49.5154 14.6724 49.4066 15.1953 49.4062 15.7239C49.4064 16.0251 49.4979 16.319 49.6689 16.5669C49.8398 16.8148 50.082 17.005 50.3634 17.1122C51.7575 17.656 53.2761 17.7983 54.747 17.5229Z" fill="#EA8E49"/>
<path d="M11.625 56.4174C10.2689 56.4185 8.93621 56.0635 7.7604 55.3878C6.58459 54.7121 5.60685 53.7395 4.92503 52.5672C4.24321 51.3949 3.88122 50.0642 3.87529 48.708C3.86935 47.3519 4.21968 46.018 4.89121 44.8398C3.85075 45.4275 2.96027 46.2478 2.28935 47.2366C1.61844 48.2254 1.18527 49.356 1.02369 50.54C0.862114 51.724 0.976508 52.9293 1.35793 54.0617C1.73936 55.1941 2.37748 56.223 3.22244 57.068C4.06739 57.9129 5.09629 58.5511 6.22873 58.9325C7.36117 59.3139 8.56647 59.4283 9.75044 59.2667C10.9344 59.1052 12.065 58.672 13.0538 58.0011C14.0426 57.3302 14.8629 56.4397 15.4506 55.3992C14.2857 56.0658 12.9671 56.4167 11.625 56.4174Z" fill="#BACED3"/>
<path d="M10.1845 56.2729C9.16719 56.0805 8.19876 55.6862 7.33638 55.1134C6.474 54.5405 5.73515 53.8007 5.16344 52.9375C4.95293 53.4224 4.84413 53.9453 4.84375 54.4739C4.84386 54.7751 4.93544 55.069 5.10636 55.3169C5.27728 55.5648 5.51948 55.755 5.80087 55.8622C7.19499 56.406 8.71359 56.5483 10.1845 56.2729Z" fill="#EA8E49"/>
<path d="M31 10.8828C32.6051 10.8828 33.9062 9.58164 33.9062 7.97656C33.9062 6.37148 32.6051 5.07031 31 5.07031C29.3949 5.07031 28.0938 6.37148 28.0938 7.97656C28.0938 9.58164 29.3949 10.8828 31 10.8828Z" fill="#FCAB68"/>
<path d="M54.25 39.9453C55.8551 39.9453 57.1562 38.6441 57.1562 37.0391C57.1562 35.434 55.8551 34.1328 54.25 34.1328C52.6449 34.1328 51.3438 35.434 51.3438 37.0391C51.3438 38.6441 52.6449 39.9453 54.25 39.9453Z" fill="#FCAB68"/>
<path d="M34.875 57.3828C36.4801 57.3828 37.7812 56.0816 37.7812 54.4766C37.7812 52.8715 36.4801 51.5703 34.875 51.5703C33.2699 51.5703 31.9688 52.8715 31.9688 54.4766C31.9688 56.0816 33.2699 57.3828 34.875 57.3828Z" fill="#FCAB68"/>
<path d="M7.75 34.1328C9.35508 34.1328 10.6562 32.8316 10.6562 31.2266C10.6562 29.6215 9.35508 28.3203 7.75 28.3203C6.14492 28.3203 4.84375 29.6215 4.84375 31.2266C4.84375 32.8316 6.14492 34.1328 7.75 34.1328Z" fill="#FCAB68"/>
<path d="M38.75 19.9005C38.5673 19.9005 38.3883 19.8487 38.2337 19.7513C37.6558 19.3866 37.0512 19.066 36.425 18.7922C36.3078 18.7418 36.2016 18.6687 36.1127 18.5771C36.0238 18.4855 35.9539 18.3772 35.907 18.2585C35.86 18.1398 35.837 18.013 35.8393 17.8854C35.8415 17.7578 35.8689 17.6318 35.92 17.5148C35.971 17.3978 36.0447 17.2921 36.1368 17.2037C36.2288 17.1153 36.3375 17.0459 36.4564 16.9996C36.5754 16.9533 36.7023 16.9309 36.8299 16.9338C36.9575 16.9368 37.0833 16.9649 37.2 17.0165C37.9156 17.3296 38.6066 17.6958 39.2673 18.1122C39.4451 18.2242 39.5816 18.391 39.6563 18.5874C39.731 18.7838 39.7398 18.9991 39.6814 19.2009C39.623 19.4028 39.5006 19.5802 39.3326 19.7063C39.1646 19.8325 38.9601 19.9007 38.75 19.9005Z" fill="white"/>
</svg>
