<svg width="116" height="117" viewBox="0 0 116 117" fill="none" xmlns="http://www.w3.org/2000/svg">
<g filter="url(#filter0_d_67_754)">
<circle cx="59" cy="54.9492" r="50" fill="#3FBD5A" fill-opacity="0.06" shape-rendering="crispEdges"/>
</g>
<path d="M73.7359 65.7037C70.5238 66.475 67.1706 66.4376 63.9765 65.5949C60.7824 64.7522 57.8471 63.1306 55.4336 60.8751C53.02 58.6197 51.2035 55.8009 50.1467 52.6711C49.0899 49.5413 48.8257 46.1983 49.378 42.9414C49.2952 43.0239 49.2065 43.1001 49.1124 43.1694C48.4544 43.6699 47.6319 43.8556 45.9869 44.2269L44.4946 44.5653C38.7136 45.8742 35.8231 46.5275 35.1345 48.7389C34.4483 50.9479 36.4176 53.2533 40.3586 57.8617L41.3785 59.0531C42.4971 60.3621 43.0588 61.0177 43.3102 61.8261C43.5617 62.6369 43.4771 63.5111 43.3079 65.2572L43.1528 66.8481C42.5582 72.9981 42.2598 76.0719 44.0599 77.4373C45.86 78.8027 48.5672 77.5595 53.9769 75.0661L55.3799 74.4222C56.9168 73.7125 57.6853 73.36 58.5007 73.36C59.3162 73.36 60.0846 73.7125 61.6239 74.4222L63.0222 75.0661C68.4342 77.5572 71.1415 78.8027 72.9392 77.4397C74.7417 76.0719 74.4432 72.9981 73.8487 66.8481L73.7359 65.7037Z" fill="#3FBD5A"/>
<path opacity="0.5" d="M51.8104 39.0089L51.0396 40.3907C50.1936 41.9088 49.7706 42.6678 49.1126 43.1684C49.2066 43.0979 49.2951 43.0219 49.3781 42.9404C48.8257 46.1976 49.0899 49.5409 50.1468 52.6709C51.2037 55.8009 53.0205 58.6199 55.4343 60.8754C57.8482 63.1309 60.7838 64.7525 63.9782 65.595C67.1726 66.4374 70.5261 66.4744 73.7384 65.7027L73.6914 65.2562C73.5245 63.5101 73.4399 62.6359 73.6914 61.8252C73.9428 61.0168 74.5021 60.3611 75.6231 59.0522L76.643 57.8607C80.584 53.2547 82.5533 50.9493 81.8647 48.7379C81.1785 46.5266 78.288 45.8709 72.507 44.5643L71.0124 44.2259C69.3697 43.8546 68.5472 43.6689 67.8868 43.1684C67.2288 42.6678 66.8058 41.9088 65.9598 40.3907L65.1914 39.0089C62.2139 33.6696 60.7263 31 58.5009 31C56.2754 31 54.7878 33.6696 51.8104 39.0089Z" fill="#3FBD5A" fill-opacity="0.69"/>
<defs>
<filter id="filter0_d_67_754" x="0" y="0.949219" width="116" height="116" filterUnits="userSpaceOnUse" color-interpolation-filters="sRGB">
<feFlood flood-opacity="0" result="BackgroundImageFix"/>
<feColorMatrix in="SourceAlpha" type="matrix" values="0 0 0 0 0 0 0 0 0 0 0 0 0 0 0 0 0 0 127 0" result="hardAlpha"/>
<feOffset dx="-1" dy="4"/>
<feGaussianBlur stdDeviation="4"/>
<feComposite in2="hardAlpha" operator="out"/>
<feColorMatrix type="matrix" values="0 0 0 0 0 0 0 0 0 0 0 0 0 0 0 0 0 0 0.07 0"/>
<feBlend mode="normal" in2="BackgroundImageFix" result="effect1_dropShadow_67_754"/>
<feBlend mode="normal" in="SourceGraphic" in2="effect1_dropShadow_67_754" result="shape"/>
</filter>
</defs>
</svg>
