<svg width="116" height="117" viewBox="0 0 116 117" fill="none" xmlns="http://www.w3.org/2000/svg">
<g filter="url(#filter0_d_67_710)">
<circle cx="58.9999" cy="54.7266" r="50" fill="#3FBD5A" fill-opacity="0.06" shape-rendering="crispEdges"/>
</g>
<path d="M80.6493 40.16C77.1589 40.16 74.3405 37.3416 74.3405 33.8512C74.3405 33.2875 74.4272 32.7021 74.579 32.1602H58.9913C58.3843 32.1602 57.8856 32.6588 57.8856 33.2658V68.3436C57.8856 68.9506 58.3843 69.4492 58.9913 69.4492H82.9474C83.5544 69.4492 84.053 68.9506 84.053 68.3436V39.1627C83.0341 39.8131 81.8634 40.16 80.6493 40.16Z" fill="#EDF4FC"/>
<path d="M57.8856 34.3486C57.7989 34.3486 57.7121 34.3486 57.6471 34.3486C56.8016 34.3486 55.9778 34.5871 55.2407 35.0207C54.3951 33.5898 52.8559 32.7227 51.2082 32.7227H48.8018C44.119 32.7443 40.325 36.5383 40.3033 41.2211V45.015C41.0621 44.408 42.016 44.1479 42.9699 44.2996V43.9094C42.9699 43.6709 43.1651 43.4758 43.4035 43.4758H43.4903C44.9862 43.7793 49.4088 44.3213 52.4223 40.549C52.5741 40.3539 52.8559 40.3322 53.051 40.484C53.0727 40.484 53.0727 40.5057 53.0944 40.5057C53.7014 41.1127 55.1973 42.24 57.8856 42.5652V34.3486Z" fill="#818182"/>
<path d="M57.8855 42.5647C55.1756 42.2395 53.7014 41.1121 53.0943 40.5051C52.9209 40.3316 52.639 40.3316 52.4656 40.5051C52.4439 40.5268 52.4439 40.5268 52.4439 40.5484C49.4304 44.3207 45.0078 43.8004 43.5119 43.4752C43.2734 43.4318 43.0349 43.5836 42.9916 43.8221V43.9088V50.5211C43.0133 55.0522 46.6771 58.7377 51.2082 58.7377C53.8531 58.7377 56.3463 57.4369 57.8855 55.2906V42.5647Z" fill="#F9D0B4"/>
<path d="M76.6602 73.0279H76.1833V72.5293C76.1833 72.1607 75.8797 71.8789 75.5329 71.8789C75.1643 71.8789 74.8825 72.1824 74.8825 72.5293V73.0063H74.4055C74.037 73.0063 73.7551 73.3098 73.7551 73.6566C73.7551 74.0252 74.0586 74.307 74.4055 74.307H74.8825V74.784C74.8825 75.1525 75.186 75.4344 75.5329 75.4344C75.9014 75.4344 76.1833 75.1309 76.1833 74.784V74.307H76.6602C77.0288 74.307 77.3106 74.0035 77.3106 73.6566C77.3323 73.3098 77.0288 73.0279 76.6602 73.0279Z" fill="#70D6F9"/>
<path d="M44.184 29.2977C44.5671 29.2977 44.8777 28.9871 44.8777 28.6039C44.8777 28.2208 44.5671 27.9102 44.184 27.9102C43.8008 27.9102 43.4902 28.2208 43.4902 28.6039C43.4902 28.9871 43.8008 29.2977 44.184 29.2977Z" fill="#70D6F9"/>
<path d="M84.2914 74.1766C84.6746 74.1766 84.9852 73.866 84.9852 73.4828C84.9852 73.0997 84.6746 72.7891 84.2914 72.7891C83.9083 72.7891 83.5977 73.0997 83.5977 73.4828C83.5977 73.866 83.9083 74.1766 84.2914 74.1766Z" fill="#F5C84C"/>
<path d="M73.2348 78.9461C73.6179 78.9461 73.9285 78.6355 73.9285 78.2523C73.9285 77.8692 73.6179 77.5586 73.2348 77.5586C72.8516 77.5586 72.541 77.8692 72.541 78.2523C72.541 78.6355 72.8516 78.9461 73.2348 78.9461Z" fill="#87D147"/>
<path d="M41.6041 32.8328C40.7369 32.6811 40.0648 32.009 39.8914 31.1635C39.8914 31.1418 39.8697 31.1201 39.848 31.1418C39.8264 31.1418 39.8264 31.1635 39.8264 31.1635C39.6529 32.0307 38.9809 32.6811 38.1137 32.8328C38.092 32.8328 38.0703 32.8545 38.0703 32.8762C38.0703 32.8978 38.092 32.8978 38.1137 32.9195C38.9809 33.0713 39.6529 33.7434 39.8264 34.5889C39.8264 34.6105 39.848 34.6322 39.8697 34.6105C39.8914 34.6105 39.8914 34.5889 39.8914 34.5889C40.0648 33.7217 40.7369 33.0713 41.6041 32.9195C41.6258 32.9195 41.6475 32.8978 41.6475 32.8762C41.6475 32.8545 41.6258 32.8328 41.6041 32.8328Z" fill="#F5C84C"/>
<path d="M42.1461 56.7879C41.5607 56.6795 41.0838 56.2242 40.9537 55.6389C40.9537 55.6172 40.932 55.6172 40.932 55.6172C40.9104 55.6172 40.9104 55.6172 40.9104 55.6389C40.7803 56.2242 40.325 56.6795 39.718 56.7879C39.6963 56.7879 39.6963 56.8096 39.6963 56.8096C39.6963 56.8313 39.6963 56.8313 39.718 56.8313C40.3033 56.9397 40.7803 57.3949 40.9104 57.9803C40.9104 58.002 40.932 58.002 40.932 58.002C40.9537 58.002 40.9537 58.002 40.9537 57.9803C41.0838 57.3949 41.5391 56.9397 42.1461 56.8313C42.1678 56.8313 42.1461 56.8096 42.1461 56.7879C42.1461 56.8096 42.1461 56.8096 42.1461 56.7879Z" fill="#FC657E"/>
<path d="M42.9916 50.5245V44.3024C41.1272 43.9989 39.3494 45.278 39.0459 47.1424C38.7424 49.0069 40.0215 50.7846 41.886 51.0881C42.2545 51.1532 42.6448 51.1532 43.0133 51.0881C42.9916 50.893 42.9916 50.7196 42.9916 50.5245Z" fill="#F9D0B4"/>
<path d="M69.0071 69.4283H58.9911C58.3841 69.4283 57.8855 68.9297 57.8855 68.3227V61.7754L56.7364 61.2117C55.8259 60.7564 55.2622 59.8459 55.2622 58.827V57.6562C54.0265 58.3717 52.639 58.7402 51.2081 58.7402C49.7772 58.7402 48.3897 58.3717 47.154 57.6562V58.827C47.154 59.8459 46.5903 60.7564 45.6798 61.2117L43.7503 62.1656C43.2733 62.4041 42.7747 62.5775 42.2544 62.7076L36.1841 64.2252C34.7099 64.5938 33.6476 65.8945 33.5608 67.4121L32.5419 80.3549C32.4768 81.157 33.0839 81.8725 33.886 81.9375H33.9944H68.4218C69.2239 81.9375 69.896 81.2871 69.896 80.4633C69.896 80.4199 69.896 80.3766 69.896 80.3549L69.0071 69.4283Z" fill="#70D6F9"/>
<path d="M57.8856 61.7949L56.7366 61.2313C55.826 60.776 55.2624 59.8654 55.2624 58.8465V57.6758C54.0266 58.3912 52.6391 58.7598 51.2083 58.7598C49.7774 58.7598 48.3899 58.3912 47.1542 57.6758V58.8465C47.1542 59.8654 46.5905 60.776 45.6799 61.2313L44.2708 61.925C45.7667 64.3098 48.3899 65.7623 51.2083 65.7623C53.8532 65.7623 56.3463 64.4615 57.8856 62.3152V61.7949Z" fill="#F9D0B4"/>
<path d="M51.2082 54.8145C49.7123 54.8145 48.3248 54.0557 47.5444 52.7982C47.3926 52.5381 47.4577 52.2129 47.7178 52.0395C47.978 51.866 48.3032 51.9527 48.4766 52.2129C49.4305 53.7305 51.425 54.1857 52.9426 53.2318C53.3545 52.9717 53.7014 52.6248 53.9616 52.2129C54.1133 51.9527 54.4602 51.8877 54.7204 52.0395C54.9805 52.1912 55.0455 52.5381 54.8938 52.7982C54.0916 54.034 52.7041 54.8145 51.2082 54.8145Z" fill="black"/>
<path d="M47.6744 49.0254C48.2132 49.0254 48.65 48.5886 48.65 48.0498C48.65 47.511 48.2132 47.0742 47.6744 47.0742C47.1356 47.0742 46.6989 47.511 46.6989 48.0498C46.6989 48.5886 47.1356 49.0254 47.6744 49.0254Z" fill="black"/>
<path d="M54.9154 49.0254C55.4542 49.0254 55.891 48.5886 55.891 48.0498C55.891 47.511 55.4542 47.0742 54.9154 47.0742C54.3766 47.0742 53.9398 47.511 53.9398 48.0498C53.9398 48.5886 54.3766 49.0254 54.9154 49.0254Z" fill="black"/>
<path d="M42.4496 51.6713C40.26 51.6713 38.4606 49.9152 38.4606 47.7039C38.4606 45.4926 40.2166 43.7148 42.428 43.7148C42.6448 43.7148 42.8616 43.7365 43.0783 43.7582C43.3385 43.8016 43.5336 44.0184 43.5336 44.3002V50.5223C43.5336 50.674 43.5336 50.8475 43.5553 51.0426C43.577 51.3244 43.3819 51.5629 43.1 51.6063C42.8832 51.6496 42.6664 51.6713 42.4496 51.6713ZM42.4496 44.7988C40.8453 44.7988 39.5662 46.0996 39.5662 47.6822C39.5662 49.2865 40.867 50.5656 42.4496 50.5656C42.4496 50.5439 42.4496 50.5223 42.4496 50.5006V44.7988Z" fill="black"/>
<path d="M68.4219 82.4977H34.0162C32.9105 82.4977 32 81.6089 32 80.4815C32 80.4382 32 80.3731 32 80.3298L33.0189 67.387C33.1057 65.6309 34.3414 64.1567 36.0541 63.7231L42.1244 62.2055C42.6014 62.0755 43.0566 61.9237 43.5119 61.7069L45.4414 60.753C46.1568 60.4061 46.6338 59.669 46.6121 58.8669V57.6962C46.6121 57.3926 46.8506 57.1542 47.1541 57.1542C47.2408 57.1542 47.3492 57.1758 47.4143 57.2192C49.7557 58.5633 52.6391 58.5633 54.9805 57.2192C55.2406 57.0674 55.5658 57.1542 55.7176 57.4143C55.761 57.501 55.7826 57.5878 55.7826 57.6745V58.8452C55.7826 59.6473 56.2379 60.3844 56.9533 60.7313L58.1024 61.295C58.2975 61.3817 58.4059 61.5768 58.4059 61.7719V68.3192C58.4059 68.6227 58.6444 68.8829 58.9695 68.8829H68.9856C69.2674 68.8829 69.5059 69.0997 69.5276 69.3815L70.3948 80.3298C70.4815 81.4354 69.6576 82.411 68.552 82.4977C68.5086 82.4977 68.4653 82.4977 68.4219 82.4977ZM47.6961 58.5633V58.8452C47.6961 60.0592 47.0024 61.1866 45.9184 61.7069L43.9889 62.6608C43.4902 62.921 42.9482 63.1161 42.3846 63.2462L36.3143 64.7637C35.0568 65.0673 34.168 66.1512 34.1029 67.452L33.084 80.4165C33.0406 80.9151 33.4309 81.3704 33.9295 81.4138H33.9945H68.4219C68.9422 81.4138 69.3541 81.0018 69.3541 80.4815C69.3541 80.4598 69.3541 80.4382 69.3541 80.4165L68.5303 69.9669H59.0129C58.1024 69.9669 57.3652 69.2298 57.3652 68.3192V62.1188L56.5197 61.7069C55.4141 61.1649 54.742 60.0592 54.742 58.8452V58.5633C52.4873 59.5389 49.9291 59.5389 47.6961 58.5633Z" fill="black"/>
<path d="M51.2083 66.303C48.1948 66.303 45.3981 64.7637 43.8155 62.2272C43.6637 61.9671 43.7288 61.6419 43.9889 61.4684C44.0106 61.4684 44.0323 61.4467 44.0323 61.4467L45.4415 60.753C46.1569 60.4061 46.6339 59.669 46.6122 58.8669V57.6962C46.6122 57.3926 46.8506 57.1542 47.1542 57.1542C47.2409 57.1542 47.3493 57.1758 47.4143 57.2192C49.7557 58.5633 52.6391 58.5633 54.9805 57.2192C55.2407 57.0674 55.5659 57.1542 55.7176 57.4143C55.761 57.501 55.7827 57.5878 55.7827 57.6745V58.8452C55.7827 59.6473 56.238 60.3844 56.9534 60.7313L58.1024 61.295C58.2975 61.3817 58.4059 61.5768 58.4059 61.7719V62.2706C58.4059 62.379 58.3626 62.4874 58.2975 62.5958C56.6932 64.9155 54.0483 66.2813 51.2083 66.303ZM45.0729 62.1188C47.5878 65.5009 52.4007 66.2163 55.7827 63.6798C56.368 63.2462 56.91 62.7042 57.3436 62.1188L56.4981 61.7069C55.3925 61.1649 54.7204 60.0592 54.7204 58.8452V58.5633C52.4874 59.5606 49.9292 59.5606 47.6962 58.5633V58.8452C47.6962 60.0592 47.0024 61.1866 45.9184 61.7069L45.0729 62.1188Z" fill="black"/>
<path d="M80.6492 40.1606C84.1335 40.1606 86.958 37.336 86.958 33.8518C86.958 30.3675 84.1335 27.543 80.6492 27.543C77.165 27.543 74.3405 30.3675 74.3405 33.8518C74.3405 37.336 77.165 40.1606 80.6492 40.1606Z" fill="#87D147"/>
<path d="M79.2618 36.4313L77.3324 34.5018C76.8988 34.0899 76.8988 33.3961 77.3107 32.9625C77.7226 32.5289 78.4163 32.5289 78.8499 32.9408L78.8716 32.9625L80.0423 34.1332L82.4921 31.6834C82.904 31.2498 83.5978 31.2498 84.0314 31.6617C84.465 32.0737 84.465 32.7674 84.0531 33.201L84.0314 33.2227L80.8228 36.4313C80.3675 36.8649 79.6954 36.8649 79.2618 36.4313Z" fill="#EDF4FC"/>
<path d="M80.6492 40.7016C76.877 40.7016 73.7985 37.6447 73.7985 33.8508C73.7985 30.0568 76.877 27 80.6492 27C84.4215 27 87.5 30.0568 87.5 33.8508C87.5 37.6231 84.4215 40.7016 80.6492 40.7016ZM80.6492 28.084C77.4623 28.084 74.8824 30.6639 74.8824 33.8508C74.8824 37.0377 77.4623 39.6176 80.6492 39.6176C83.8362 39.6176 86.416 37.0377 86.416 33.8508C86.416 30.6639 83.8362 28.084 80.6492 28.084Z" fill="black"/>
<path d="M80.0423 37.2978C79.6087 37.2978 79.1968 37.1243 78.8933 36.8208L76.9638 34.8913C76.3134 34.2626 76.2917 33.2436 76.9205 32.5933C77.5492 31.9429 78.5681 31.9212 79.2185 32.5499C79.2402 32.5716 79.2619 32.5933 79.2619 32.5933L80.0423 33.3737L82.1019 31.3142C82.7306 30.6638 83.7496 30.6421 84.3999 31.2708C85.0503 31.8995 85.072 32.9185 84.4433 33.5688C84.4216 33.5905 84.4216 33.5905 84.3999 33.6122L81.1914 36.8208C80.8878 37.1243 80.4759 37.2978 80.0423 37.2978ZM79.6521 36.062C79.7605 36.1704 79.8906 36.2138 80.0423 36.2138C80.1941 36.2138 80.3242 36.1487 80.4326 36.062L83.6412 32.8534C83.858 32.6366 83.858 32.2897 83.6412 32.0946C83.4244 31.8995 83.0992 31.8995 82.8824 32.0946L80.4326 34.5444C80.2158 34.7612 79.8689 34.7612 79.6738 34.5444L78.5031 33.3737C78.2863 33.1786 77.9611 33.1786 77.7443 33.3737C77.5275 33.5905 77.5275 33.9374 77.7443 34.1325L79.6521 36.062Z" fill="black"/>
<path d="M82.9474 69.9686H58.9913C58.0807 69.9686 57.3436 69.2315 57.3436 68.3209V33.2648C57.3436 32.3543 58.0807 31.6172 58.9913 31.6172H74.579C74.8825 31.6172 75.121 31.8557 75.121 32.1592C75.121 32.2025 75.121 32.2676 75.0993 32.3109C74.2538 35.3678 76.0315 38.5547 79.11 39.4002C80.6927 39.8338 82.3837 39.5953 83.7712 38.7064C84.0313 38.5547 84.3565 38.6197 84.53 38.8799C84.595 38.9666 84.6167 39.075 84.6167 39.1617V68.3426C84.595 69.2315 83.8579 69.9686 82.9474 69.9686ZM58.9913 32.7012C58.6878 32.7012 58.4276 32.9396 58.4276 33.2648V68.3426C58.4276 68.6461 58.6661 68.9063 58.9913 68.9063H82.9474C83.2509 68.9063 83.511 68.6678 83.511 68.3426V40.0723C80.0856 41.6549 76.0098 40.159 74.4272 36.7119C73.8419 35.4545 73.6684 34.067 73.9069 32.7012H58.9913Z" fill="black"/>
<path d="M40.3033 45.5561C39.9998 45.5561 39.7614 45.3176 39.7614 45.0141V41.2201C39.7614 36.2338 43.8155 32.2014 48.8018 32.1797H51.2082C52.8776 32.1797 54.4168 32.9818 55.4141 34.3043C56.1946 33.9357 57.0618 33.7623 57.9073 33.8057C58.1891 33.8273 58.4276 34.0658 58.4276 34.3477V42.5426C58.4276 42.8461 58.1891 43.0846 57.8856 43.0846C57.8639 43.0846 57.8422 43.0846 57.8205 43.0846C55.0889 42.7594 53.5063 41.6537 52.7909 40.96C49.6473 44.8406 45.0512 44.342 43.5336 44.0385V44.2986C43.5336 44.6022 43.2951 44.8406 42.9916 44.8406C42.9699 44.8406 42.9266 44.8406 42.9049 44.8406C42.7532 44.819 42.6014 44.7973 42.4496 44.7973C41.7992 44.7973 41.1489 45.0141 40.6502 45.426C40.5635 45.5127 40.4334 45.5561 40.3033 45.5561ZM48.8018 33.2637C44.4225 33.2637 40.867 36.8191 40.8453 41.2201V44.0602C41.344 43.8434 41.886 43.7133 42.4496 43.735C42.558 43.193 43.0783 42.8678 43.5987 42.9762C45.2246 43.2797 49.2571 43.6916 52.0104 40.2229C52.3573 39.7893 52.9643 39.7242 53.3979 40.0711C53.4196 40.0928 53.4412 40.1145 53.4846 40.1361C54.0266 40.6781 55.219 41.567 57.3653 41.9356V34.9113C56.7149 34.9547 56.0862 35.1498 55.5442 35.4967C55.284 35.6484 54.9588 35.5617 54.8071 35.3016C54.0483 34.0441 52.7041 33.2854 51.2516 33.2637H48.8018Z" fill="black"/>
<path d="M51.2082 59.3039C46.3736 59.3039 42.4496 55.3799 42.4496 50.5453V43.9113C42.4496 43.6078 42.5797 43.3259 42.8181 43.1525C43.0566 42.9574 43.3601 42.8924 43.642 42.9574C45.2246 43.2826 49.257 43.6945 52.0103 40.2257C52.3572 39.7922 52.9642 39.7271 53.3978 40.074C53.4195 40.0957 53.4412 40.1174 53.4846 40.139C54.0699 40.7244 55.4357 41.7433 57.9723 42.0468C58.2541 42.0902 58.4492 42.307 58.4492 42.5888V55.3365C58.4492 55.4449 58.4058 55.5533 58.3408 55.6617C56.6931 57.9164 54.0265 59.2822 51.2082 59.3039ZM43.5336 44.0414V50.5236C43.5336 54.7728 46.959 58.1982 51.2082 58.1982C53.6363 58.1982 55.9127 57.0492 57.3652 55.1197V43.0224C54.9154 42.6322 53.4846 41.6133 52.8125 40.9629C49.6472 44.8435 45.0511 44.3449 43.5336 44.0414Z" fill="black"/>
<path d="M74.8174 42.8926H67.2295C66.926 42.8926 66.6875 42.6541 66.6875 42.3506C66.6875 42.0471 66.926 41.8086 67.2295 41.8086H74.8174C75.1209 41.8086 75.3594 42.0471 75.3594 42.3506C75.3594 42.6541 75.1209 42.8926 74.8174 42.8926Z" fill="black"/>
<path d="M79.2401 47.2285H65.1917C64.8881 47.2285 64.6497 46.99 64.6497 46.6865C64.6497 46.383 64.8881 46.1445 65.1917 46.1445H79.2401C79.5436 46.1445 79.7821 46.383 79.7821 46.6865C79.7821 46.99 79.5436 47.2285 79.2401 47.2285Z" fill="black"/>
<path d="M79.2401 49.9824H65.1917C64.8881 49.9824 64.6497 49.7439 64.6497 49.4404C64.6497 49.1369 64.8881 48.8984 65.1917 48.8984H79.2401C79.5436 48.8984 79.7821 49.1369 79.7821 49.4404C79.7821 49.7439 79.5436 49.9824 79.2401 49.9824Z" fill="black"/>
<path d="M79.2401 52.7324H65.1917C64.8881 52.7324 64.6497 52.4939 64.6497 52.1904C64.6497 51.8869 64.8881 51.6484 65.1917 51.6484H79.2401C79.5436 51.6484 79.7821 51.8869 79.7821 52.1904C79.7821 52.4939 79.5436 52.7324 79.2401 52.7324Z" fill="black"/>
<path d="M79.2401 55.4863H65.1917C64.8881 55.4863 64.6497 55.2479 64.6497 54.9443C64.6497 54.6408 64.8881 54.4023 65.1917 54.4023H79.2401C79.5436 54.4023 79.7821 54.6408 79.7821 54.9443C79.7821 55.2262 79.5436 55.4863 79.2401 55.4863Z" fill="black"/>
<path d="M79.2401 58.2207H65.1917C64.8881 58.2207 64.6497 57.9822 64.6497 57.6787C64.6497 57.3752 64.8881 57.1367 65.1917 57.1367H79.2401C79.5436 57.1367 79.7821 57.3752 79.7821 57.6787C79.7821 57.9822 79.5436 58.2207 79.2401 58.2207Z" fill="black"/>
<path d="M79.2401 60.9707H65.1917C64.8881 60.9707 64.6497 60.7322 64.6497 60.4287C64.6497 60.1252 64.8881 59.8867 65.1917 59.8867H79.2401C79.5436 59.8867 79.7821 60.1252 79.7821 60.4287C79.7821 60.7322 79.5436 60.9707 79.2401 60.9707Z" fill="black"/>
<path d="M62.7635 47.2285H62.3516C62.048 47.2285 61.8096 46.99 61.8096 46.6865C61.8096 46.383 62.048 46.1445 62.3516 46.1445H62.7635C63.067 46.1445 63.3055 46.383 63.3055 46.6865C63.3055 46.99 63.067 47.2285 62.7635 47.2285Z" fill="black"/>
<path d="M62.7635 49.9824H62.3516C62.048 49.9824 61.8096 49.7439 61.8096 49.4404C61.8096 49.1369 62.048 48.8984 62.3516 48.8984H62.7635C63.067 48.8984 63.3055 49.1369 63.3055 49.4404C63.3055 49.7439 63.067 49.9824 62.7635 49.9824Z" fill="black"/>
<path d="M62.7635 52.7324H62.3516C62.048 52.7324 61.8096 52.4939 61.8096 52.1904C61.8096 51.8869 62.048 51.6484 62.3516 51.6484H62.7635C63.067 51.6484 63.3055 51.8869 63.3055 52.1904C63.3055 52.4939 63.067 52.7324 62.7635 52.7324Z" fill="black"/>
<path d="M62.7635 55.4863H62.3516C62.048 55.4863 61.8096 55.2479 61.8096 54.9443C61.8096 54.6408 62.048 54.4023 62.3516 54.4023H62.7635C63.067 54.4023 63.3055 54.6408 63.3055 54.9443C63.3055 55.2262 63.067 55.4863 62.7635 55.4863Z" fill="black"/>
<path d="M62.7635 58.2207H62.3516C62.048 58.2207 61.8096 57.9822 61.8096 57.6787C61.8096 57.3752 62.048 57.1367 62.3516 57.1367H62.7635C63.067 57.1367 63.3055 57.3752 63.3055 57.6787C63.3055 57.9822 63.067 58.2207 62.7635 58.2207Z" fill="black"/>
<path d="M62.7635 60.9707H62.3516C62.048 60.9707 61.8096 60.7322 61.8096 60.4287C61.8096 60.1252 62.048 59.8867 62.3516 59.8867H62.7635C63.067 59.8867 63.3055 60.1252 63.3055 60.4287C63.3055 60.7322 63.067 60.9707 62.7635 60.9707Z" fill="black"/>
<path d="M39.1543 81.8486C38.8508 81.8486 38.6123 81.6102 38.6123 81.3066V72.96C38.6123 72.6564 38.8508 72.418 39.1543 72.418C39.4578 72.418 39.6963 72.6564 39.6963 72.96V81.3066C39.6963 81.6102 39.4578 81.8486 39.1543 81.8486Z" fill="black"/>
<path d="M63.4355 81.8486C63.132 81.8486 62.8936 81.6102 62.8936 81.3066V72.96C62.8936 72.6564 63.132 72.418 63.4355 72.418C63.7391 72.418 63.9775 72.6564 63.9775 72.96V81.3066C63.9775 81.6102 63.7391 81.8486 63.4355 81.8486Z" fill="black"/>
<defs>
<filter id="filter0_d_67_710" x="-0.00012207" y="0.726562" width="116" height="116" filterUnits="userSpaceOnUse" color-interpolation-filters="sRGB">
<feFlood flood-opacity="0" result="BackgroundImageFix"/>
<feColorMatrix in="SourceAlpha" type="matrix" values="0 0 0 0 0 0 0 0 0 0 0 0 0 0 0 0 0 0 127 0" result="hardAlpha"/>
<feOffset dx="-1" dy="4"/>
<feGaussianBlur stdDeviation="4"/>
<feComposite in2="hardAlpha" operator="out"/>
<feColorMatrix type="matrix" values="0 0 0 0 0 0 0 0 0 0 0 0 0 0 0 0 0 0 0.07 0"/>
<feBlend mode="normal" in2="BackgroundImageFix" result="effect1_dropShadow_67_710"/>
<feBlend mode="normal" in="SourceGraphic" in2="effect1_dropShadow_67_710" result="shape"/>
</filter>
</defs>
</svg>
