<svg width="68" height="69" viewBox="0 0 68 69" fill="none" xmlns="http://www.w3.org/2000/svg">
<g clip-path="url(#clip0_69_977)">
<path d="M44.9096 2.71875H22.4549C19.699 2.71875 14.97 4.95281 14.97 7.70866V57.2339C14.97 59.9897 19.699 62.2238 22.4549 62.2238H44.9097C49.0435 62.2238 52.3946 58.8726 52.3946 54.7389V10.2036C52.3945 6.06978 49.0434 2.71875 44.9096 2.71875Z" fill="#DB9E82"/>
<path d="M17.4648 57.2339V7.70866C17.4648 4.95281 19.6988 2.71875 22.4547 2.71875H7.48493C3.35115 2.71875 0 6.06978 0 10.2036V54.7389C0 58.8726 3.35115 62.2238 7.48493 62.2238H22.4548C19.6988 62.2238 17.4648 59.9897 17.4648 57.2339Z" fill="#C8866A"/>
<path d="M44.9094 7.70703H17.4647L13.7223 31.2221L17.4647 57.2322H44.9094C46.2851 57.2322 47.4044 56.113 47.4044 54.7372V10.2019C47.4044 8.8263 46.2851 7.70703 44.9094 7.70703Z" fill="#F2F6FC"/>
<path d="M4.98987 10.2019V54.7372C4.98987 56.113 6.10914 57.2322 7.48489 57.2322H17.4647V7.70703H7.48489C6.10914 7.70703 4.98987 8.8263 4.98987 10.2019Z" fill="#DCE1EB"/>
<path d="M34.0784 51.9063H12.475C11.9734 51.9063 11.5668 51.4996 11.5668 50.998C11.5668 50.4965 11.9734 50.0898 12.475 50.0898H34.0784C34.5801 50.0898 34.9866 50.4965 34.9866 50.998C34.9866 51.4996 34.5799 51.9063 34.0784 51.9063Z" fill="#B5BABC"/>
<path d="M34.0781 46.918H16.2172C15.7156 46.918 15.309 46.5113 15.309 46.0098C15.309 45.5082 15.7156 45.1016 16.2172 45.1016H34.0781C34.5798 45.1016 34.9863 45.5082 34.9863 46.0098C34.9863 46.5113 34.5797 46.918 34.0781 46.918Z" fill="#B5BABC"/>
<path d="M35.6562 19.7657C35.2178 19.4113 34.8039 19.0272 34.4336 18.602C33.1161 17.0893 31.3887 15.9429 29.4245 15.3361C28.477 15.0434 27.4643 15.2345 26.6311 15.7722C26.4996 15.857 26.3526 15.9045 26.1973 15.9045C26.1374 15.9045 26.0792 15.8954 26.0222 15.8819C18.8382 18.9625 18.8383 30.8833 27.6253 30.8833H38.6781C38.7087 30.6186 38.7958 30.3602 38.9368 30.1271C39.5167 29.168 39.8347 28.127 39.8347 27.0387C39.8347 24.5878 38.2338 21.8495 35.6562 19.7657Z" fill="#E37858"/>
<path d="M26.0222 15.8773C25.9314 15.8558 25.8442 15.8197 25.7634 15.7676C24.9282 15.2286 23.9133 15.0395 22.9638 15.3335C21.0254 15.9337 19.3181 17.0593 18.0079 18.544C17.5956 19.0113 17.1552 19.4537 16.6726 19.8483C14.1372 21.9209 12.5597 24.6172 12.5597 27.0343C12.5597 28.1538 12.8963 29.2233 13.5083 30.205C13.6379 30.413 13.7201 30.6423 13.7576 30.8789H27.6251C21.9812 27.6852 20.7034 19.6808 26.0222 15.8773Z" fill="#CB5935"/>
<path d="M14.6779 33.6009C16.2051 33.6009 17.4432 32.3628 17.4432 30.8356C17.4432 29.3084 16.2051 28.0703 14.6779 28.0703C13.1507 28.0703 11.9126 29.3084 11.9126 30.8356C11.9126 32.3628 13.1507 33.6009 14.6779 33.6009Z" fill="#F9BBAF"/>
<path d="M36.6825 29.5958C36.6825 29.4415 36.6791 29.2879 36.6725 29.1351C36.6485 28.5868 36.4136 28.0643 36.0107 27.6915C35.3518 27.0818 34.8403 26.1987 34.6156 25.1576C34.6139 25.1499 34.6122 25.1421 34.6106 25.1344C34.4622 24.4312 33.8946 23.8926 33.1816 23.8024C32.3577 23.6981 31.4864 23.873 30.7221 24.3731C29.5106 25.1659 27.9284 25.6458 26.1973 25.6458C25.0368 25.6458 23.9441 25.4292 22.9843 25.0483C21.4794 26.4871 20.7019 29.2139 20.7019 30.8434C20.7019 35.5448 23.8347 38.7376 29.3072 39.6066C33.5785 38.2811 36.6825 34.3031 36.6825 29.5958Z" fill="#FFDDCF"/>
<path d="M21.9495 29.5949C21.9495 27.9656 22.3211 26.423 22.9843 25.0474C22.5125 24.86 22.0722 24.6337 21.673 24.3725C20.8484 23.833 19.9021 23.6727 19.0248 23.8322C18.3519 23.9545 17.8312 24.4792 17.6879 25.148C17.6873 25.1509 17.6867 25.1538 17.6861 25.1567C17.468 26.1668 16.98 27.028 16.3492 27.6351C15.9734 27.997 15.7564 28.4946 15.7278 29.0156C15.7188 29.1781 15.7137 29.3415 15.7123 29.5059C15.6636 35.3617 20.4823 40.1562 26.3377 40.0794C27.3726 40.0658 28.3706 39.9003 29.3125 39.6075C25.0466 38.2786 21.9495 34.2985 21.9495 29.5949Z" fill="#FFCBBE"/>
<path d="M60.9038 59.8845C59.4423 61.346 57.0727 61.346 55.6112 59.8845L50.3185 54.5919C48.857 53.1304 48.857 50.7607 50.3185 49.2992C51.78 47.8378 54.1497 47.8378 55.6112 49.2992L60.9038 54.5919C62.3653 56.0535 62.3653 58.4231 60.9038 59.8845Z" fill="#313159"/>
<path d="M42.343 25.0977C40.6233 25.0977 36.7294 26.4968 36.7294 28.2164V54.4136C36.7294 56.1333 40.6234 57.5324 42.343 57.5324H42.3432C51.2997 57.5324 58.5605 50.2716 58.5605 41.315C58.5603 32.3584 51.2996 25.0977 42.343 25.0977Z" fill="#515181"/>
<path d="M42.343 25.1016C33.3864 25.1016 26.1257 32.3623 26.1257 41.3189C26.1257 50.2755 33.3864 57.5363 42.343 57.5363C40.6233 57.5363 39.2243 56.1373 39.2243 54.4175C39.2243 52.6979 40.6233 51.2988 42.3431 51.2988V31.339C40.6235 31.339 39.2243 29.94 39.2243 28.2202C39.2243 26.5007 40.6233 25.1016 42.343 25.1016Z" fill="#41416B"/>
<path d="M52.3229 41.3232C52.3229 37.1434 49.7389 33.5579 46.0855 32.0742C42.3431 32.0742 37.353 37.1436 37.353 41.3232C37.353 45.5023 42.3429 50.5715 46.0837 50.5715C49.7379 49.0884 52.3229 45.5035 52.3229 41.3232Z" fill="#A8E1F6"/>
<path d="M39.8478 41.3236C39.8478 37.1438 42.4319 33.5582 46.0853 32.0746C44.9287 31.6048 43.6659 31.3438 42.3429 31.3438C36.8399 31.3438 32.363 35.8207 32.363 41.3236C32.363 46.8264 36.84 51.3034 42.3429 51.3034C43.6661 51.3034 44.9287 51.0423 46.0853 50.5726C42.4317 49.089 39.8478 45.5034 39.8478 41.3236Z" fill="#78CBED"/>
<path d="M32.2926 0.226562H19.8178C17.0619 0.226562 14.8279 2.46062 14.8279 5.21648C14.8279 7.97233 17.0619 10.2064 19.8178 10.2064H32.2926C35.0485 10.2064 37.2826 7.97233 37.2826 5.21648C37.2826 2.46062 35.0485 0.226562 32.2926 0.226562Z" fill="#FFF04A"/>
<path d="M22.3127 5.21648C22.3127 2.46062 24.5468 0.226562 27.3026 0.226562H19.8177C17.0618 0.226562 14.8278 2.46062 14.8278 5.21648C14.8278 7.97233 17.0618 10.2064 19.8177 10.2064H27.3026C24.5468 10.2064 22.3127 7.97233 22.3127 5.21648Z" fill="#FFDA45"/>
<path d="M42.3455 37.5195C41.8439 37.5195 41.4366 37.1129 41.4366 36.6113C41.4366 36.1098 41.8428 35.7031 42.3442 35.7031H42.3455C42.8471 35.7031 43.2537 36.1098 43.2537 36.6113C43.2537 37.1129 42.8471 37.5195 42.3455 37.5195Z" fill="white"/>
<path d="M42.343 46.9545C41.8413 46.9545 41.4348 46.5479 41.4348 46.0463V40.3574C41.4348 39.8559 41.8413 39.4492 42.343 39.4492C42.8447 39.4492 43.2512 39.8559 43.2512 40.3574V46.0463C43.2512 46.5479 42.8446 46.9545 42.343 46.9545Z" fill="white"/>
</g>
<defs>
<clipPath id="clip0_69_977">
<rect width="68" height="68" fill="white" transform="translate(0 0.226562)"/>
</clipPath>
</defs>
</svg>
