<svg width="38" height="38" viewBox="0 0 38 38" fill="none" xmlns="http://www.w3.org/2000/svg">
<path d="M19.001 38.1758C29.4944 38.1758 38.001 29.6692 38.001 19.1758C38.001 8.68237 29.4944 0.175781 19.001 0.175781C8.50757 0.175781 0.000976562 8.68237 0.000976562 19.1758C0.000976562 29.6692 8.50757 38.1758 19.001 38.1758Z" fill="#3A559F"/>
<path d="M25.021 16.926L24.6389 20.2359C24.623 20.3869 24.5522 20.5269 24.44 20.6292C24.3277 20.7315 24.1818 20.789 24.03 20.7908H20.5754L20.5582 30.6038C20.5593 30.7201 20.5147 30.8322 20.4339 30.9158C20.3531 30.9995 20.2426 31.048 20.1264 31.0508H16.6265C16.5683 31.0508 16.5107 31.0391 16.4571 31.0163C16.4036 30.9936 16.3552 30.9602 16.3148 30.9183C16.2745 30.8763 16.2431 30.8267 16.2224 30.7723C16.2018 30.7178 16.1923 30.6598 16.1946 30.6017V20.7908H13.6037C13.5224 20.7899 13.4419 20.7731 13.3671 20.7411C13.2922 20.7092 13.2244 20.6629 13.1675 20.6047C13.1105 20.5466 13.0656 20.4778 13.0352 20.4023C13.0049 20.3268 12.9897 20.246 12.9906 20.1646L12.9776 16.8548C12.9765 16.7731 12.9914 16.692 13.0216 16.6161C13.0518 16.5403 13.0967 16.4711 13.1536 16.4125C13.2105 16.354 13.2785 16.3072 13.3535 16.2749C13.4285 16.2426 13.5091 16.2254 13.5908 16.2243H16.1946V13.0288C16.1946 9.31953 18.3969 7.30078 21.6269 7.30078H24.274C24.3558 7.30163 24.4367 7.31862 24.5119 7.35079C24.5872 7.38296 24.6554 7.42967 24.7125 7.48824C24.7697 7.54681 24.8148 7.6161 24.8451 7.69212C24.8754 7.76814 24.8904 7.8494 24.8893 7.93124V10.7165C24.8904 10.7983 24.8754 10.8796 24.8451 10.9556C24.8148 11.0316 24.7697 11.1009 24.7125 11.1595C24.6554 11.218 24.5872 11.2647 24.5119 11.2969C24.4367 11.3291 24.3558 11.3461 24.274 11.3469H22.6503C20.895 11.3469 20.5539 12.2106 20.5539 13.4585V16.2243H24.4121C24.4999 16.2254 24.5864 16.2451 24.666 16.282C24.7456 16.3189 24.8165 16.3723 24.874 16.4386C24.9315 16.5048 24.9744 16.5825 24.9997 16.6665C25.025 16.7506 25.0323 16.839 25.021 16.926Z" fill="white"/>
</svg>
