<svg width="38" height="38" viewBox="0 0 38 38" fill="none" xmlns="http://www.w3.org/2000/svg">
<path d="M38.0005 19.116C38.0005 8.68365 29.5434 0.226562 19.1111 0.226562C8.67876 0.226562 0.22168 8.68365 0.22168 19.116C0.22168 29.5483 8.67876 38.0054 19.1111 38.0054C29.5434 38.0054 38.0005 29.5483 38.0005 19.116Z" fill="url(#paint0_linear_398_3285)"/>
<path opacity="0.1" d="M33.3274 6.68699C30.5735 11.7424 26.6788 16.9569 21.8123 21.8234C16.9457 26.6899 11.7313 30.5771 6.68332 33.331C6.36684 33.056 6.05947 32.7693 5.76122 32.4711C3.95841 30.7284 2.52058 28.6443 1.53157 26.3403C0.542554 24.0362 0.0221464 21.5583 0.000691594 19.0511C-0.0207632 16.5438 0.457164 14.0573 1.40661 11.7367C2.35605 9.41606 3.758 7.30766 5.53072 5.53445C7.30344 3.76123 9.41145 2.35869 11.7318 1.4086C14.0522 0.458514 16.5385 -0.0201077 19.0458 0.000647205C21.5531 0.0214021 24.0311 0.541118 26.3354 1.52949C28.6398 2.51786 30.7243 3.95511 32.4674 5.75743C32.7656 6.05568 33.0523 6.36553 33.3274 6.68699Z" fill="white"/>
<path d="M23.5846 9.17188H14.6369C13.1867 9.17188 11.7959 9.74796 10.7705 10.7734C9.74504 11.7989 9.16895 13.1897 9.16895 14.6399V23.5875C9.16895 25.0377 9.74504 26.4285 10.7705 27.4539C11.7959 28.4794 13.1867 29.0555 14.6369 29.0555H23.5846C25.0348 29.0555 26.4256 28.4794 27.451 27.4539C28.4765 26.4285 29.0526 25.0377 29.0526 23.5875V14.6399C29.0526 13.1897 28.4765 11.7989 27.451 10.7734C26.4256 9.74796 25.0348 9.17188 23.5846 9.17188ZM27.3127 22.8021C27.3127 23.9992 26.8372 25.1472 25.9907 25.9937C25.1443 26.8401 23.9962 27.3157 22.7992 27.3157H15.4223C14.2253 27.3157 13.0772 26.8401 12.2308 25.9937C11.3843 25.1472 10.9088 23.9992 10.9088 22.8021V15.4253C10.9088 14.2282 11.3843 13.0801 12.2308 12.2337C13.0772 11.3872 14.2253 10.9117 15.4223 10.9117H22.7992C23.9962 10.9117 25.1443 11.3872 25.9907 12.2337C26.8372 13.0801 27.3127 14.2282 27.3127 15.4253V22.8021Z" fill="white"/>
<path d="M22.7367 15.525L22.6895 15.4778L22.6497 15.438C21.7099 14.5015 20.4371 13.9759 19.1104 13.9766C18.4404 13.9811 17.7779 14.1176 17.1607 14.3783C16.5435 14.639 15.9837 15.0187 15.5133 15.4958C15.0429 15.9729 14.6712 16.538 14.4192 17.1588C14.1673 17.7796 14.0401 18.444 14.0451 19.114C14.044 20.4737 14.58 21.7787 15.5363 22.7452C16.0048 23.2194 16.5629 23.5954 17.1783 23.8515C17.7937 24.1075 18.4539 24.2384 19.1203 24.2365C20.1201 24.2155 21.0921 23.9041 21.9179 23.3402C22.7437 22.7763 23.3875 21.9842 23.7709 21.0607C24.1543 20.1371 24.2607 19.122 24.077 18.139C23.8934 17.1561 23.4277 16.2478 22.7367 15.525ZM19.1104 22.4843C18.4419 22.4936 17.7857 22.304 17.2253 21.9394C16.6649 21.5748 16.2256 21.0517 15.9632 20.4368C15.7009 19.8218 15.6274 19.1428 15.752 18.4859C15.8767 17.8291 16.1939 17.2241 16.6633 16.7481C17.1327 16.272 17.7331 15.9463 18.3881 15.8123C19.0431 15.6784 19.7232 15.7424 20.3418 15.996C20.9604 16.2496 21.4896 16.6815 21.862 17.2368C22.2345 17.792 22.4334 18.4454 22.4335 19.114C22.4367 19.5535 22.3534 19.9894 22.1881 20.3967C22.0228 20.804 21.7789 21.1747 21.4703 21.4877C21.1617 21.8007 20.7945 22.0498 20.3895 22.2208C19.9846 22.3918 19.5499 22.4813 19.1104 22.4843Z" fill="white"/>
<path d="M25.6796 13.7413C25.6809 13.9008 25.6507 14.059 25.5908 14.2068C25.5309 14.3546 25.4425 14.4892 25.3305 14.6028C25.2185 14.7163 25.0853 14.8067 24.9383 14.8687C24.7914 14.9308 24.6336 14.9632 24.4741 14.9641C24.316 14.9641 24.1594 14.9326 24.0135 14.8716C23.8676 14.8106 23.7352 14.7213 23.6241 14.6087C23.4557 14.4379 23.3412 14.2214 23.2947 13.9861C23.2482 13.7507 23.2718 13.5069 23.3626 13.2849C23.4534 13.0629 23.6073 12.8724 23.8054 12.737C24.0034 12.6017 24.2368 12.5274 24.4766 12.5234C24.7573 12.5234 25.0291 12.6219 25.2446 12.8018L25.2695 12.8267C25.3096 12.8593 25.3462 12.8959 25.3788 12.936L25.4062 12.9658C25.5841 13.185 25.6807 13.459 25.6796 13.7413Z" fill="white"/>
<defs>
<linearGradient id="paint0_linear_398_3285" x1="5.75429" y1="5.75918" x2="32.4679" y2="32.4728" gradientUnits="userSpaceOnUse">
<stop stop-color="#FAE100"/>
<stop offset="0.15" stop-color="#FCB720"/>
<stop offset="0.3" stop-color="#FF7950"/>
<stop offset="0.5" stop-color="#FF1C74"/>
<stop offset="1" stop-color="#6C1CD1"/>
</linearGradient>
</defs>
</svg>
