<svg width="464" height="240" viewBox="0 0 464 240" fill="none" xmlns="http://www.w3.org/2000/svg">
<path d="M285.913 203.09C285.883 201.91 285.833 200.71 285.763 199.5C285.143 188.11 283.533 178.02 280.853 169.2C278.173 160.39 274.423 152.83 269.493 146.64C267.213 143.77 264.683 141.22 261.933 139.03C259.193 136.84 256.223 135 253.053 133.53C246.713 130.59 239.603 129.16 231.923 129.16C230.753 129.16 229.563 129.2 228.363 129.26C219.893 129.72 212.263 131.72 205.663 135.38C199.063 139.02 193.573 144.32 189.353 151C185.693 156.77 183.013 163.48 181.253 171.04C179.493 178.6 178.633 187.02 178.633 196.32C178.633 198.53 178.683 200.78 178.783 203.09C178.813 203.78 178.843 204.48 178.883 205.18L188.903 205.19C188.893 205.04 188.883 204.91 188.873 204.77C188.843 204.2 188.813 203.64 188.793 203.09C188.683 200.77 188.633 198.51 188.633 196.32C188.633 187.64 189.443 179.96 190.993 173.31C192.543 166.65 194.833 161.03 197.793 156.35C201.243 150.94 205.423 146.95 210.503 144.12C215.593 141.31 221.653 139.64 228.903 139.25C229.933 139.19 230.933 139.16 231.923 139.16C238.393 139.17 243.963 140.34 248.843 142.6C253.723 144.87 257.953 148.22 261.673 152.88C263.673 155.38 265.473 158.22 267.083 161.42C268.693 164.62 270.093 168.18 271.283 172.11C273.673 179.96 275.193 189.28 275.773 200.04C275.833 201.07 275.873 202.09 275.903 203.09C275.933 203.79 275.953 204.49 275.973 205.18L285.973 205.19C285.963 204.49 285.943 203.79 285.913 203.09Z" fill="#14E4EA"/>
<path d="M236.477 222.57L236.587 222.68V223.5L236.477 223.61H217.298L217.188 223.5V222.68L217.298 222.57H236.477Z" fill="#E5FAF1"/>
<path d="M247.173 238.78H253.042C253.042 238.78 253.022 238.83 253.012 238.86C252.872 239.19 252.733 239.51 252.583 239.82H247.173L247.062 239.71V238.89L247.173 238.78Z" fill="#E5FAF1"/>
<path d="M257.007 205.18L207.897 205.19C207.867 204.71 207.847 204.22 207.817 203.74C207.807 203.52 207.797 203.31 207.787 203.09C206.917 186.3 208.197 173.96 211.637 166.04C215.107 158.03 221.117 153.79 229.657 153.32C238.207 152.86 244.637 156.39 248.947 163.92C253.257 171.45 255.887 183.83 256.827 201.07C256.867 201.75 256.897 202.43 256.927 203.09C256.957 203.8 256.987 204.49 257.007 205.18Z" fill="#14E4EA"/>
<path d="M307.403 203.09H151.203V205.18H307.403V203.09Z" fill="#14E4EA"/>
<path d="M412.154 203.62H389.794C389.684 203.62 389.594 203.7 389.594 203.79V205.01C389.594 205.1 389.684 205.18 389.794 205.18H412.154C412.264 205.18 412.354 205.1 412.354 205.01V203.79C412.354 203.69 412.264 203.62 412.154 203.62Z" fill="#14E4EA"/>
<path d="M65.3003 203.62H46.2403C46.1464 203.62 46.0703 203.696 46.0703 203.79V205.01C46.0703 205.104 46.1464 205.18 46.2403 205.18H65.3003C65.3942 205.18 65.4703 205.104 65.4703 205.01V203.79C65.4703 203.696 65.3942 203.62 65.3003 203.62Z" fill="#14E4EA"/>
<path d="M395.493 236.04H376.323L376.203 236.15V236.96L376.323 237.08H395.493L395.613 236.96V236.15L395.493 236.04Z" fill="#C4CEFE"/>
<path d="M74.6434 69.81C78.2834 69.81 81.4434 67.16 81.9434 63.55C82.0334 62.9 82.0734 62.24 82.0734 61.57C82.0734 53.53 75.5634 47.01 67.5434 47.01C67.2134 47.01 66.8834 47.03 66.5634 47.05C65.9034 39.12 59.2734 32.89 51.1834 32.89C42.6534 32.89 35.7434 39.81 35.7434 48.36C35.7434 48.74 35.7634 49.11 35.7934 49.49C33.3734 48.14 30.5534 47.41 27.5534 47.55C19.7934 47.91 13.4234 54.12 12.8734 61.88V62.06C12.6134 66.28 16.0134 69.82 20.2334 69.82H74.6534L74.6434 69.81Z" fill="#14E4EA"/>
<path d="M454.561 105.51C466.051 105.51 466.691 88.19 455.211 87.63C454.901 87.61 454.581 87.61 454.261 87.61C452.211 87.61 450.241 87.94 448.391 88.53C446.851 79.15 438.731 72 428.931 72C419.131 72 410.651 79.48 409.381 89.16C407.001 88.02 404.341 87.38 401.531 87.38C399.961 87.38 398.431 87.58 396.981 87.95C386.931 90.54 389.041 105.52 399.421 105.52H454.561V105.51Z" fill="#14E4EA"/>
<path d="M354.291 33.51C365.781 33.51 366.411 16.19 354.941 15.63C354.631 15.61 354.311 15.61 353.991 15.61C351.941 15.61 349.971 15.94 348.121 16.53C346.581 7.15 338.461 0 328.671 0C318.881 0 310.401 7.47 309.131 17.15C306.751 16.01 304.091 15.37 301.281 15.37C299.711 15.37 298.191 15.57 296.731 15.94C286.681 18.53 288.791 33.5 299.171 33.5H354.291V33.51Z" fill="#14E4EA"/>
<path d="M349.372 65.33C355.402 71.7 357.052 71.75 363.412 65.71C357.042 71.75 357.002 73.4 363.032 79.77C357.002 73.4 355.352 73.35 348.992 79.39C355.352 73.35 355.402 71.7 349.372 65.33Z" fill="#E5FAF1"/>
<path d="M129.036 15.96C135.066 22.33 136.716 22.38 143.076 16.34C136.706 22.38 136.666 24.03 142.696 30.4C136.666 24.03 135.016 23.98 128.656 30.02C135.026 23.98 135.066 22.33 129.036 15.96Z" fill="#E5FAF1"/>
<path d="M69.3566 107.03C75.3866 113.41 77.0366 113.45 83.3966 107.41C77.0366 113.45 76.9866 115.1 83.0166 121.47C76.9866 115.09 75.3366 115.05 68.9766 121.09C75.3466 115.05 75.3866 113.4 69.3566 107.03Z" fill="#E5FAF1"/>
<path d="M0.38 90.86C6.41 97.23 8.06 97.28 14.42 91.24C8.05 97.28 8.01 98.93 14.04 105.3C8.01 98.93 6.36 98.88 0 104.92C6.37 98.88 6.41 97.23 0.38 90.86Z" fill="#E5FAF1"/>
<path d="M419.7 138.48C425.73 144.86 427.38 144.9 433.74 138.86C427.37 144.9 427.33 146.55 433.36 152.92C427.33 146.54 425.68 146.5 419.32 152.54C425.68 146.5 425.73 144.85 419.7 138.48Z" fill="#E5FAF1"/>
<path d="M202.492 118L202.912 119.44L257.962 103.25C259.462 102.81 260.432 101.44 260.432 99.95C260.432 99.63 260.382 99.3 260.292 98.97L237.822 22.35C237.382 20.85 236.012 19.87 234.522 19.87C234.202 19.87 233.872 19.92 233.542 20.01L195.852 31.09C195.002 31.34 194.272 31.91 193.832 32.69L181.372 54.48C181.072 55.01 180.922 55.6 180.922 56.19C180.922 56.51 180.972 56.84 181.062 57.16L198.632 117.09C199.072 118.59 200.442 119.57 201.932 119.57C202.252 119.57 202.582 119.52 202.912 119.43L202.482 117.99V119.49C202.622 119.49 202.772 119.47 202.902 119.43L202.482 117.99V116.49C202.342 116.49 202.192 116.51 202.052 116.55L201.922 116.57C201.732 116.57 201.552 116.45 201.502 116.25L183.932 56.32L183.912 56.19L183.972 55.96L196.432 34.16C196.482 34.06 196.582 33.99 196.692 33.95L234.382 22.87L234.502 22.85C234.692 22.85 234.872 22.97 234.922 23.17L257.392 99.79L257.412 99.92C257.412 100.11 257.282 100.29 257.092 100.35L202.042 116.54L202.462 117.98L202.492 118Z" fill="#14E4EA"/>
<path d="M196.022 33.73L200.612 49.4C200.932 50.5 200.312 51.66 199.212 51.99L182.852 56.88L196.022 33.73Z" fill="white"/>
<path d="M194.584 34.15L199.174 49.82L199.194 49.99C199.194 50.24 199.024 50.48 198.774 50.55L182.414 55.44C181.624 55.68 181.174 56.51 181.404 57.31C181.644 58.1 182.474 58.55 183.274 58.32L199.634 53.43C201.184 52.96 202.184 51.54 202.184 49.99C202.184 49.65 202.134 49.31 202.034 48.98L197.444 33.31C197.214 32.52 196.374 32.06 195.584 32.29C194.794 32.52 194.334 33.36 194.564 34.15H194.584Z" fill="#14E4EA"/>
<path d="M203.652 92.3902L206.77 91.4732C207.01 91.4026 207.271 91.5448 207.341 91.7847L211.201 104.909C211.272 105.149 211.139 105.406 210.89 105.48L207.772 106.397C207.532 106.467 207.271 106.325 207.201 106.085L203.341 92.9613C203.27 92.7215 203.412 92.4608 203.652 92.3902Z" fill="#434343"/>
<path d="M220.809 91.677L223.926 90.7599C224.166 90.6894 224.427 90.8316 224.498 91.0714L227.181 100.195C227.252 100.435 227.109 100.696 226.87 100.766L223.752 101.683C223.512 101.754 223.251 101.611 223.18 101.372L220.497 92.2481C220.426 92.0082 220.569 91.7475 220.809 91.677Z" fill="#434343"/>
<path d="M227.629 85.3079L230.747 84.3903C230.986 84.3197 231.247 84.4619 231.318 84.7017L235.18 97.8251C235.251 98.065 235.109 98.3257 234.869 98.3963L231.751 99.3139C231.511 99.3845 231.25 99.2423 231.18 99.0025L227.317 85.8791C227.247 85.6393 227.389 85.3785 227.629 85.3079Z" fill="#434343"/>
<path d="M213.589 85.11L210.469 86.03C210.229 86.1 210.089 86.36 210.159 86.6L215.179 103.73C215.249 103.97 215.509 104.11 215.749 104.04L218.869 103.12C219.109 103.05 219.249 102.79 219.179 102.55L214.159 85.42C214.089 85.18 213.829 85.04 213.589 85.11Z" fill="#434343"/>
<path d="M195.427 65.99L232.397 55.12C232.927 54.96 233.227 54.41 233.077 53.88C232.917 53.35 232.367 53.05 231.837 53.2L194.867 64.07C194.337 64.23 194.037 64.78 194.187 65.31C194.347 65.84 194.897 66.14 195.427 65.99Z" fill="#434343"/>
<path d="M197.2 72L234.16 61.13C234.69 60.97 234.99 60.42 234.84 59.89C234.69 59.36 234.13 59.06 233.6 59.21L196.64 70.08C196.11 70.24 195.81 70.79 195.96 71.32C196.11 71.85 196.67 72.15 197.2 72Z" fill="#434343"/>
<path d="M198.95 78L235.92 67.13C236.45 66.97 236.75 66.42 236.6 65.89C236.44 65.36 235.89 65.06 235.36 65.21L198.39 76.08C197.86 76.24 197.56 76.79 197.71 77.32C197.86 77.85 198.42 78.15 198.95 78Z" fill="#434343"/>
<path d="M277.583 97.32L278.953 94.4C279.213 93.84 278.943 93.18 278.363 92.98L259.943 86.35L259.133 87.81L276.113 97.78C276.643 98.09 277.323 97.88 277.583 97.32Z" fill="#14E4EA"/>
<path d="M246.289 96C254.021 96 260.289 89.732 260.289 82C260.289 74.268 254.021 68 246.289 68C238.557 68 232.289 74.268 232.289 82C232.289 89.732 238.557 96 246.289 96Z" fill="white"/>
<path d="M404.662 201.3L399.212 174.15L384.532 177.11L369.402 101.69L331.562 109.3L296.352 199.36L297.102 203.09L297.522 205.18L390.172 205.19L389.982 204.26L393.152 203.62L404.662 201.3ZM328.242 188.43L344.882 142.52L353.092 183.43L328.242 188.43Z" fill="#14E4EA"/>
<path d="M152.122 186.75L164.752 110.87L126.682 104.51L61.8122 176.15L57.9922 199.11L94.3922 205.19H164.242L164.592 203.09L166.902 189.22L152.122 186.75ZM120.492 181.46L95.4922 177.29L127.342 140.3L120.492 181.46Z" fill="#14E4EA"/>
<path d="M71.29 237.47H52.11L52 237.58V238.4L52.11 238.51H71.29L71.4 238.4V237.58L71.29 237.47Z" fill="#14E4EA"/>
<path d="M123.938 237.47H104.758L104.648 237.58V238.4L104.758 238.51H123.938L124.048 238.4V237.58L123.938 237.47Z" fill="#14E4EA"/>
<path d="M171.853 225.08H152.682L152.562 225.2V226.01L152.682 226.13H171.853L171.973 226.01V225.2L171.853 225.08Z" fill="#14E4EA"/>
<path d="M199.11 238.78H179.94L179.82 238.89V239.71L179.94 239.82H199.11L199.22 239.71V238.89L199.11 238.78Z" fill="#14E4EA"/>
<path d="M266.462 238.89V239.71L266.342 239.82H247.173L247.062 239.71V238.89L247.173 238.78H266.342L266.462 238.89Z" fill="#14E4EA"/>
<path d="M341.563 238H322.393L322.273 238.12V238.93L322.393 239.05H341.563L341.683 238.93V238.12L341.563 238Z" fill="#14E4EA"/>
<path d="M102.603 223.08H83.4325L83.3125 223.19V224.01L83.4325 224.12H102.603L102.723 224.01V223.19L102.603 223.08Z" fill="#14E4EA"/>
<path d="M236.587 222.68V223.5L236.477 223.61H217.298L217.188 223.5V222.68L217.298 222.57H236.477L236.587 222.68Z" fill="#14E4EA"/>
<path d="M372.874 222.49H353.704L353.594 222.6V223.41L353.704 223.53H372.874L372.994 223.41V222.6L372.874 222.49Z" fill="#14E4EA"/>
<path d="M305.733 217.63H286.563L286.453 217.74V218.56L286.563 218.67H305.733L305.853 218.56V217.74L305.733 217.63Z" fill="#14E4EA"/>
<path d="M246.11 96.89V98.39C255.18 98.39 262.54 91.02 262.54 81.94C262.54 72.86 255.19 65.49 246.11 65.49C237.04 65.49 229.68 72.86 229.68 81.94C229.68 91.02 237.03 98.39 246.11 98.39V95.39C242.4 95.39 239.05 93.89 236.62 91.45C234.19 89.01 232.69 85.66 232.69 81.94C232.69 78.22 234.19 74.87 236.62 72.43C239.05 69.99 242.4 68.49 246.11 68.49C249.82 68.49 253.17 69.99 255.6 72.43C258.03 74.87 259.53 78.22 259.53 81.94C259.53 85.66 258.03 89.01 255.6 91.45C253.17 93.89 249.82 95.39 246.11 95.39V96.89Z" fill="#14E4EA"/>
<path d="M246.289 88C246.841 88 247.289 87.5523 247.289 87C247.289 86.4477 246.841 86 246.289 86C245.737 86 245.289 86.4477 245.289 87C245.289 87.5523 245.737 88 246.289 88Z" fill="#14E4EA"/>
<path d="M246.289 75C246.839 75 247.289 75.45 247.289 76V84C247.289 84.55 246.839 85 246.289 85C245.739 85 245.289 84.55 245.289 84V76C245.289 75.45 245.739 75 246.289 75Z" fill="#14E4EA"/>
<path d="M217.298 223.61L217.188 223.5V222.68L217.298 222.57H236.477L236.587 222.68V223.5L236.477 223.61H217.298Z" fill="#E5FAF1"/>
<path d="M266.462 238.89V239.71L266.342 239.82H247.173L247.062 239.71V238.89L247.173 238.78H266.342L266.462 238.89Z" fill="#E5FAF1"/>
</svg>
