<svg width="360" height="401" viewBox="0 0 360 401" fill="none" xmlns="http://www.w3.org/2000/svg">
<path d="M321.291 46.8231L343.641 46.8231L343.641 39.5496L321.291 39.5496L321.291 46.8231Z" stroke="white" stroke-width="0.75" stroke-miterlimit="10"/>
<path d="M333.759 37.652H356.109V30.3785H333.759V37.652Z" stroke="white" stroke-width="0.75" stroke-miterlimit="10"/>
<path d="M180.002 118.402H202.352V111.129H180.002V118.402Z" stroke="white" stroke-width="0.75" stroke-miterlimit="10"/>
<path d="M192.463 109.231H214.812V101.958H192.463V109.231Z" stroke="white" stroke-width="0.75" stroke-miterlimit="10"/>
<path d="M204.884 118.402H227.234V111.129H204.884V118.402Z" stroke="white" stroke-width="0.75" stroke-miterlimit="10"/>
<path d="M3.89222 37.652H26.2422V30.3785H3.89222V37.652Z" stroke="white" stroke-width="0.75" stroke-miterlimit="10"/>
<path d="M16.361 208.673H38.7109V201.4H16.361V208.673Z" stroke="white" stroke-width="0.75" stroke-miterlimit="10"/>
<path d="M3.89222 199.502H26.2422V192.229H3.89222V199.502Z" stroke="white" stroke-width="0.75" stroke-miterlimit="10"/>
<path d="M321.291 208.673L343.641 208.673L343.641 201.4L321.291 201.4L321.291 208.673Z" stroke="white" stroke-width="0.75" stroke-miterlimit="10"/>
<path d="M145.242 274V192.319L167.803 168.606V124.188" stroke="white" stroke-miterlimit="10"/>
<path d="M165.797 122.671C165.797 123.524 166.694 124.215 167.801 124.215C168.909 124.215 169.806 123.524 169.806 122.671C169.806 121.818 168.909 121.127 167.801 121.127C166.694 121.127 165.797 121.819 165.797 122.671Z" stroke="white" stroke-miterlimit="10"/>
<path d="M151.055 274V195.184L173.615 171.471V140.436" stroke="white" stroke-miterlimit="10"/>
<path d="M171.609 138.919C171.609 139.772 172.507 140.463 173.614 140.463C174.721 140.463 175.618 139.772 175.618 138.919C175.618 138.067 174.721 137.376 173.614 137.376C172.507 137.376 171.609 138.067 171.609 138.919Z" stroke="white" stroke-miterlimit="10"/>
<path d="M139.648 274V165.834" stroke="white" stroke-miterlimit="10"/>
<path d="M137.641 164.29C137.641 165.143 138.538 165.834 139.645 165.834C140.752 165.834 141.65 165.143 141.65 164.29C141.65 163.437 140.752 162.746 139.645 162.746C138.539 162.746 137.641 163.437 137.641 164.29Z" stroke="white" stroke-miterlimit="10"/>
<path d="M134.262 274V219.027L118.945 196.777V156.891" stroke="white" stroke-miterlimit="10"/>
<path d="M116.938 155.348C116.938 156.2 117.835 156.891 118.942 156.891C120.049 156.891 120.946 156.2 120.946 155.348C120.946 154.495 120.049 153.804 118.942 153.804C117.835 153.804 116.938 154.495 116.938 155.348Z" stroke="white" stroke-miterlimit="10"/>
<path d="M128.901 274V221.404L110.844 196.807V170.537" stroke="white" stroke-miterlimit="10"/>
<path d="M108.836 168.994C108.836 169.846 109.733 170.537 110.84 170.537C111.948 170.537 112.845 169.846 112.845 168.994C112.845 168.141 111.948 167.45 110.84 167.45C109.734 167.45 108.836 168.141 108.836 168.994Z" stroke="white" stroke-miterlimit="10"/>
<path d="M62.4453 24.4113V0" stroke="white" stroke-miterlimit="10"/>
<path d="M82.0311 38.9511L80.4562 41.6187H44.4301L42.8594 38.9511L58.1965 30.7754H66.6939L82.0311 38.9511Z" fill="white"/>
<path d="M67.7588 22.8981L66.6945 30.7754H58.1971L57.1328 22.8981H67.7588Z" fill="white"/>
<path d="M82.0311 38.9523L80.4562 41.6193H44.4301L42.8594 38.9523H82.0311Z" fill="white"/>
<path d="M140.812 24.4113V0" stroke="white" stroke-miterlimit="10"/>
<path d="M160.398 38.9511L158.823 41.6187H122.797L121.227 38.9511L136.564 30.7754H145.061L160.398 38.9511Z" fill="white"/>
<path d="M146.126 22.8981L145.062 30.7754H136.564L135.5 22.8981H146.126Z" fill="white"/>
<path d="M160.398 38.9523L158.823 41.6193H122.797L121.227 38.9523H160.398Z" fill="white"/>
<path d="M219.18 24.4113V0" stroke="white" stroke-miterlimit="10"/>
<path d="M238.765 38.9511L237.191 41.6187H201.164L199.594 38.9511L214.931 30.7754H223.428L238.765 38.9511Z" fill="white"/>
<path d="M224.493 22.8981L223.429 30.7754H214.931L213.867 22.8981H224.493Z" fill="white"/>
<path d="M238.765 38.9523L237.191 41.6193H201.164L199.594 38.9523H238.765Z" fill="white"/>
<path d="M297.547 24.4113V0" stroke="white" stroke-miterlimit="10"/>
<path d="M317.133 38.9511L315.557 41.6187H279.532L277.961 38.9511L293.298 30.7754H301.795L317.133 38.9511Z" fill="white"/>
<path d="M302.86 22.8981L301.796 30.7754H293.299L292.234 22.8981H302.86Z" fill="white"/>
<path d="M317.133 38.9523L315.558 41.6193H279.532L277.961 38.9523H317.133Z" fill="white"/>
<path d="M124.125 388.576C173.727 388.576 213.938 382.157 213.938 374.24C213.938 366.322 173.727 359.904 124.125 359.904C74.523 359.904 34.3125 366.322 34.3125 374.24C34.3125 382.157 74.523 388.576 124.125 388.576Z" fill="white"/>
<path d="M249.542 148.898H194.664V355.824H249.542V148.898Z" fill="#434343"/>
<path d="M350.534 148.898H249.539V355.824H350.534V148.898Z" fill="#434343"/>
<path d="M344.228 328.986H257.117V349.104H344.228V328.986Z" fill="#434343"/>
<path d="M310.366 332.309H260.781V334.007H310.366V332.309Z" fill="#434343"/>
<path d="M310.366 335.252H260.781V336.95H310.366V335.252Z" fill="#434343"/>
<path d="M310.366 338.196H260.781V339.894H310.366V338.196Z" fill="#434343"/>
<path d="M310.366 341.139H260.781V342.837H310.366V341.139Z" fill="#434343"/>
<path d="M310.366 344.083H260.781V345.781H310.366V344.083Z" fill="#434343"/>
<path d="M319.407 333.993C319.407 334.923 318.653 335.677 317.723 335.677C316.793 335.677 316.039 334.923 316.039 333.993C316.039 333.063 316.793 332.309 317.723 332.309C318.653 332.309 319.407 333.063 319.407 333.993Z" fill="#14E4EA"/>
<path d="M324.961 333.993C324.961 334.923 324.208 335.677 323.278 335.677C322.347 335.677 321.594 334.923 321.594 333.993C321.594 333.063 322.347 332.309 323.278 332.309C324.208 332.309 324.961 333.063 324.961 333.993Z" fill="#14E4EA"/>
<path d="M330.508 333.993C330.508 334.923 329.754 335.677 328.824 335.677C327.894 335.677 327.141 334.923 327.141 333.993C327.141 333.063 327.894 332.309 328.824 332.309C329.754 332.309 330.508 333.063 330.508 333.993Z" fill="#14E4EA"/>
<path d="M336.063 333.993C336.063 334.923 335.309 335.677 334.379 335.677C333.449 335.677 332.695 334.923 332.695 333.993C332.695 333.063 333.449 332.309 334.379 332.309C335.309 332.309 336.063 333.063 336.063 333.993Z" fill="#14E4EA"/>
<path d="M341.61 333.993C341.61 334.923 340.856 335.677 339.926 335.677C338.996 335.677 338.242 334.923 338.242 333.993C338.242 333.063 338.996 332.309 339.926 332.309C340.856 332.309 341.61 333.063 341.61 333.993Z" fill="#14E4EA"/>
<path d="M319.407 339.045C319.407 339.975 318.653 340.729 317.723 340.729C316.793 340.729 316.039 339.975 316.039 339.045C316.039 338.115 316.793 337.361 317.723 337.361C318.653 337.361 319.407 338.115 319.407 339.045Z" fill="#14E4EA"/>
<path d="M324.961 339.045C324.961 339.975 324.208 340.729 323.278 340.729C322.347 340.729 321.594 339.975 321.594 339.045C321.594 338.115 322.347 337.361 323.278 337.361C324.208 337.36 324.961 338.115 324.961 339.045Z" fill="#14E4EA"/>
<path d="M330.508 339.045C330.508 339.975 329.754 340.729 328.824 340.729C327.894 340.729 327.141 339.975 327.141 339.045C327.141 338.115 327.894 337.361 328.824 337.361C329.754 337.361 330.508 338.115 330.508 339.045Z" fill="#14E4EA"/>
<path d="M336.063 339.045C336.063 339.975 335.309 340.729 334.379 340.729C333.449 340.729 332.695 339.975 332.695 339.045C332.695 338.115 333.449 337.361 334.379 337.361C335.309 337.361 336.063 338.115 336.063 339.045Z" fill="#14E4EA"/>
<path d="M341.61 339.045C341.61 339.975 340.856 340.729 339.926 340.729C338.996 340.729 338.242 339.975 338.242 339.045C338.242 338.115 338.996 337.361 339.926 337.361C340.856 337.36 341.61 338.115 341.61 339.045Z" fill="#14E4EA"/>
<path d="M317.723 345.78C318.653 345.78 319.407 345.026 319.407 344.096C319.407 343.166 318.653 342.412 317.723 342.412C316.793 342.412 316.039 343.166 316.039 344.096C316.039 345.026 316.793 345.78 317.723 345.78Z" fill="#14E4EA"/>
<path d="M324.961 344.096C324.961 345.026 324.208 345.78 323.278 345.78C322.347 345.78 321.594 345.026 321.594 344.096C321.594 343.166 322.347 342.412 323.278 342.412C324.208 342.412 324.961 343.166 324.961 344.096Z" fill="#14E4EA"/>
<path d="M328.824 345.78C329.754 345.78 330.508 345.026 330.508 344.096C330.508 343.166 329.754 342.412 328.824 342.412C327.894 342.412 327.141 343.166 327.141 344.096C327.141 345.026 327.894 345.78 328.824 345.78Z" fill="#14E4EA"/>
<path d="M336.063 344.096C336.063 345.026 335.309 345.78 334.379 345.78C333.449 345.78 332.695 345.026 332.695 344.096C332.695 343.166 333.449 342.412 334.379 342.412C335.309 342.412 336.063 343.166 336.063 344.096Z" fill="#14E4EA"/>
<path d="M341.61 344.096C341.61 345.026 340.856 345.78 339.926 345.78C338.996 345.78 338.242 345.026 338.242 344.096C338.242 343.166 338.996 342.412 339.926 342.412C340.856 342.412 341.61 343.166 341.61 344.096Z" fill="#14E4EA"/>
<path d="M313.813 332.309H312.844V345.781H313.813V332.309Z" fill="#434343"/>
<path d="M344.228 304.74H257.117V324.857H344.228V304.74Z" fill="#434343"/>
<path d="M310.366 308.063H260.781V309.761H310.366V308.063Z" fill="#434343"/>
<path d="M310.366 311.006H260.781V312.705H310.366V311.006Z" fill="#434343"/>
<path d="M310.366 313.949H260.781V315.648H310.366V313.949Z" fill="#434343"/>
<path d="M310.366 316.893H260.781V318.591H310.366V316.893Z" fill="#434343"/>
<path d="M310.366 319.836H260.781V321.534H310.366V319.836Z" fill="#434343"/>
<path d="M319.407 309.746C319.407 310.676 318.653 311.43 317.723 311.43C316.793 311.43 316.039 310.676 316.039 309.746C316.039 308.816 316.793 308.063 317.723 308.063C318.653 308.063 319.407 308.816 319.407 309.746Z" fill="#14E4EA"/>
<path d="M324.961 309.746C324.961 310.676 324.208 311.43 323.278 311.43C322.347 311.43 321.594 310.676 321.594 309.746C321.594 308.816 322.347 308.063 323.278 308.063C324.208 308.063 324.961 308.816 324.961 309.746Z" fill="#14E4EA"/>
<path d="M330.508 309.746C330.508 310.676 329.754 311.43 328.824 311.43C327.894 311.43 327.141 310.676 327.141 309.746C327.141 308.816 327.894 308.063 328.824 308.063C329.754 308.063 330.508 308.816 330.508 309.746Z" fill="#14E4EA"/>
<path d="M336.063 309.746C336.063 310.676 335.309 311.43 334.379 311.43C333.449 311.43 332.695 310.676 332.695 309.746C332.695 308.816 333.449 308.063 334.379 308.063C335.309 308.063 336.063 308.816 336.063 309.746Z" fill="#14E4EA"/>
<path d="M341.61 309.746C341.61 310.676 340.856 311.43 339.926 311.43C338.996 311.43 338.242 310.676 338.242 309.746C338.242 308.816 338.996 308.063 339.926 308.063C340.856 308.063 341.61 308.816 341.61 309.746Z" fill="#14E4EA"/>
<path d="M319.407 314.799C319.407 315.729 318.653 316.482 317.723 316.482C316.793 316.482 316.039 315.729 316.039 314.799C316.039 313.868 316.793 313.115 317.723 313.115C318.653 313.115 319.407 313.868 319.407 314.799Z" fill="#14E4EA"/>
<path d="M324.961 314.799C324.961 315.729 324.208 316.482 323.278 316.482C322.347 316.482 321.594 315.729 321.594 314.799C321.594 313.868 322.347 313.115 323.278 313.115C324.208 313.115 324.961 313.868 324.961 314.799Z" fill="#14E4EA"/>
<path d="M330.508 314.799C330.508 315.729 329.754 316.482 328.824 316.482C327.894 316.482 327.141 315.729 327.141 314.799C327.141 313.868 327.894 313.115 328.824 313.115C329.754 313.115 330.508 313.868 330.508 314.799Z" fill="#14E4EA"/>
<path d="M336.063 314.799C336.063 315.729 335.309 316.482 334.379 316.482C333.449 316.482 332.695 315.729 332.695 314.799C332.695 313.868 333.449 313.115 334.379 313.115C335.309 313.115 336.063 313.868 336.063 314.799Z" fill="#14E4EA"/>
<path d="M341.61 314.799C341.61 315.729 340.856 316.482 339.926 316.482C338.996 316.482 338.242 315.729 338.242 314.799C338.242 313.868 338.996 313.115 339.926 313.115C340.856 313.115 341.61 313.868 341.61 314.799Z" fill="#14E4EA"/>
<path d="M319.407 319.851C319.407 320.781 318.653 321.534 317.723 321.534C316.793 321.534 316.039 320.781 316.039 319.851C316.039 318.921 316.793 318.167 317.723 318.167C318.653 318.167 319.407 318.921 319.407 319.851Z" fill="#14E4EA"/>
<path d="M324.961 319.851C324.961 320.781 324.208 321.534 323.278 321.534C322.347 321.534 321.594 320.781 321.594 319.851C321.594 318.921 322.347 318.167 323.278 318.167C324.208 318.166 324.961 318.921 324.961 319.851Z" fill="#14E4EA"/>
<path d="M330.508 319.851C330.508 320.781 329.754 321.534 328.824 321.534C327.894 321.534 327.141 320.781 327.141 319.851C327.141 318.921 327.894 318.167 328.824 318.167C329.754 318.167 330.508 318.921 330.508 319.851Z" fill="#14E4EA"/>
<path d="M336.063 319.851C336.063 320.781 335.309 321.534 334.379 321.534C333.449 321.534 332.695 320.781 332.695 319.851C332.695 318.921 333.449 318.167 334.379 318.167C335.309 318.167 336.063 318.921 336.063 319.851Z" fill="#14E4EA"/>
<path d="M341.61 319.851C341.61 320.781 340.856 321.534 339.926 321.534C338.996 321.534 338.242 320.781 338.242 319.851C338.242 318.921 338.996 318.167 339.926 318.167C340.856 318.166 341.61 318.921 341.61 319.851Z" fill="#14E4EA"/>
<path d="M313.813 308.063H312.844V321.534H313.813V308.063Z" fill="#434343"/>
<path d="M344.228 280.493H257.117V300.611H344.228V280.493Z" fill="#434343"/>
<path d="M310.366 283.816H260.781V285.514H310.366V283.816Z" fill="#434343"/>
<path d="M310.366 286.76H260.781V288.458H310.366V286.76Z" fill="#434343"/>
<path d="M310.366 289.703H260.781V291.401H310.366V289.703Z" fill="#434343"/>
<path d="M310.366 292.647H260.781V294.345H310.366V292.647Z" fill="#434343"/>
<path d="M310.366 295.59H260.781V297.288H310.366V295.59Z" fill="#434343"/>
<path d="M317.723 287.185C318.653 287.185 319.407 286.431 319.407 285.501C319.407 284.571 318.653 283.817 317.723 283.817C316.793 283.817 316.039 284.571 316.039 285.501C316.039 286.431 316.793 287.185 317.723 287.185Z" fill="#14E4EA"/>
<path d="M324.961 285.501C324.961 286.431 324.208 287.185 323.278 287.185C322.347 287.185 321.594 286.431 321.594 285.501C321.594 284.571 322.347 283.817 323.278 283.817C324.208 283.816 324.961 284.571 324.961 285.501Z" fill="#14E4EA"/>
<path d="M328.824 287.185C329.754 287.185 330.508 286.431 330.508 285.501C330.508 284.571 329.754 283.817 328.824 283.817C327.894 283.817 327.141 284.571 327.141 285.501C327.141 286.431 327.894 287.185 328.824 287.185Z" fill="#14E4EA"/>
<path d="M336.063 285.501C336.063 286.431 335.309 287.185 334.379 287.185C333.449 287.185 332.695 286.431 332.695 285.501C332.695 284.571 333.449 283.817 334.379 283.817C335.309 283.817 336.063 284.571 336.063 285.501Z" fill="#14E4EA"/>
<path d="M341.61 285.501C341.61 286.431 340.856 287.185 339.926 287.185C338.996 287.185 338.242 286.431 338.242 285.501C338.242 284.571 338.996 283.817 339.926 283.817C340.856 283.816 341.61 284.571 341.61 285.501Z" fill="#14E4EA"/>
<path d="M319.407 290.552C319.407 291.482 318.653 292.236 317.723 292.236C316.793 292.236 316.039 291.482 316.039 290.552C316.039 289.622 316.793 288.868 317.723 288.868C318.653 288.868 319.407 289.622 319.407 290.552Z" fill="#14E4EA"/>
<path d="M324.961 290.552C324.961 291.482 324.208 292.236 323.278 292.236C322.347 292.236 321.594 291.482 321.594 290.552C321.594 289.622 322.347 288.868 323.278 288.868C324.208 288.868 324.961 289.622 324.961 290.552Z" fill="#14E4EA"/>
<path d="M330.508 290.552C330.508 291.482 329.754 292.236 328.824 292.236C327.894 292.236 327.141 291.482 327.141 290.552C327.141 289.622 327.894 288.868 328.824 288.868C329.754 288.868 330.508 289.622 330.508 290.552Z" fill="#14E4EA"/>
<path d="M336.063 290.552C336.063 291.482 335.309 292.236 334.379 292.236C333.449 292.236 332.695 291.482 332.695 290.552C332.695 289.622 333.449 288.868 334.379 288.868C335.309 288.868 336.063 289.622 336.063 290.552Z" fill="#14E4EA"/>
<path d="M341.61 290.552C341.61 291.482 340.856 292.236 339.926 292.236C338.996 292.236 338.242 291.482 338.242 290.552C338.242 289.622 338.996 288.868 339.926 288.868C340.856 288.868 341.61 289.622 341.61 290.552Z" fill="#14E4EA"/>
<path d="M319.407 295.604C319.407 296.534 318.653 297.288 317.723 297.288C316.793 297.288 316.039 296.534 316.039 295.604C316.039 294.674 316.793 293.92 317.723 293.92C318.653 293.92 319.407 294.674 319.407 295.604Z" fill="#14E4EA"/>
<path d="M324.961 295.604C324.961 296.534 324.208 297.288 323.278 297.288C322.347 297.288 321.594 296.534 321.594 295.604C321.594 294.674 322.347 293.92 323.278 293.92C324.208 293.92 324.961 294.674 324.961 295.604Z" fill="#14E4EA"/>
<path d="M330.508 295.604C330.508 296.534 329.754 297.288 328.824 297.288C327.894 297.288 327.141 296.534 327.141 295.604C327.141 294.674 327.894 293.92 328.824 293.92C329.754 293.92 330.508 294.674 330.508 295.604Z" fill="#14E4EA"/>
<path d="M336.063 295.604C336.063 296.534 335.309 297.288 334.379 297.288C333.449 297.288 332.695 296.534 332.695 295.604C332.695 294.674 333.449 293.92 334.379 293.92C335.309 293.92 336.063 294.674 336.063 295.604Z" fill="#14E4EA"/>
<path d="M341.61 295.604C341.61 296.534 340.856 297.288 339.926 297.288C338.996 297.288 338.242 296.534 338.242 295.604C338.242 294.674 338.996 293.92 339.926 293.92C340.856 293.92 341.61 294.674 341.61 295.604Z" fill="#14E4EA"/>
<path d="M313.813 283.816H312.844V297.288H313.813V283.816Z" fill="#434343"/>
<path d="M344.228 256.247H257.117V276.364H344.228V256.247Z" fill="#434343"/>
<path d="M310.366 259.57H260.781V261.269H310.366V259.57Z" fill="#434343"/>
<path d="M310.366 262.514H260.781V264.212H310.366V262.514Z" fill="#434343"/>
<path d="M310.366 265.457H260.781V267.156H310.366V265.457Z" fill="#434343"/>
<path d="M310.366 268.4H260.781V270.099H310.366V268.4Z" fill="#434343"/>
<path d="M310.366 271.343H260.781V273.042H310.366V271.343Z" fill="#434343"/>
<path d="M319.407 261.254C319.407 262.184 318.653 262.938 317.723 262.938C316.793 262.938 316.039 262.184 316.039 261.254C316.039 260.324 316.793 259.57 317.723 259.57C318.653 259.57 319.407 260.324 319.407 261.254Z" fill="#14E4EA"/>
<path d="M324.961 261.254C324.961 262.184 324.208 262.938 323.278 262.938C322.347 262.938 321.594 262.184 321.594 261.254C321.594 260.324 322.347 259.57 323.278 259.57C324.208 259.57 324.961 260.324 324.961 261.254Z" fill="#14E4EA"/>
<path d="M330.508 261.254C330.508 262.184 329.754 262.938 328.824 262.938C327.894 262.938 327.141 262.184 327.141 261.254C327.141 260.324 327.894 259.57 328.824 259.57C329.754 259.57 330.508 260.324 330.508 261.254Z" fill="#14E4EA"/>
<path d="M336.063 261.254C336.063 262.184 335.309 262.938 334.379 262.938C333.449 262.938 332.695 262.184 332.695 261.254C332.695 260.324 333.449 259.57 334.379 259.57C335.309 259.57 336.063 260.324 336.063 261.254Z" fill="#14E4EA"/>
<path d="M341.61 261.254C341.61 262.184 340.856 262.938 339.926 262.938C338.996 262.938 338.242 262.184 338.242 261.254C338.242 260.324 338.996 259.57 339.926 259.57C340.856 259.57 341.61 260.324 341.61 261.254Z" fill="#14E4EA"/>
<path d="M317.723 267.989C318.653 267.989 319.407 267.236 319.407 266.306C319.407 265.376 318.653 264.622 317.723 264.622C316.793 264.622 316.039 265.376 316.039 266.306C316.039 267.236 316.793 267.989 317.723 267.989Z" fill="#14E4EA"/>
<path d="M324.961 266.306C324.961 267.236 324.208 267.989 323.278 267.989C322.347 267.989 321.594 267.236 321.594 266.306C321.594 265.376 322.347 264.622 323.278 264.622C324.208 264.622 324.961 265.376 324.961 266.306Z" fill="#14E4EA"/>
<path d="M328.824 267.989C329.754 267.989 330.508 267.236 330.508 266.306C330.508 265.376 329.754 264.622 328.824 264.622C327.894 264.622 327.141 265.376 327.141 266.306C327.141 267.236 327.894 267.989 328.824 267.989Z" fill="#14E4EA"/>
<path d="M336.063 266.306C336.063 267.236 335.309 267.989 334.379 267.989C333.449 267.989 332.695 267.236 332.695 266.306C332.695 265.376 333.449 264.622 334.379 264.622C335.309 264.622 336.063 265.376 336.063 266.306Z" fill="#14E4EA"/>
<path d="M341.61 266.306C341.61 267.236 340.856 267.989 339.926 267.989C338.996 267.989 338.242 267.236 338.242 266.306C338.242 265.376 338.996 264.622 339.926 264.622C340.856 264.622 341.61 265.376 341.61 266.306Z" fill="#14E4EA"/>
<path d="M317.723 273.042C318.653 273.042 319.407 272.288 319.407 271.358C319.407 270.428 318.653 269.674 317.723 269.674C316.793 269.674 316.039 270.428 316.039 271.358C316.039 272.288 316.793 273.042 317.723 273.042Z" fill="#14E4EA"/>
<path d="M324.961 271.358C324.961 272.288 324.208 273.042 323.278 273.042C322.347 273.042 321.594 272.288 321.594 271.358C321.594 270.428 322.347 269.674 323.278 269.674C324.208 269.674 324.961 270.428 324.961 271.358Z" fill="#14E4EA"/>
<path d="M328.824 273.042C329.754 273.042 330.508 272.288 330.508 271.358C330.508 270.428 329.754 269.674 328.824 269.674C327.894 269.674 327.141 270.428 327.141 271.358C327.141 272.288 327.894 273.042 328.824 273.042Z" fill="#14E4EA"/>
<path d="M336.063 271.358C336.063 272.288 335.309 273.042 334.379 273.042C333.449 273.042 332.695 272.288 332.695 271.358C332.695 270.428 333.449 269.674 334.379 269.674C335.309 269.674 336.063 270.428 336.063 271.358Z" fill="#14E4EA"/>
<path d="M341.61 271.358C341.61 272.288 340.856 273.042 339.926 273.042C338.996 273.042 338.242 272.288 338.242 271.358C338.242 270.428 338.996 269.674 339.926 269.674C340.856 269.674 341.61 270.428 341.61 271.358Z" fill="#14E4EA"/>
<path d="M313.813 259.57H312.844V273.042H313.813V259.57Z" fill="#434343"/>
<path d="M344.228 232.001H257.117V252.119H344.228V232.001Z" fill="#434343"/>
<path d="M310.366 235.324H260.781V237.022H310.366V235.324Z" fill="#434343"/>
<path d="M310.366 238.267H260.781V239.965H310.366V238.267Z" fill="#434343"/>
<path d="M310.366 241.211H260.781V242.909H310.366V241.211Z" fill="#434343"/>
<path d="M310.366 244.154H260.781V245.852H310.366V244.154Z" fill="#434343"/>
<path d="M310.366 247.098H260.781V248.796H310.366V247.098Z" fill="#434343"/>
<path d="M317.723 238.692C318.653 238.692 319.407 237.938 319.407 237.008C319.407 236.078 318.653 235.324 317.723 235.324C316.793 235.324 316.039 236.078 316.039 237.008C316.039 237.938 316.793 238.692 317.723 238.692Z" fill="#14E4EA"/>
<path d="M324.961 237.008C324.961 237.938 324.208 238.692 323.278 238.692C322.347 238.692 321.594 237.938 321.594 237.008C321.594 236.078 322.347 235.324 323.278 235.324C324.208 235.324 324.961 236.078 324.961 237.008Z" fill="#14E4EA"/>
<path d="M328.824 238.692C329.754 238.692 330.508 237.938 330.508 237.008C330.508 236.078 329.754 235.324 328.824 235.324C327.894 235.324 327.141 236.078 327.141 237.008C327.141 237.938 327.894 238.692 328.824 238.692Z" fill="#14E4EA"/>
<path d="M336.063 237.008C336.063 237.938 335.309 238.692 334.379 238.692C333.449 238.692 332.695 237.938 332.695 237.008C332.695 236.078 333.449 235.324 334.379 235.324C335.309 235.324 336.063 236.078 336.063 237.008Z" fill="#14E4EA"/>
<path d="M341.61 237.008C341.61 237.938 340.856 238.692 339.926 238.692C338.996 238.692 338.242 237.938 338.242 237.008C338.242 236.078 338.996 235.324 339.926 235.324C340.856 235.324 341.61 236.078 341.61 237.008Z" fill="#14E4EA"/>
<path d="M317.723 243.744C318.653 243.744 319.407 242.99 319.407 242.06C319.407 241.13 318.653 240.376 317.723 240.376C316.793 240.376 316.039 241.13 316.039 242.06C316.039 242.99 316.793 243.744 317.723 243.744Z" fill="#14E4EA"/>
<path d="M324.961 242.06C324.961 242.99 324.208 243.744 323.278 243.744C322.347 243.744 321.594 242.99 321.594 242.06C321.594 241.13 322.347 240.376 323.278 240.376C324.208 240.375 324.961 241.13 324.961 242.06Z" fill="#14E4EA"/>
<path d="M328.824 243.744C329.754 243.744 330.508 242.99 330.508 242.06C330.508 241.13 329.754 240.376 328.824 240.376C327.894 240.376 327.141 241.13 327.141 242.06C327.141 242.99 327.894 243.744 328.824 243.744Z" fill="#14E4EA"/>
<path d="M336.063 242.06C336.063 242.99 335.309 243.744 334.379 243.744C333.449 243.744 332.695 242.99 332.695 242.06C332.695 241.13 333.449 240.376 334.379 240.376C335.309 240.376 336.063 241.13 336.063 242.06Z" fill="#14E4EA"/>
<path d="M341.61 242.06C341.61 242.99 340.856 243.744 339.926 243.744C338.996 243.744 338.242 242.99 338.242 242.06C338.242 241.13 338.996 240.376 339.926 240.376C340.856 240.375 341.61 241.13 341.61 242.06Z" fill="#14E4EA"/>
<path d="M319.407 247.111C319.407 248.041 318.653 248.795 317.723 248.795C316.793 248.795 316.039 248.041 316.039 247.111C316.039 246.181 316.793 245.428 317.723 245.428C318.653 245.428 319.407 246.181 319.407 247.111Z" fill="#14E4EA"/>
<path d="M324.961 247.111C324.961 248.041 324.208 248.795 323.278 248.795C322.347 248.795 321.594 248.041 321.594 247.111C321.594 246.181 322.347 245.428 323.278 245.428C324.208 245.428 324.961 246.181 324.961 247.111Z" fill="#14E4EA"/>
<path d="M330.508 247.111C330.508 248.041 329.754 248.795 328.824 248.795C327.894 248.795 327.141 248.041 327.141 247.111C327.141 246.181 327.894 245.428 328.824 245.428C329.754 245.428 330.508 246.181 330.508 247.111Z" fill="#14E4EA"/>
<path d="M336.063 247.111C336.063 248.041 335.309 248.795 334.379 248.795C333.449 248.795 332.695 248.041 332.695 247.111C332.695 246.181 333.449 245.428 334.379 245.428C335.309 245.428 336.063 246.181 336.063 247.111Z" fill="#14E4EA"/>
<path d="M341.61 247.111C341.61 248.041 340.856 248.795 339.926 248.795C338.996 248.795 338.242 248.041 338.242 247.111C338.242 246.181 338.996 245.428 339.926 245.428C340.856 245.428 341.61 246.181 341.61 247.111Z" fill="#14E4EA"/>
<path d="M313.813 235.324H312.844V248.796H313.813V235.324Z" fill="#434343"/>
<path d="M344.228 207.755H257.117V227.872H344.228V207.755Z" fill="#434343"/>
<path d="M310.366 211.078H260.781V212.776H310.366V211.078Z" fill="#434343"/>
<path d="M310.366 214.021H260.781V215.719H310.366V214.021Z" fill="#434343"/>
<path d="M310.366 216.965H260.781V218.663H310.366V216.965Z" fill="#434343"/>
<path d="M310.366 219.908H260.781V221.606H310.366V219.908Z" fill="#434343"/>
<path d="M310.366 222.851H260.781V224.55H310.366V222.851Z" fill="#434343"/>
<path d="M319.407 212.761C319.407 213.692 318.653 214.445 317.723 214.445C316.793 214.445 316.039 213.692 316.039 212.761C316.039 211.831 316.793 211.078 317.723 211.078C318.653 211.078 319.407 211.831 319.407 212.761Z" fill="#14E4EA"/>
<path d="M324.961 212.761C324.961 213.692 324.208 214.445 323.278 214.445C322.347 214.445 321.594 213.692 321.594 212.761C321.594 211.831 322.347 211.078 323.278 211.078C324.208 211.078 324.961 211.831 324.961 212.761Z" fill="#14E4EA"/>
<path d="M330.508 212.761C330.508 213.692 329.754 214.445 328.824 214.445C327.894 214.445 327.141 213.692 327.141 212.761C327.141 211.831 327.894 211.078 328.824 211.078C329.754 211.078 330.508 211.831 330.508 212.761Z" fill="#14E4EA"/>
<path d="M336.063 212.761C336.063 213.692 335.309 214.445 334.379 214.445C333.449 214.445 332.695 213.692 332.695 212.761C332.695 211.831 333.449 211.078 334.379 211.078C335.309 211.078 336.063 211.831 336.063 212.761Z" fill="#14E4EA"/>
<path d="M341.61 212.761C341.61 213.692 340.856 214.445 339.926 214.445C338.996 214.445 338.242 213.692 338.242 212.761C338.242 211.831 338.996 211.078 339.926 211.078C340.856 211.078 341.61 211.831 341.61 212.761Z" fill="#14E4EA"/>
<path d="M319.407 217.814C319.407 218.744 318.653 219.497 317.723 219.497C316.793 219.497 316.039 218.744 316.039 217.814C316.039 216.884 316.793 216.13 317.723 216.13C318.653 216.13 319.407 216.884 319.407 217.814Z" fill="#14E4EA"/>
<path d="M324.961 217.814C324.961 218.744 324.208 219.497 323.278 219.497C322.347 219.497 321.594 218.744 321.594 217.814C321.594 216.884 322.347 216.13 323.278 216.13C324.208 216.13 324.961 216.884 324.961 217.814Z" fill="#14E4EA"/>
<path d="M330.508 217.814C330.508 218.744 329.754 219.497 328.824 219.497C327.894 219.497 327.141 218.744 327.141 217.814C327.141 216.884 327.894 216.13 328.824 216.13C329.754 216.13 330.508 216.884 330.508 217.814Z" fill="#14E4EA"/>
<path d="M336.063 217.814C336.063 218.744 335.309 219.497 334.379 219.497C333.449 219.497 332.695 218.744 332.695 217.814C332.695 216.884 333.449 216.13 334.379 216.13C335.309 216.13 336.063 216.884 336.063 217.814Z" fill="#14E4EA"/>
<path d="M341.61 217.814C341.61 218.744 340.856 219.497 339.926 219.497C338.996 219.497 338.242 218.744 338.242 217.814C338.242 216.884 338.996 216.13 339.926 216.13C340.856 216.13 341.61 216.884 341.61 217.814Z" fill="#14E4EA"/>
<path d="M319.407 222.865C319.407 223.795 318.653 224.549 317.723 224.549C316.793 224.549 316.039 223.795 316.039 222.865C316.039 221.935 316.793 221.181 317.723 221.181C318.653 221.181 319.407 221.936 319.407 222.865Z" fill="#14E4EA"/>
<path d="M324.961 222.865C324.961 223.795 324.208 224.549 323.278 224.549C322.347 224.549 321.594 223.795 321.594 222.865C321.594 221.935 322.347 221.181 323.278 221.181C324.208 221.181 324.961 221.936 324.961 222.865Z" fill="#14E4EA"/>
<path d="M330.508 222.865C330.508 223.795 329.754 224.549 328.824 224.549C327.894 224.549 327.141 223.795 327.141 222.865C327.141 221.935 327.894 221.181 328.824 221.181C329.754 221.181 330.508 221.936 330.508 222.865Z" fill="#14E4EA"/>
<path d="M336.063 222.865C336.063 223.795 335.309 224.549 334.379 224.549C333.449 224.549 332.695 223.795 332.695 222.865C332.695 221.935 333.449 221.181 334.379 221.181C335.309 221.181 336.063 221.936 336.063 222.865Z" fill="#14E4EA"/>
<path d="M341.61 222.865C341.61 223.795 340.856 224.549 339.926 224.549C338.996 224.549 338.242 223.795 338.242 222.865C338.242 221.935 338.996 221.181 339.926 221.181C340.856 221.181 341.61 221.936 341.61 222.865Z" fill="#14E4EA"/>
<path d="M313.813 211.078H312.844V224.55H313.813V211.078Z" fill="#434343"/>
<path d="M344.228 183.508H257.117V203.626H344.228V183.508Z" fill="#434343"/>
<path d="M310.366 186.831H260.781V188.529H310.366V186.831Z" fill="#434343"/>
<path d="M310.366 189.775H260.781V191.473H310.366V189.775Z" fill="#434343"/>
<path d="M310.366 192.718H260.781V194.416H310.366V192.718Z" fill="#434343"/>
<path d="M310.366 195.662H260.781V197.36H310.366V195.662Z" fill="#434343"/>
<path d="M310.366 198.605H260.781V200.303H310.366V198.605Z" fill="#434343"/>
<path d="M319.407 188.515C319.407 189.445 318.653 190.199 317.723 190.199C316.793 190.199 316.039 189.445 316.039 188.515C316.039 187.585 316.793 186.831 317.723 186.831C318.653 186.831 319.407 187.586 319.407 188.515Z" fill="#14E4EA"/>
<path d="M324.961 188.515C324.961 189.445 324.208 190.199 323.278 190.199C322.347 190.199 321.594 189.445 321.594 188.515C321.594 187.585 322.347 186.831 323.278 186.831C324.208 186.831 324.961 187.586 324.961 188.515Z" fill="#14E4EA"/>
<path d="M330.508 188.515C330.508 189.445 329.754 190.199 328.824 190.199C327.894 190.199 327.141 189.445 327.141 188.515C327.141 187.585 327.894 186.831 328.824 186.831C329.754 186.831 330.508 187.586 330.508 188.515Z" fill="#14E4EA"/>
<path d="M336.063 188.515C336.063 189.445 335.309 190.199 334.379 190.199C333.449 190.199 332.695 189.445 332.695 188.515C332.695 187.585 333.449 186.831 334.379 186.831C335.309 186.831 336.063 187.586 336.063 188.515Z" fill="#14E4EA"/>
<path d="M341.61 188.515C341.61 189.445 340.856 190.199 339.926 190.199C338.996 190.199 338.242 189.445 338.242 188.515C338.242 187.585 338.996 186.831 339.926 186.831C340.856 186.831 341.61 187.586 341.61 188.515Z" fill="#14E4EA"/>
<path d="M319.407 193.567C319.407 194.497 318.653 195.251 317.723 195.251C316.793 195.251 316.039 194.497 316.039 193.567C316.039 192.637 316.793 191.883 317.723 191.883C318.653 191.883 319.407 192.637 319.407 193.567Z" fill="#14E4EA"/>
<path d="M324.961 193.567C324.961 194.497 324.208 195.251 323.278 195.251C322.347 195.251 321.594 194.497 321.594 193.567C321.594 192.637 322.347 191.883 323.278 191.883C324.208 191.883 324.961 192.637 324.961 193.567Z" fill="#14E4EA"/>
<path d="M330.508 193.567C330.508 194.497 329.754 195.251 328.824 195.251C327.894 195.251 327.141 194.497 327.141 193.567C327.141 192.637 327.894 191.883 328.824 191.883C329.754 191.883 330.508 192.637 330.508 193.567Z" fill="#14E4EA"/>
<path d="M336.063 193.567C336.063 194.497 335.309 195.251 334.379 195.251C333.449 195.251 332.695 194.497 332.695 193.567C332.695 192.637 333.449 191.883 334.379 191.883C335.309 191.883 336.063 192.637 336.063 193.567Z" fill="#14E4EA"/>
<path d="M341.61 193.567C341.61 194.497 340.856 195.251 339.926 195.251C338.996 195.251 338.242 194.497 338.242 193.567C338.242 192.637 338.996 191.883 339.926 191.883C340.856 191.883 341.61 192.637 341.61 193.567Z" fill="#14E4EA"/>
<path d="M319.407 198.619C319.407 199.549 318.653 200.303 317.723 200.303C316.793 200.303 316.039 199.549 316.039 198.619C316.039 197.689 316.793 196.936 317.723 196.936C318.653 196.936 319.407 197.689 319.407 198.619Z" fill="#14E4EA"/>
<path d="M324.961 198.619C324.961 199.549 324.208 200.303 323.278 200.303C322.347 200.303 321.594 199.549 321.594 198.619C321.594 197.689 322.347 196.936 323.278 196.936C324.208 196.935 324.961 197.689 324.961 198.619Z" fill="#14E4EA"/>
<path d="M330.508 198.619C330.508 199.549 329.754 200.303 328.824 200.303C327.894 200.303 327.141 199.549 327.141 198.619C327.141 197.689 327.894 196.936 328.824 196.936C329.754 196.936 330.508 197.689 330.508 198.619Z" fill="#14E4EA"/>
<path d="M336.063 198.619C336.063 199.549 335.309 200.303 334.379 200.303C333.449 200.303 332.695 199.549 332.695 198.619C332.695 197.689 333.449 196.936 334.379 196.936C335.309 196.936 336.063 197.689 336.063 198.619Z" fill="#14E4EA"/>
<path d="M341.61 198.619C341.61 199.549 340.856 200.303 339.926 200.303C338.996 200.303 338.242 199.549 338.242 198.619C338.242 197.689 338.996 196.936 339.926 196.936C340.856 196.935 341.61 197.689 341.61 198.619Z" fill="#14E4EA"/>
<path d="M313.813 186.831H312.844V200.303H313.813V186.831Z" fill="#434343"/>
<path d="M344.228 159.262H257.117V179.38H344.228V159.262Z" fill="#434343"/>
<path d="M310.366 162.586H260.781V164.284H310.366V162.586Z" fill="#434343"/>
<path d="M310.366 165.529H260.781V167.227H310.366V165.529Z" fill="#434343"/>
<path d="M310.366 168.472H260.781V170.17H310.366V168.472Z" fill="#434343"/>
<path d="M310.366 171.416H260.781V173.114H310.366V171.416Z" fill="#434343"/>
<path d="M310.366 174.359H260.781V176.057H310.366V174.359Z" fill="#434343"/>
<path d="M319.407 164.269C319.407 165.2 318.653 165.953 317.723 165.953C316.793 165.953 316.039 165.2 316.039 164.269C316.039 163.339 316.793 162.586 317.723 162.586C318.653 162.586 319.407 163.339 319.407 164.269Z" fill="#14E4EA"/>
<path d="M324.961 164.269C324.961 165.2 324.208 165.953 323.278 165.953C322.347 165.953 321.594 165.2 321.594 164.269C321.594 163.339 322.347 162.586 323.278 162.586C324.208 162.586 324.961 163.339 324.961 164.269Z" fill="#14E4EA"/>
<path d="M330.508 164.269C330.508 165.2 329.754 165.953 328.824 165.953C327.894 165.953 327.141 165.2 327.141 164.269C327.141 163.339 327.894 162.586 328.824 162.586C329.754 162.586 330.508 163.339 330.508 164.269Z" fill="#14E4EA"/>
<path d="M336.063 164.269C336.063 165.2 335.309 165.953 334.379 165.953C333.449 165.953 332.695 165.2 332.695 164.269C332.695 163.339 333.449 162.586 334.379 162.586C335.309 162.586 336.063 163.339 336.063 164.269Z" fill="#14E4EA"/>
<path d="M341.61 164.269C341.61 165.2 340.856 165.953 339.926 165.953C338.996 165.953 338.242 165.2 338.242 164.269C338.242 163.339 338.996 162.586 339.926 162.586C340.856 162.586 341.61 163.339 341.61 164.269Z" fill="#14E4EA"/>
<path d="M317.723 171.005C318.653 171.005 319.407 170.251 319.407 169.321C319.407 168.391 318.653 167.637 317.723 167.637C316.793 167.637 316.039 168.391 316.039 169.321C316.039 170.251 316.793 171.005 317.723 171.005Z" fill="#14E4EA"/>
<path d="M324.961 169.321C324.961 170.251 324.208 171.005 323.278 171.005C322.347 171.005 321.594 170.251 321.594 169.321C321.594 168.391 322.347 167.637 323.278 167.637C324.208 167.637 324.961 168.391 324.961 169.321Z" fill="#14E4EA"/>
<path d="M328.824 171.005C329.754 171.005 330.508 170.251 330.508 169.321C330.508 168.391 329.754 167.637 328.824 167.637C327.894 167.637 327.141 168.391 327.141 169.321C327.141 170.251 327.894 171.005 328.824 171.005Z" fill="#14E4EA"/>
<path d="M336.063 169.321C336.063 170.251 335.309 171.005 334.379 171.005C333.449 171.005 332.695 170.251 332.695 169.321C332.695 168.391 333.449 167.637 334.379 167.637C335.309 167.637 336.063 168.391 336.063 169.321Z" fill="#14E4EA"/>
<path d="M341.61 169.321C341.61 170.251 340.856 171.005 339.926 171.005C338.996 171.005 338.242 170.251 338.242 169.321C338.242 168.391 338.996 167.637 339.926 167.637C340.856 167.637 341.61 168.391 341.61 169.321Z" fill="#14E4EA"/>
<path d="M319.407 174.373C319.407 175.303 318.653 176.057 317.723 176.057C316.793 176.057 316.039 175.303 316.039 174.373C316.039 173.443 316.793 172.689 317.723 172.689C318.653 172.689 319.407 173.443 319.407 174.373Z" fill="#14E4EA"/>
<path d="M324.961 174.373C324.961 175.303 324.208 176.057 323.278 176.057C322.347 176.057 321.594 175.303 321.594 174.373C321.594 173.443 322.347 172.689 323.278 172.689C324.208 172.689 324.961 173.443 324.961 174.373Z" fill="#14E4EA"/>
<path d="M330.508 174.373C330.508 175.303 329.754 176.057 328.824 176.057C327.894 176.057 327.141 175.303 327.141 174.373C327.141 173.443 327.894 172.689 328.824 172.689C329.754 172.689 330.508 173.443 330.508 174.373Z" fill="#14E4EA"/>
<path d="M336.063 174.373C336.063 175.303 335.309 176.057 334.379 176.057C333.449 176.057 332.695 175.303 332.695 174.373C332.695 173.443 333.449 172.689 334.379 172.689C335.309 172.689 336.063 173.443 336.063 174.373Z" fill="#14E4EA"/>
<path d="M341.61 174.373C341.61 175.303 340.856 176.057 339.926 176.057C338.996 176.057 338.242 175.303 338.242 174.373C338.242 173.443 338.996 172.689 339.926 172.689C340.856 172.689 341.61 173.443 341.61 174.373Z" fill="#14E4EA"/>
<path d="M313.813 162.586H312.844V176.058H313.813V162.586Z" fill="#434343"/>
<path d="M330.015 142.519H215.188V148.898H330.015V142.519Z" fill="#434343"/>
<path d="M216.339 324.153H203.516V336.976H216.339V324.153Z" fill="#434343"/>
<path d="M22.1719 191.339V179.192H24.0878V191.339H22.1719Z" fill="#434343"/>
<path d="M28.744 182.785V191.339H26.8281V179.192H28.333L35.2791 187.951V179.209H37.2119V191.339H35.6209L28.744 182.785Z" fill="#434343"/>
<path d="M48.861 180.886H44.8233V191.339H42.8905V180.886H38.8359V179.192H48.861V180.886Z" fill="#434343"/>
<path d="M58.8155 189.645V191.339H50.4844V179.192H58.6619V180.886H52.4003V184.341H57.823V185.932H52.4003V189.644L58.8155 189.645Z" fill="#434343"/>
<path d="M60.8047 191.339V179.192H66.0907C66.6384 179.192 67.1431 179.306 67.6048 179.534C68.0673 179.762 68.4631 180.061 68.794 180.432C69.1248 180.802 69.3839 181.224 69.5722 181.698C69.7604 182.171 69.8549 182.653 69.8549 183.144C69.8549 183.554 69.7975 183.948 69.6836 184.324C69.5696 184.7 69.4101 185.049 69.2042 185.368C68.9991 185.687 68.7476 185.964 68.4513 186.197C68.1551 186.431 67.8293 186.606 67.4765 186.719L70.3334 191.338H68.161L65.526 187.112H62.7206V191.338H60.8047V191.339ZM62.7206 185.419H66.0738C66.3472 185.419 66.5954 185.359 66.8182 185.239C67.041 185.12 67.2317 184.955 67.3913 184.743C67.5508 184.532 67.6765 184.29 67.7677 184.016C67.8588 183.743 67.9044 183.452 67.9044 183.144C67.9044 182.836 67.8504 182.545 67.7415 182.271C67.6335 181.998 67.4909 181.758 67.3145 181.553C67.1372 181.348 66.9321 181.185 66.6983 181.066C66.4645 180.946 66.2223 180.886 65.9717 180.886H62.7214L62.7206 185.419Z" fill="#434343"/>
<path d="M74.0253 182.785V191.339H72.1094V179.192H73.6151L80.5612 187.951V179.209H82.494V191.339H80.903L74.0253 182.785Z" fill="#434343"/>
<path d="M88.8087 179.192H90.4857L95.2754 191.339H93.2566L91.9737 188.037H87.2861L86.0201 191.339H83.9844L88.8087 179.192ZM91.5972 186.617L89.6468 181.399L87.6279 186.617H91.5972Z" fill="#434343"/>
<path d="M96.7812 191.339V179.192H98.6971V189.645H105.215V191.339H96.7812Z" fill="#434343"/>
<path d="M117.716 182.049C117.602 181.923 117.437 181.79 117.22 181.646C117.003 181.504 116.75 181.371 116.458 181.244C116.167 181.119 115.848 181.016 115.501 180.936C115.153 180.856 114.797 180.816 114.432 180.816C113.622 180.816 113.026 180.965 112.644 181.261C112.262 181.558 112.071 181.968 112.071 182.493C112.071 182.79 112.131 183.032 112.251 183.22C112.371 183.408 112.557 183.573 112.807 183.716C113.058 183.859 113.372 183.984 113.748 184.092C114.125 184.201 114.564 184.318 115.066 184.443C115.682 184.591 116.237 184.757 116.734 184.939C117.23 185.121 117.649 185.344 117.991 185.606C118.333 185.868 118.599 186.191 118.787 186.573C118.975 186.955 119.069 187.419 119.069 187.967C119.069 188.583 118.952 189.113 118.719 189.558C118.485 190.003 118.165 190.365 117.761 190.644C117.356 190.924 116.886 191.129 116.35 191.261C115.814 191.391 115.238 191.457 114.622 191.457C113.698 191.457 112.806 191.318 111.945 191.038C111.083 190.758 110.305 190.351 109.609 189.815L110.482 188.172C110.63 188.321 110.844 188.486 111.124 188.669C111.403 188.851 111.728 189.02 112.098 189.173C112.469 189.327 112.871 189.459 113.304 189.567C113.737 189.675 114.188 189.729 114.656 189.729C115.409 189.729 115.99 189.599 116.401 189.335C116.812 189.074 117.017 188.685 117.017 188.172C117.017 187.864 116.94 187.608 116.786 187.403C116.632 187.197 116.412 187.018 116.128 186.863C115.842 186.71 115.495 186.57 115.084 186.444C114.673 186.318 114.205 186.187 113.681 186.05C113.076 185.891 112.548 185.722 112.098 185.546C111.648 185.369 111.274 185.155 110.978 184.904C110.681 184.653 110.456 184.36 110.302 184.023C110.148 183.687 110.071 183.279 110.071 182.8C110.071 182.207 110.185 181.679 110.413 181.218C110.641 180.756 110.951 180.369 111.345 180.055C111.739 179.742 112.203 179.504 112.739 179.345C113.275 179.185 113.856 179.105 114.484 179.105C115.306 179.105 116.063 179.237 116.76 179.499C117.455 179.761 118.065 180.086 118.59 180.474L117.716 182.049Z" fill="#434343"/>
<path d="M129.316 189.645V191.339H120.984V179.192H129.162V180.886H122.9V184.341H128.324V185.932H122.9V189.644L129.316 189.645Z" fill="#434343"/>
<path d="M131.305 191.339V179.192H136.591C137.138 179.192 137.643 179.306 138.105 179.534C138.567 179.762 138.963 180.061 139.294 180.432C139.625 180.802 139.884 181.224 140.072 181.698C140.26 182.171 140.355 182.653 140.355 183.144C140.355 183.554 140.298 183.948 140.184 184.324C140.07 184.7 139.91 185.049 139.704 185.368C139.499 185.687 139.248 185.964 138.951 186.197C138.655 186.431 138.329 186.606 137.977 186.719L140.833 191.338H138.661L136.026 187.112H133.221V191.338H131.305V191.339ZM133.221 185.419H136.574C136.847 185.419 137.095 185.359 137.318 185.239C137.541 185.12 137.732 184.955 137.891 184.743C138.051 184.532 138.177 184.29 138.268 184.016C138.359 183.743 138.404 183.452 138.404 183.144C138.404 182.836 138.35 182.545 138.242 182.271C138.133 181.998 137.99 181.758 137.814 181.553C137.636 181.348 137.431 181.185 137.197 181.066C136.964 180.946 136.721 180.886 136.47 180.886H133.22V185.419H133.221Z" fill="#434343"/>
<path d="M143.091 179.192L146.753 188.926L150.396 179.192H152.432L147.573 191.339H145.93L141.055 179.192H143.091Z" fill="#434343"/>
<path d="M162.253 189.645V191.339H153.922V179.192H162.099V180.886H155.838V184.341H161.26V185.932H155.838V189.644L162.253 189.645Z" fill="#434343"/>
<path d="M164.234 191.339V179.192H169.52C170.068 179.192 170.573 179.306 171.034 179.534C171.497 179.762 171.893 180.061 172.224 180.432C172.554 180.802 172.814 181.224 173.002 181.698C173.19 182.171 173.285 182.653 173.285 183.144C173.285 183.554 173.227 183.948 173.113 184.324C172.999 184.7 172.84 185.049 172.635 185.368C172.429 185.687 172.178 185.964 171.882 186.197C171.586 186.431 171.26 186.606 170.907 186.719L173.764 191.338H171.592L168.957 187.112H166.151V191.338H164.234V191.339ZM166.15 185.419H169.503C169.777 185.419 170.025 185.359 170.248 185.239C170.471 185.12 170.661 184.955 170.821 184.743C170.98 184.532 171.106 184.29 171.197 184.016C171.289 183.743 171.334 183.452 171.334 183.144C171.334 182.836 171.28 182.545 171.171 182.271C171.063 181.998 170.92 181.758 170.743 181.553C170.566 181.348 170.361 181.185 170.127 181.066C169.893 180.946 169.651 180.886 169.4 180.886H166.149V185.419H166.15Z" fill="#434343"/>
<path d="M80.4746 207.531V209.995H71.9375V197.849H80.3201V200.312H74.743V202.674H79.5327V204.949H74.743V207.533H80.4746V207.531Z" fill="#434343"/>
<path d="M82.1875 209.995V197.849H87.6617C88.2314 197.849 88.7597 197.969 89.2442 198.207C89.7286 198.447 90.1473 198.761 90.5017 199.149C90.8545 199.536 91.1314 199.976 91.3314 200.466C91.5306 200.956 91.631 201.453 91.631 201.954C91.631 202.33 91.5854 202.692 91.4943 203.04C91.4031 203.388 91.2715 203.715 91.101 204.023C90.9297 204.332 90.7212 204.608 90.4764 204.853C90.2317 205.099 89.9548 205.306 89.6468 205.478L92.3155 209.995H89.1505L86.8244 206.077H84.9938V209.995H82.1875ZM84.9938 203.631H87.5596C87.8904 203.631 88.1757 203.474 88.4145 203.16C88.6542 202.846 88.7741 202.444 88.7741 201.954C88.7741 201.453 88.6374 201.053 88.3639 200.756C88.0904 200.46 87.7934 200.312 87.4743 200.312H84.9938V203.631Z" fill="#434343"/>
<path d="M93.6484 209.995V197.849H99.1226C99.6932 197.849 100.221 197.969 100.705 198.207C101.19 198.447 101.609 198.761 101.963 199.149C102.315 199.536 102.592 199.976 102.792 200.466C102.992 200.956 103.092 201.453 103.092 201.954C103.092 202.33 103.046 202.692 102.955 203.04C102.864 203.388 102.732 203.715 102.562 204.023C102.391 204.332 102.182 204.608 101.937 204.853C101.693 205.099 101.416 205.306 101.108 205.478L103.776 209.995H100.611L98.2854 206.077H96.4547V209.995H93.6484ZM96.4547 203.631H99.0205C99.3513 203.631 99.6366 203.474 99.8755 203.16C100.115 202.846 100.235 202.444 100.235 201.954C100.235 201.453 100.098 201.053 99.824 200.756C99.5505 200.46 99.2534 200.312 98.9344 200.312H96.4539V203.631H96.4547Z" fill="#434343"/>
<path d="M110.429 210.097C109.528 210.097 108.706 209.92 107.965 209.567C107.224 209.214 106.591 208.749 106.066 208.173C105.541 207.597 105.134 206.938 104.843 206.197C104.552 205.455 104.406 204.691 104.406 203.904C104.406 203.106 104.557 202.336 104.859 201.595C105.162 200.854 105.584 200.201 106.125 199.636C106.667 199.072 107.309 198.621 108.051 198.285C108.792 197.949 109.602 197.78 110.48 197.78C111.38 197.78 112.201 197.957 112.943 198.31C113.684 198.664 114.317 199.132 114.842 199.713C115.366 200.295 115.772 200.956 116.057 201.697C116.342 202.438 116.485 203.191 116.485 203.956C116.485 204.754 116.333 205.524 116.032 206.265C115.729 207.006 115.31 207.659 114.774 208.224C114.237 208.789 113.599 209.242 112.858 209.584C112.117 209.926 111.307 210.097 110.429 210.097ZM107.264 203.938C107.264 204.406 107.332 204.859 107.469 205.299C107.606 205.738 107.808 206.128 108.077 206.47C108.344 206.812 108.678 207.086 109.078 207.291C109.477 207.497 109.933 207.599 110.446 207.599C110.982 207.599 111.449 207.491 111.849 207.275C112.248 207.058 112.579 206.776 112.84 206.428C113.103 206.08 113.299 205.687 113.43 205.247C113.561 204.808 113.627 204.36 113.627 203.904C113.627 203.437 113.559 202.984 113.422 202.544C113.285 202.105 113.08 201.717 112.806 201.381C112.532 201.045 112.198 200.777 111.805 200.577C111.411 200.377 110.958 200.277 110.444 200.277C109.908 200.277 109.444 200.382 109.05 200.593C108.657 200.804 108.326 201.081 108.058 201.423C107.79 201.765 107.591 202.156 107.46 202.595C107.329 203.035 107.264 203.482 107.264 203.938Z" fill="#434343"/>
<path d="M118.109 209.995V197.849H123.584C124.153 197.849 124.682 197.969 125.166 198.207C125.651 198.447 126.07 198.761 126.424 199.149C126.776 199.536 127.053 199.976 127.253 200.466C127.452 200.956 127.553 201.453 127.553 201.954C127.553 202.33 127.507 202.692 127.416 203.04C127.325 203.388 127.193 203.715 127.023 204.023C126.852 204.332 126.643 204.608 126.398 204.853C126.154 205.099 125.877 205.306 125.569 205.478L128.237 209.995H125.072L122.746 206.077H120.916V209.995H118.109ZM120.915 203.631H123.481C123.811 203.631 124.097 203.474 124.336 203.16C124.575 202.846 124.695 202.444 124.695 201.954C124.695 201.453 124.558 201.053 124.285 200.756C124.011 200.46 123.714 200.312 123.395 200.312H120.915V203.631Z" fill="#434343"/>
<path d="M38.8152 95.6058V114.352C40.12 112.494 41.9591 111.054 44.3341 110.031C45.5916 109.521 47.0594 109.265 48.7364 109.265C54.511 109.265 58.7741 111.286 61.523 115.328C63.8988 118.812 65.0872 123.737 65.0872 130.101V148.916C65.0872 155.374 63.0422 160.671 58.9547 164.805C55.052 168.801 50.1273 170.798 44.1813 170.798C38.4202 170.798 33.6347 168.707 29.8257 164.526C26.1552 160.531 24.3203 155.653 24.3203 149.892V147.801L36.9339 146.826L37.2133 149.823C37.5374 153.307 38.9553 155.63 41.4636 156.791C42.2064 157.163 42.9963 157.349 43.8328 157.349C49.2217 157.349 51.9166 154.538 51.9166 148.917V127.523C51.9166 124.969 50.9823 122.854 49.1137 121.182C48.2266 120.392 46.9885 119.997 45.4009 119.997C43.0656 119.997 41.337 120.902 40.2171 122.714C39.2828 124.294 38.8152 125.967 38.8152 127.732V130.101H25.6445V82.3651H64.1816V95.6058H38.8152Z" fill="#14E4EA"/>
<path d="M117.907 149.891C117.907 155.699 115.862 160.623 111.774 164.664C107.686 168.706 102.785 170.727 97.0708 170.727C91.2624 170.727 86.3267 168.695 82.262 164.629C78.1956 160.565 76.1641 155.652 76.1641 149.89V102.225C76.1641 96.4186 78.2082 91.4828 82.2966 87.4173C86.3841 83.3526 91.3088 81.3194 97.0699 81.3194C102.877 81.3194 107.801 83.3636 111.843 87.4511C115.884 91.5402 117.906 96.465 117.906 102.224V149.891H117.907ZM104.247 101.947C104.247 99.8562 103.505 98.0686 102.017 96.5806C100.53 95.0943 98.7419 94.3508 96.6513 94.3508C94.5607 94.3508 92.7841 95.0943 91.3198 96.5806C89.8563 98.0677 89.1245 99.8553 89.1245 101.947V149.682C89.1245 151.772 89.8563 153.562 91.3198 155.048C92.7833 156.535 94.5607 157.278 96.6513 157.278C98.7419 157.278 100.53 156.535 102.017 155.048C103.504 153.562 104.247 151.773 104.247 149.682V101.947Z" fill="#14E4EA"/>
<path d="M171.008 149.891C171.008 155.699 168.963 160.623 164.876 164.664C160.787 168.706 155.886 170.727 150.172 170.727C144.364 170.727 139.429 168.695 135.364 164.629C131.297 160.565 129.266 155.652 129.266 149.89V102.225C129.266 96.4186 131.31 91.4828 135.398 87.4173C139.486 83.3526 144.41 81.3194 150.172 81.3194C155.978 81.3194 160.903 83.3636 164.945 87.4511C168.987 91.5402 171.007 96.465 171.007 102.224V149.891H171.008ZM157.35 101.947C157.35 99.8562 156.606 98.0686 155.12 96.5806C153.633 95.0943 151.844 94.3508 149.754 94.3508C147.663 94.3508 145.887 95.0943 144.423 96.5806C142.96 98.0677 142.228 99.8553 142.228 101.947V149.682C142.228 151.772 142.96 153.562 144.423 155.048C145.887 156.535 147.664 157.278 149.754 157.278C151.843 157.278 153.632 156.535 155.12 155.048C156.606 153.562 157.35 151.773 157.35 149.682V101.947Z" fill="#14E4EA"/>
<path d="M28.0921 298.554H5.67969V320.966H28.0921V298.554Z" fill="#434343"/>
<path d="M16.8847 317.247C21.0193 317.247 24.371 313.895 24.371 309.761C24.371 305.626 21.0193 302.274 16.8847 302.274C12.7502 302.274 9.39844 305.626 9.39844 309.761C9.39844 313.895 12.7502 317.247 16.8847 317.247Z" fill="#434343"/>
<path d="M15.5119 306.737H13.8281V312.911H15.5119V306.737Z" fill="#434343"/>
<path d="M20.2072 306.737H18.5234V312.911H20.2072V306.737Z" fill="#434343"/>
<path d="M0.101562 355.824L45.0758 355.619L90.05 355.544L179.998 355.402L269.947 355.543L314.921 355.618L359.895 355.824L314.921 356.03L269.947 356.105L179.998 356.245L90.05 356.104L45.0758 356.029L0.101562 355.824Z" fill="#434343"/>
<path d="M77.0982 334.667C77.9144 336.452 74.6953 349.273 73.6851 351.904C72.6748 354.535 69.1367 369.232 67.4133 369.867C65.6898 370.503 57.3435 370.32 56.1636 369.867C54.9846 369.413 56.1636 366.905 57.5241 366.028C58.8847 365.15 60.506 363.803 60.506 363.803C60.506 363.803 58.0685 341.109 58.5226 338.568C58.9758 336.028 74.8987 329.859 77.0982 334.667Z" fill="#14E4EA"/>
<path opacity="0.1" d="M77.0982 334.667C77.9144 336.452 74.6953 349.273 73.6851 351.904C72.6748 354.535 69.1367 369.232 67.4133 369.867C65.6898 370.503 57.3435 370.32 56.1636 369.867C54.9846 369.413 56.1636 366.905 57.5241 366.028C58.8847 365.15 60.506 363.803 60.506 363.803C60.506 363.803 58.0685 341.109 58.5226 338.568C58.9758 336.028 74.8987 329.859 77.0982 334.667Z" fill="#434343"/>
<path opacity="0.1" d="M59.6439 368.879C59.7359 368.436 59.9207 367.991 60.1891 367.624C60.46 367.252 60.7824 366.926 61.1504 366.65C61.4923 366.393 61.9202 366.147 62.3464 366.069C62.4021 366.059 62.446 366.126 62.4012 366.169C62.2527 366.308 62.0839 366.423 61.937 366.569C61.7893 366.716 61.6383 366.861 61.4973 367.014C61.2213 367.31 60.9884 367.642 60.7833 367.991C60.5765 368.343 60.3765 368.696 60.1976 369.063C60.0169 369.435 59.9114 369.834 59.7697 370.22C59.7418 370.296 59.6253 370.302 59.6051 370.216C59.4996 369.775 59.5527 369.317 59.6439 368.879Z" fill="#434343"/>
<path opacity="0.1" d="M57.2001 367.541C57.6398 366.722 58.4061 366.138 59.2383 365.763C59.2907 365.739 59.3497 365.806 59.3008 365.848C58.6855 366.382 58.0787 366.953 57.6845 367.677C57.2929 368.396 57.0887 369.291 57.363 370.084C57.3756 370.121 57.3233 370.135 57.3039 370.107C56.7747 369.35 56.7688 368.346 57.2001 367.541Z" fill="#434343"/>
<path opacity="0.1" d="M59.2502 351.08L70.7201 361.933C71.9861 357.772 73.1677 353.249 73.6826 351.907C74.6954 349.273 77.911 336.453 77.1007 334.664C74.8979 329.861 58.9716 336.031 58.5243 338.571C58.3133 339.77 58.7353 345.425 59.2502 351.08Z" fill="#434343"/>
<path d="M120.414 347.493C120.88 347.934 125.393 343.662 126.087 341.661C126.78 339.66 123.89 334.013 124.426 333.053C124.96 332.094 127.42 331.321 128.695 332.798C129.97 334.276 133.242 342.372 132.56 345.832C131.878 349.293 124.913 357.026 124.186 356.986C123.458 356.946 120.414 347.493 120.414 347.493Z" fill="#14E4EA"/>
<path opacity="0.1" d="M120.414 347.495C120.414 347.495 123.459 356.944 124.183 356.986C124.715 357.013 128.58 352.889 130.887 349.318L124.565 343.986C122.975 345.87 120.735 347.796 120.414 347.495Z" fill="#434343"/>
<path d="M94.9084 308.448H57.4323C57.4323 308.448 54.6505 333.124 54.9526 336.391C55.2548 339.657 71.7263 363.856 76.8342 366.978C82.0172 370.146 111.294 370.253 118.435 368.681C123.987 367.46 128.622 360.373 126.316 349.454C125.308 344.682 112.3 333.306 110.485 331.128C108.671 328.952 94.9084 308.448 94.9084 308.448Z" fill="white"/>
<path d="M54.953 336.394C55.2568 339.66 71.7233 363.858 76.8379 366.98C82.0201 370.145 111.29 370.255 118.439 368.685C123.984 367.461 128.626 360.372 126.313 349.45C125.309 344.682 112.303 333.305 110.488 331.127C109.374 329.794 103.787 321.59 99.6175 315.429C96.9757 311.53 94.9079 308.449 94.9079 308.449H57.4343C57.4343 308.449 56.7338 314.644 56.0755 321.236C55.4172 327.802 54.8011 334.765 54.953 336.394Z" fill="#14E4EA"/>
<path opacity="0.1" d="M56.0781 321.236C76.216 327.448 94.1256 318.611 99.6201 315.429C96.9784 311.53 94.9106 308.449 94.9106 308.449H57.437C57.437 308.449 56.7364 314.644 56.0781 321.236Z" fill="#434343"/>
<path d="M119.155 348.264C119.155 348.264 108.838 341.793 101.607 342.962C94.3744 344.132 91.8221 358.984 95.2867 367.341C95.2867 367.341 88.6875 369.301 88.6875 372.489C88.6875 374.305 92.4568 374.884 97.8981 374.755C103.34 374.627 114.151 374.517 114.391 373.15C114.63 371.783 113.678 369.9 113.678 369.9C113.678 369.9 123.44 368.799 125.356 362.333C127.272 355.868 120.783 349.36 119.155 348.264Z" fill="#14E4EA"/>
<path opacity="0.1" d="M105.074 368.074C107.807 369.248 110.796 369.813 113.755 370.003C113.811 370.006 113.829 370.101 113.766 370.108C110.701 370.456 107.701 369.684 105.041 368.146C105.003 368.124 105.032 368.055 105.074 368.074Z" fill="#434343"/>
<path opacity="0.1" d="M92.933 374.794C93.2039 373.56 94.1678 372.585 95.1789 371.889C95.7655 371.486 96.412 371.16 97.0863 370.93C97.8586 370.665 98.6604 370.524 99.4369 370.281C99.501 370.26 99.5466 370.356 99.4816 370.378C98.8115 370.602 98.1633 370.944 97.5396 371.272C96.9133 371.602 96.2989 371.961 95.7131 372.359C94.7012 373.046 93.9323 373.934 93.1887 374.891C93.1094 374.993 92.9009 374.942 92.933 374.794Z" fill="#434343"/>
<path opacity="0.1" d="M94.2684 369.674C94.3368 369.664 94.3588 369.754 94.2946 369.778C92.3002 370.512 90.711 372.27 89.8526 374.182C89.8163 374.263 89.6678 374.263 89.6805 374.154C89.9463 371.783 91.9618 370.01 94.2684 369.674Z" fill="#434343"/>
<path opacity="0.1" d="M91.0469 369.209C91.0215 369.226 91.0638 369.259 91.0891 369.251C91.2579 369.217 93.1062 367.976 95.1487 367.386C95.3175 367.681 95.4948 367.976 95.6889 368.263C95.7226 368.322 95.8155 368.272 95.7817 368.213C94.4988 365.639 93.984 362.735 93.9756 359.874C93.9671 358.355 94.0853 356.819 94.2456 355.308C94.2372 355.3 94.2372 355.291 94.2456 355.283C94.6339 352.616 95.4019 350.008 96.6932 347.67C97.4782 346.218 98.4909 344.817 99.8751 344.007C101.259 343.205 102.989 343.078 104.644 343.146C106.323 343.23 107.994 343.593 109.623 344.066C111.261 344.513 112.873 345.104 114.451 345.771C111.438 344.15 108.172 342.876 104.694 342.505C102.964 342.336 101.116 342.454 99.4953 343.34C97.8917 344.26 96.8029 345.745 95.9505 347.256C94.3131 350.362 93.5029 353.823 93.3594 357.283C93.3426 357.68 93.3257 358.085 93.3257 358.481C93.3257 358.49 93.3257 358.49 93.3257 358.498C93.3003 359.03 93.2919 359.553 93.3088 360.085C93.3763 362.583 93.8827 365.09 95.0896 367.284C93.2581 367.656 92.1947 368.179 91.0469 369.209Z" fill="#434343"/>
<path d="M89.2076 337.842C90.0237 339.627 86.8047 352.449 85.7944 355.079C84.7842 357.71 81.2461 372.407 79.5227 373.042C77.7992 373.677 69.4521 373.495 68.273 373.042C67.0939 372.588 68.273 370.081 69.6335 369.203C70.9941 368.325 72.6154 366.978 72.6154 366.978C72.6154 366.978 70.1779 344.284 70.632 341.743C71.0852 339.203 87.0081 333.034 89.2076 337.842Z" fill="#14E4EA"/>
<path opacity="0.1" d="M83.5819 362.201C84.3508 359.886 85.356 357.649 86.1249 355.339C86.1553 355.247 86.3021 355.29 86.2726 355.383C85.6801 357.243 85.2268 359.145 84.6757 361.02C84.7559 360.893 84.831 360.763 84.9129 360.637C85.3956 359.891 85.9907 359.157 86.2396 358.297C86.2666 358.203 86.4127 358.247 86.3873 358.34C86.2768 358.743 86.0843 359.104 85.8885 359.471C85.6674 359.885 85.4421 360.297 85.2184 360.71C84.9281 361.246 84.6141 361.773 84.2866 362.291C84.2748 362.328 84.2655 362.364 84.2537 362.399C83.4823 364.722 82.7185 367.029 81.6947 369.255C81.6407 369.372 81.466 369.327 81.4955 369.196C82.0298 366.817 82.8122 364.519 83.5819 362.201Z" fill="#434343"/>
<path opacity="0.1" d="M70.3183 345.368C70.3208 345.319 70.4128 345.305 70.4204 345.358C70.6635 347.079 70.7682 348.819 70.942 350.547C71.1226 352.344 71.3421 354.137 71.5404 355.932C71.9337 359.504 72.5313 363.061 72.8165 366.641C72.8284 366.793 72.5566 366.813 72.5178 366.67C71.575 363.217 71.1581 359.666 70.7859 356.134C70.601 354.382 70.4896 352.623 70.4052 350.865C70.3166 349.041 70.212 347.192 70.3183 345.368Z" fill="#434343"/>
<path opacity="0.1" d="M71.3468 371.875C71.4388 371.431 71.6236 370.987 71.892 370.62C72.1629 370.248 72.4862 369.921 72.8533 369.646C73.1951 369.389 73.6231 369.144 74.0493 369.065C74.105 369.055 74.1489 369.123 74.1041 369.165C73.9556 369.304 73.7859 369.42 73.6399 369.566C73.4922 369.713 73.342 369.858 73.2002 370.01C72.9242 370.307 72.6904 370.638 72.4862 370.987C72.2794 371.339 72.0794 371.693 71.9004 372.06C71.7198 372.431 71.6135 372.83 71.4725 373.216C71.4447 373.292 71.3282 373.298 71.308 373.212C71.2025 372.772 71.2565 372.314 71.3468 371.875Z" fill="#434343"/>
<path opacity="0.1" d="M68.9038 370.538C69.3436 369.719 70.1099 369.135 70.9421 368.76C70.9944 368.736 71.0535 368.803 71.0045 368.845C70.3893 369.379 69.7816 369.951 69.3883 370.674C68.9967 371.393 68.7924 372.288 69.0667 373.081C69.0794 373.118 69.0271 373.132 69.0076 373.104C68.4776 372.347 68.4717 371.343 68.9038 370.538Z" fill="#434343"/>
<path d="M71.7762 274.136C72.1813 272.657 68.488 267.42 67.0794 265.658C65.6707 263.897 57.9101 261.253 55.4322 262.61C54.459 263.142 52.652 266.869 50.212 270.107C46.4368 275.117 42.0244 280.373 43.6271 281.788C47.518 285.221 56.3817 279.806 59.258 277.987C62.1352 276.167 64.766 273.954 65.4665 274.032C66.3915 274.135 68.3395 275.6 69.1159 275.687C70.966 275.892 71.7762 274.136 71.7762 274.136Z" fill="#14E4EA"/>
<path opacity="0.1" d="M71.7762 274.136C72.1813 272.657 68.488 267.42 67.0794 265.658C65.6707 263.897 57.9101 261.253 55.4322 262.61C54.459 263.142 52.652 266.869 50.212 270.107C46.4368 275.117 42.0244 280.373 43.6271 281.788C47.518 285.221 56.3817 279.806 59.258 277.987C62.1352 276.167 64.766 273.954 65.4665 274.032C66.3915 274.135 68.3395 275.6 69.1159 275.687C70.966 275.892 71.7762 274.136 71.7762 274.136Z" fill="#434343"/>
<path d="M89.6461 268.892C98.6997 274.305 102.719 288.71 102.964 291.01C103.163 292.887 107.481 299.531 106.709 306.681C106.213 311.278 97.9604 317.38 91.2413 317.32C90.0048 317.309 79.546 321.102 70.7169 320.491C61.8878 319.881 55.1915 313.616 54.9307 313.084C54.6708 312.551 47.512 311.517 47.0621 304.135C46.3439 292.349 58.3709 272.268 61.8118 269.524C67.5063 264.981 83.4951 265.214 89.6461 268.892Z" fill="#14E4EA"/>
<path d="M85.3876 275.104C85.2128 273.502 89.9156 268.682 91.6703 267.087C93.425 265.494 101.917 264.04 104.264 265.859C105.184 266.573 106.441 270.741 108.435 274.506C111.519 280.332 115.225 286.52 113.326 287.722C108.718 290.639 100.421 283.546 97.7378 281.179C95.0547 278.813 92.6924 276.08 91.953 276.044C90.9765 275.996 88.7112 277.193 87.8909 277.154C85.9362 277.061 85.3876 275.104 85.3876 275.104Z" fill="#14E4EA"/>
<path opacity="0.1" d="M85.3876 275.104C85.2128 273.502 89.9156 268.682 91.6703 267.087C93.425 265.494 101.917 264.04 104.264 265.859C105.184 266.573 106.441 270.741 108.435 274.506C111.519 280.332 115.225 286.52 113.326 287.722C108.718 290.639 100.421 283.546 97.7378 281.179C95.0547 278.813 92.6924 276.08 91.953 276.044C90.9765 275.996 88.7112 277.193 87.8909 277.154C85.9362 277.061 85.3876 275.104 85.3876 275.104Z" fill="#434343"/>
<path opacity="0.1" d="M68.8419 295.34C74.3971 295.39 76.9249 301.339 77.595 302.888C78.266 304.438 81.6901 307.987 81.7804 311.691C81.8707 315.395 74.8326 319.536 67.4003 318.228C60.0044 316.926 56.0831 312.755 56.1253 308.99C56.1591 305.96 59.016 303.337 59.3317 302.538C59.6482 301.738 63.7804 295.295 68.8419 295.34Z" fill="#434343"/>
<path opacity="0.1" d="M82.5 305.791C83.2393 306.632 83.8639 307.574 84.3636 308.584C84.8657 309.593 85.259 310.67 85.4523 311.81C85.6287 312.94 85.6177 314.179 85.0902 315.269C84.837 315.81 84.4581 316.286 84.0116 316.659C83.544 317.01 83.0359 317.276 82.5 317.438C83.4326 316.816 84.1618 315.991 84.4817 315.017C84.8151 314.05 84.7948 312.984 84.621 311.945C84.4606 310.898 84.1255 309.868 83.7626 308.843C83.3786 307.825 82.9642 306.807 82.5 305.791Z" fill="#434343"/>
<path opacity="0.1" d="M57.0525 303.571C56.5706 304.167 56.1157 304.748 55.6954 305.342C55.2869 305.94 54.8894 306.539 54.6235 307.185C54.3399 307.821 54.172 308.487 54.134 309.175C54.1044 309.871 54.2952 310.555 54.5264 311.294C54.0006 310.75 53.5753 310.029 53.4765 309.214C53.3718 308.404 53.539 307.578 53.8521 306.844C54.1753 306.11 54.6497 305.47 55.1932 304.919C55.7367 304.371 56.352 303.893 57.0525 303.571Z" fill="#434343"/>
<path d="M143.817 383.055C134.722 383.055 124.689 382.901 114.606 382.714C109.407 382.617 105.3 382.541 102.737 382.541C89.6339 382.541 85.863 365.698 82.216 349.409C81.7071 347.14 81.1982 344.867 80.6656 342.635C79.6249 338.279 78.7658 333.875 77.9344 329.617C75.3644 316.445 73.1447 305.069 67.3414 304.447C59.6728 303.631 52.844 315.1 50.3508 333.002L48.6797 332.77C51.3079 313.901 58.8744 301.832 67.5211 302.769C74.5635 303.524 76.8929 315.466 79.5912 329.294C80.4192 333.535 81.275 337.922 82.308 342.244C82.8431 344.483 83.3537 346.763 83.8644 349.042C87.5273 365.401 90.9869 380.853 102.738 380.853C105.317 380.853 109.431 380.93 114.638 381.026C126.047 381.24 141.672 381.53 154.9 381.27C176.352 380.851 178.891 379.157 179.159 378.648C179.147 375.136 156.504 370.91 147.981 369.319C139.364 367.711 139.028 367.648 139.125 366.591C139.213 365.642 140.267 365.642 141.863 365.642H177.263C188.367 365.642 191.944 349.668 194.082 340.125C194.696 337.387 195.18 335.223 195.715 334.109C198.196 328.941 204.473 329.696 204.738 329.73L204.52 331.403C204.301 331.377 199.184 330.78 197.236 334.839C196.785 335.78 196.295 337.965 195.729 340.494C193.481 350.531 189.718 367.33 177.263 367.33H146.525C147.101 367.438 147.693 367.549 148.29 367.66C168.902 371.508 180.835 374.549 180.835 378.71C180.835 379.015 180.74 379.472 180.29 379.914C177.776 382.378 162.864 383.055 143.817 383.055Z" fill="#434343"/>
<path d="M54.8794 331.775L44.5312 331.155L44.1595 337.36L54.5077 337.98L54.8794 331.775Z" fill="#434343"/>
<path d="M53.0497 329.691L46.5938 329.304L46.4758 331.272L52.9318 331.659L53.0497 329.691Z" fill="#434343"/>
<path d="M47.5846 337.567L46.3672 337.494L46.0835 342.229L47.3009 342.302L47.5846 337.567Z" fill="#14E4EA"/>
<path d="M52.2643 337.847L51.0469 337.774L50.7632 342.51L51.9806 342.583L52.2643 337.847Z" fill="#14E4EA"/>
<path d="M207.883 325.381V335.748H212.412V325.381H207.883Z" fill="#434343"/>
<path d="M204.227 327.331V333.798H207.886V327.331H204.227Z" fill="#434343"/>
<path d="M61.7969 304.348C61.7969 304.348 63.9997 306.896 64.853 306.358C65.7063 305.821 67.8408 300.797 67.8408 300.797C67.8408 300.797 68.3497 307.182 69.998 307.358C71.6472 307.533 74.4602 305.014 74.4602 305.014L67.8053 300.394L61.7969 304.348Z" fill="#14E4EA"/>
<path opacity="0.1" d="M61.7969 304.348C61.7969 304.348 63.9997 306.896 64.853 306.358C65.7063 305.821 67.8408 300.797 67.8408 300.797C67.8408 300.797 68.3497 307.182 69.998 307.358C71.6472 307.533 74.4602 305.014 74.4602 305.014L67.8053 300.394L61.7969 304.348Z" fill="#434343"/>
<path opacity="0.1" d="M94.4573 296.423C95.1098 294.397 95.3427 292.231 95.1368 290.057C95.0414 288.969 94.7848 287.88 94.3654 286.827C94.1577 286.3 93.8809 285.794 93.5568 285.314C93.2378 284.831 92.8571 284.381 92.4241 283.982C92.2115 283.777 91.9735 283.603 91.7363 283.428C91.4957 283.263 91.2425 283.127 90.9944 282.979L90.618 282.767L90.2179 282.602C89.9479 282.503 89.6913 282.365 89.4102 282.303C88.308 281.973 87.1576 281.882 86.0511 281.984C83.8322 282.179 81.7636 283.042 80.0781 284.336C82.0691 283.629 84.1108 283.178 86.0933 283.227C87.0766 283.278 88.0505 283.384 88.9393 283.737C89.1672 283.806 89.3739 283.927 89.5925 284.016L89.9166 284.16L90.2179 284.349C90.4163 284.475 90.629 284.587 90.8189 284.72C91.002 284.859 91.186 284.997 91.3514 285.158C92.0469 285.763 92.5803 286.561 92.9896 287.433C93.4226 288.3 93.6868 289.265 93.9138 290.247C94.3257 292.227 94.4573 294.306 94.4573 296.423Z" fill="#434343"/>
<path opacity="0.1" d="M53.2872 292.111C53.4222 290.308 53.6721 288.552 54.1742 286.919C54.684 285.297 55.4951 283.809 56.7484 282.9C57.054 282.666 57.4 282.482 57.7435 282.316C58.0685 282.175 58.428 282.072 58.8112 282.019C59.5784 281.91 60.4122 281.962 61.252 282.073C62.9358 282.331 64.6381 282.839 66.365 283.395C65.6763 282.791 64.8998 282.307 64.0963 281.864C63.6895 281.652 63.2742 281.453 62.8472 281.271C62.4167 281.1 61.977 280.944 61.5238 280.814C60.6182 280.556 59.6518 280.405 58.6365 280.492C58.1309 280.539 57.6118 280.649 57.1156 280.863C56.6497 281.073 56.2007 281.311 55.7998 281.628C54.9786 282.233 54.343 283.05 53.8898 283.916C53.434 284.786 53.1589 285.713 53.0028 286.639C52.6964 288.492 52.7943 290.36 53.2872 292.111Z" fill="#434343"/>
<path d="M80.708 293.771C80.7342 293.675 80.9207 293.901 80.9131 294.006C80.7131 296.548 80.9545 299.494 83.4443 300.45C83.5211 300.48 83.5076 300.607 83.4147 300.591C80.3493 300.061 80.0725 296.148 80.708 293.771Z" fill="#434343"/>
<path d="M83.3183 291.22C87.8244 291.104 87.8177 299.335 83.6432 299.442C79.5363 299.547 79.5422 291.317 83.3183 291.22Z" fill="#434343"/>
<path d="M63.2945 291.774C63.2827 291.675 63.0658 291.873 63.059 291.978C62.9029 294.523 62.253 297.407 59.6543 298.006C59.5741 298.025 59.5699 298.153 59.6636 298.15C62.7737 298.054 63.5933 294.217 63.2945 291.774Z" fill="#434343"/>
<path d="M61.0661 288.884C56.6207 288.142 55.4796 296.293 59.5975 296.981C63.6504 297.658 64.7915 289.506 61.0661 288.884Z" fill="#434343"/>
<path d="M67.6692 300.567C68.4676 300.827 74.0279 299.068 73.605 297.383C73.1467 295.56 65.3279 295.131 64.3455 296.315C63.3631 297.498 66.8328 300.294 67.6692 300.567Z" fill="#434343"/>
<path d="M74.601 304.925C73.7063 305.573 72.7872 306.209 71.7719 306.693C71.2773 306.929 70.7127 307.141 70.2375 307.131C69.9193 307.194 69.6501 306.756 69.4669 306.347C69.0989 305.503 68.9217 304.57 68.7597 303.652C68.5942 302.73 68.4972 301.792 68.4026 300.868L68.1393 298.301L67.3704 300.795C67.1341 301.562 66.8564 302.333 66.5779 303.095C66.2851 303.853 65.9778 304.613 65.5845 305.325C65.4849 305.502 65.3761 305.674 65.2554 305.833C65.1389 305.991 65.003 306.149 64.868 306.234C64.7726 306.308 64.6004 306.311 64.3987 306.283C64.2021 306.229 63.9902 306.152 63.7961 306.034C63.0103 305.567 62.3773 304.898 61.7891 304.236C62.1992 304.98 62.6921 305.709 63.483 306.316C63.6779 306.471 63.9261 306.6 64.2139 306.699C64.3742 306.73 64.5295 306.779 64.7127 306.764C64.8764 306.777 65.1136 306.718 65.2495 306.641C65.5398 306.488 65.7086 306.31 65.874 306.133C66.0335 305.954 66.1703 305.772 66.296 305.587C66.8016 304.85 67.1662 304.086 67.5038 303.318C67.8473 302.549 68.1267 301.774 68.3891 300.983L67.3569 300.91C67.4202 301.869 67.5662 302.81 67.7452 303.759C67.8329 304.232 67.957 304.703 68.098 305.174C68.2465 305.644 68.3993 306.117 68.6584 306.581C68.79 306.813 68.9302 307.046 69.1555 307.273C69.2745 307.386 69.4062 307.5 69.6096 307.591C69.71 307.637 69.8231 307.673 69.9556 307.688C70.0923 307.712 70.1607 307.689 70.2662 307.69C71.0376 307.63 71.5778 307.325 72.0876 307.037C73.0801 306.425 73.8937 305.702 74.601 304.925Z" fill="#434343"/>
<path d="M32.2188 334.135C33.9042 334 35.5762 334.056 37.2456 334.16C38.9134 334.282 40.5777 334.453 42.2294 334.817C40.544 334.952 38.872 334.896 37.2026 334.791C35.5348 334.668 33.8696 334.497 32.2188 334.135Z" fill="#434343"/>
<path d="M56.5156 339.473C58.1192 340.003 59.6367 340.703 61.1323 341.447C62.6194 342.207 64.0855 343.01 65.4646 343.986C63.8601 343.457 62.3434 342.756 60.8479 342.012C59.3608 341.25 57.8956 340.448 56.5156 339.473Z" fill="#434343"/>
<path d="M37.5781 351.078C38.3841 349.592 39.3438 348.221 40.3405 346.878C41.3525 345.547 42.4033 344.245 43.6085 343.059C42.8033 344.546 41.8445 345.917 40.8461 347.259C39.8333 348.589 38.7825 349.891 37.5781 351.078Z" fill="#434343"/>
<path d="M28.0938 324.151C29.396 324.566 30.6705 325.046 31.9415 325.533C33.2151 326.015 34.4693 326.543 35.7227 327.071C36.9709 327.613 38.2184 328.156 39.4464 328.744C40.6769 329.326 41.9041 329.917 43.1026 330.574C41.8003 330.159 40.525 329.68 39.2548 329.192C37.9812 328.709 36.727 328.182 35.4737 327.653C34.2263 327.111 32.9788 326.568 31.7508 325.98C30.5203 325.398 29.2931 324.807 28.0938 324.151Z" fill="#434343"/>
<path d="M57.7344 331.637C58.9126 331.015 60.1465 330.576 61.3948 330.182C62.6481 329.807 63.9167 329.477 65.2409 329.331C64.0635 329.955 62.8288 330.394 61.5805 330.786C60.3263 331.161 59.0586 331.49 57.7344 331.637Z" fill="#434343"/>
<path d="M45.598 327.362C44.9076 326.267 44.2788 325.14 43.6593 324.009C43.0339 322.881 42.4524 321.73 41.8717 320.581C41.3045 319.424 40.7382 318.267 40.2149 317.087C39.6866 315.91 39.1675 314.729 38.7109 313.516C39.403 314.612 40.031 315.739 40.6504 316.87C41.2759 317.998 41.8574 319.148 42.4372 320.299C43.0035 321.456 43.5707 322.614 44.0923 323.793C44.6215 324.97 45.1405 326.15 45.598 327.362Z" fill="#434343"/>
<path d="M62.6871 354.061C61.9334 353.198 61.238 352.296 60.5501 351.388C59.8563 350.485 59.2039 349.553 58.5515 348.621C57.9118 347.681 57.2728 346.739 56.6745 345.77C56.071 344.804 55.4751 343.833 54.9375 342.822C55.692 343.684 56.3875 344.586 57.0753 345.493C57.7683 346.397 58.4207 347.329 59.0731 348.261C59.712 349.203 60.3518 350.144 60.9493 351.113C61.5536 352.078 62.1486 353.049 62.6871 354.061Z" fill="#434343"/>
<path d="M289.674 142.519H219.909L214.508 95.1365H284.273L289.674 142.519Z" fill="#434343"/>
<path d="M285.876 139.341H222.989L218.312 98.3151H281.199L285.876 139.341Z" fill="white"/>
<path d="M247.038 119.903L246.034 121.097L236.141 112.556L237.145 111.362L247.038 119.903Z" fill="#14E4EA"/>
<path d="M244.493 111.362L245.876 112.556L238.688 121.097L237.305 119.903L244.493 111.362Z" fill="#14E4EA"/>
<path d="M268.188 119.903L267.182 121.097L257.289 112.556L258.294 111.362L268.188 119.903Z" fill="#14E4EA"/>
<path d="M265.641 111.362L267.024 112.556L259.836 121.097L258.453 119.903L265.641 111.362Z" fill="#14E4EA"/>
<path d="M234.876 128.112L234.609 126.423H272.951L273.218 128.112H234.876Z" fill="#14E4EA"/>
<path d="M310.148 139.341H220.398V142.52H310.148V139.341Z" fill="#434343"/>
<path d="M317.725 139.341H239.891V142.52H317.725V139.341Z" fill="white"/>
<path d="M281.426 100.306L281.199 98.3151H218.312L218.54 100.306H281.426Z" fill="#434343"/>
<path d="M223.605 99.3101C223.635 99.5836 223.859 99.8047 224.106 99.8047C224.351 99.8047 224.527 99.5836 224.496 99.3101C224.466 99.0367 224.242 98.8156 223.996 98.8156C223.749 98.8156 223.575 99.0375 223.605 99.3101Z" fill="white"/>
<path d="M221.785 99.3101C221.815 99.5836 222.039 99.8047 222.285 99.8047C222.532 99.8047 222.706 99.5836 222.676 99.3101C222.646 99.0367 222.422 98.8156 222.175 98.8156C221.929 98.8156 221.754 99.0375 221.785 99.3101Z" fill="white"/>
<path d="M219.964 99.3101C219.995 99.5836 220.218 99.8047 220.465 99.8047C220.711 99.8047 220.886 99.5836 220.856 99.3101C220.825 99.0367 220.602 98.8156 220.355 98.8156C220.11 98.8156 219.934 99.0375 219.964 99.3101Z" fill="#14E4EA"/>
</svg>
