<svg width="76" height="76" viewBox="0 0 76 76" fill="none" xmlns="http://www.w3.org/2000/svg">
<g filter="url(#filter0_d_74_1817)">
<circle cx="40" cy="34" r="32" fill="black"/>
<path d="M51.6186 47.1992C50.1863 49.339 48.6677 51.4271 46.3553 51.4616C44.0429 51.5134 43.3009 50.0983 40.6778 50.0983C38.0376 50.0983 37.2265 51.4271 35.0349 51.5134C32.7743 51.5997 31.0659 49.2355 29.6163 47.1474C26.6654 42.885 24.4048 35.0332 27.442 29.7527C28.9433 27.1297 31.6353 25.473 34.5517 25.4213C36.7606 25.3868 38.8659 26.9226 40.2292 26.9226C41.5752 26.9226 44.1292 25.0761 46.804 25.3522C47.9256 25.404 51.0664 25.8009 53.0854 28.7691C52.9301 28.8726 49.3407 30.9779 49.3752 35.3439C49.427 40.5554 53.9482 42.2983 54 42.3156C53.9482 42.4364 53.2752 44.8005 51.6186 47.1992ZM41.765 19.5885C43.0247 18.1562 45.1128 17.069 46.8385 17C47.0628 19.019 46.2517 21.0553 45.0438 22.5049C43.8531 23.9717 41.8858 25.1106 39.9531 24.9553C39.6942 22.9708 40.6606 20.9 41.765 19.5885Z" fill="white"/>
</g>
<defs>
<filter id="filter0_d_74_1817" x="0" y="0" width="76" height="76" filterUnits="userSpaceOnUse" color-interpolation-filters="sRGB">
<feFlood flood-opacity="0" result="BackgroundImageFix"/>
<feColorMatrix in="SourceAlpha" type="matrix" values="0 0 0 0 0 0 0 0 0 0 0 0 0 0 0 0 0 0 127 0" result="hardAlpha"/>
<feOffset dx="-2" dy="4"/>
<feGaussianBlur stdDeviation="3"/>
<feComposite in2="hardAlpha" operator="out"/>
<feColorMatrix type="matrix" values="0 0 0 0 0 0 0 0 0 0 0 0 0 0 0 0 0 0 0.1 0"/>
<feBlend mode="normal" in2="BackgroundImageFix" result="effect1_dropShadow_74_1817"/>
<feBlend mode="normal" in="SourceGraphic" in2="effect1_dropShadow_74_1817" result="shape"/>
</filter>
</defs>
</svg>
