<svg width="30" height="30" viewBox="0 0 30 30" fill="none" xmlns="http://www.w3.org/2000/svg">
<g clip-path="url(#clip0_67_23)">
<path d="M29.6257 15.8481C29.6257 15.8481 21.5028 23.9224 15.0009 23.9224C8.49899 23.9224 0.376014 15.8481 0.376014 15.8481C-0.123141 15.3799 -0.12753 14.6113 0.376014 14.152C0.376014 14.152 8.49899 6.07756 15.0009 6.07756C21.5028 6.07756 29.6257 14.152 29.6257 14.152C30.1204 14.6201 30.1292 15.3842 29.6257 15.8481ZM15.0627 8.4981C11.4893 8.4981 8.58733 11.3957 8.58733 14.9735C8.58733 18.5512 11.4849 21.4489 15.0627 21.4489C18.6405 21.4489 21.5381 18.5469 21.5381 14.9735C21.5381 11.4001 18.6361 8.4981 15.0627 8.4981Z" fill="#A1A1A1"/>
<path d="M14.9878 19.1609C12.7174 19.1609 10.8755 17.3101 10.8755 15.0353C10.8755 12.7606 12.7174 10.9098 14.9878 10.9098C17.2581 10.9098 19.1001 12.7606 19.1001 15.0353C19.1001 17.3101 17.2582 19.1609 14.9878 19.1609ZM16.5382 15.0221C15.8359 15.0221 15.2617 15.5963 15.2617 16.3074C15.2617 17.0186 15.8359 17.5928 16.5382 17.5928C17.2405 17.5928 17.8147 17.0186 17.8147 16.3074C17.8147 15.5963 17.2493 15.0221 16.5382 15.0221Z" fill="#A1A1A1"/>
<path d="M29 5L0 23" stroke="#A1A1A1" stroke-width="3" stroke-linecap="round"/>
</g>
<defs>
<clipPath id="clip0_67_23">
<rect width="30" height="30" fill="white" transform="matrix(1 0 0 -1 0 30)"/>
</clipPath>
</defs>
</svg>
