<svg width="76" height="76" viewBox="0 0 76 76" fill="none" xmlns="http://www.w3.org/2000/svg">
<g filter="url(#filter0_d_74_1806)">
<circle cx="40" cy="34" r="32" fill="white"/>
</g>
<path d="M34.0482 16.0614C30.1281 17.4213 26.7475 20.0025 24.4028 23.4258C22.0581 26.849 20.873 30.934 21.0215 35.0806C21.17 39.2272 22.6443 43.2168 25.2279 46.4636C27.8115 49.7104 31.3681 52.0431 35.3754 53.1191C38.6242 53.9574 42.028 53.9942 45.2942 53.2263C48.2531 52.5617 50.9886 51.1401 53.233 49.1006C55.5688 46.9132 57.2644 44.1304 58.1372 41.0516C59.0859 37.7034 59.2547 34.1824 58.6307 30.7588H40.3869V38.3267H50.9525C50.7413 39.5337 50.2888 40.6857 49.6221 41.7137C48.9553 42.7418 48.088 43.6248 47.072 44.3098C45.7818 45.1632 44.3275 45.7375 42.8023 45.9957C41.2726 46.2801 39.7036 46.2801 38.1739 45.9957C36.6235 45.6751 35.1569 45.0352 33.8674 44.1167C31.7958 42.6503 30.2403 40.567 29.4229 38.1642C28.5917 35.7164 28.5917 33.0626 29.4229 30.6147C30.0047 28.8989 30.9666 27.3367 32.2367 26.0446C33.6902 24.5389 35.5303 23.4625 37.5552 22.9337C39.5801 22.4049 41.7116 22.4441 43.7157 23.0469C45.2813 23.5275 46.7129 24.3672 47.8965 25.499C49.0879 24.3138 50.2771 23.1256 51.4644 21.9343C52.0774 21.2936 52.7456 20.6837 53.3494 20.0277C51.5427 18.3464 49.422 17.0382 47.1088 16.1779C42.8964 14.6484 38.2872 14.6073 34.0482 16.0614Z" fill="white"/>
<path d="M34.0486 16.0629C38.2873 14.6078 42.8964 14.6478 47.1092 16.1763C49.4228 17.0424 51.5425 18.357 53.3467 20.0445C52.7337 20.7005 52.087 21.3135 51.4617 21.9511C50.2724 23.1383 49.0841 24.3214 47.8969 25.5005C46.7133 24.3687 45.2816 23.529 43.7161 23.0484C41.7126 22.4435 39.5812 22.402 37.5558 22.9287C35.5303 23.4553 33.6891 24.5297 32.234 26.0338C30.9639 27.3259 30.0021 28.8882 29.4202 30.604L23.0662 25.6844C25.3405 21.1742 29.2784 17.7243 34.0486 16.0629Z" fill="#E33629"/>
<path d="M21.3801 30.5611C21.7216 28.8685 22.2886 27.2293 23.0659 25.6875L29.4199 30.6193C28.5887 33.0672 28.5887 35.7209 29.4199 38.1688C27.303 39.8035 25.1849 41.4464 23.0659 43.0975C21.12 39.2242 20.5265 34.8109 21.3801 30.5611Z" fill="#F8BD00"/>
<path d="M40.3869 30.7539H58.6306C59.2547 34.1775 59.0858 37.6985 58.1371 41.0467C57.2643 44.1255 55.5688 46.9083 53.2329 49.0957C51.1823 47.4957 49.1225 45.908 47.0719 44.308C48.0886 43.6222 48.9563 42.7383 49.6231 41.7091C50.2899 40.68 50.742 39.5268 50.9524 38.3187H40.3869C40.3838 35.7991 40.3869 33.2765 40.3869 30.7539Z" fill="#587DBD"/>
<path d="M23.063 43.0967C25.182 41.462 27.3 39.8191 29.417 38.168C30.2361 40.5716 31.7938 42.655 33.8676 44.1205C35.1611 45.0347 36.631 45.6694 38.1834 45.9841C39.713 46.2685 41.282 46.2685 42.8117 45.9841C44.3369 45.7259 45.7913 45.1517 47.0815 44.2983C49.1321 45.8983 51.1918 47.486 53.2424 49.086C50.9984 51.1266 48.2628 52.5493 45.3037 53.2148C42.0375 53.9826 38.6337 53.9458 35.3849 53.1075C32.8154 52.4214 30.4153 51.212 28.335 49.555C26.1332 47.8069 24.3349 45.6039 23.063 43.0967Z" fill="#319F43"/>
<defs>
<filter id="filter0_d_74_1806" x="0" y="0" width="76" height="76" filterUnits="userSpaceOnUse" color-interpolation-filters="sRGB">
<feFlood flood-opacity="0" result="BackgroundImageFix"/>
<feColorMatrix in="SourceAlpha" type="matrix" values="0 0 0 0 0 0 0 0 0 0 0 0 0 0 0 0 0 0 127 0" result="hardAlpha"/>
<feOffset dx="-2" dy="4"/>
<feGaussianBlur stdDeviation="3"/>
<feComposite in2="hardAlpha" operator="out"/>
<feColorMatrix type="matrix" values="0 0 0 0 0 0 0 0 0 0 0 0 0 0 0 0 0 0 0.1 0"/>
<feBlend mode="normal" in2="BackgroundImageFix" result="effect1_dropShadow_74_1806"/>
<feBlend mode="normal" in="SourceGraphic" in2="effect1_dropShadow_74_1806" result="shape"/>
</filter>
</defs>
</svg>
