<svg width="117" height="117" viewBox="0 0 117 117" fill="none" xmlns="http://www.w3.org/2000/svg">
<path d="M59.5801 79.5816C73.1516 79.5816 84.1534 68.5821 84.1534 55.0135C84.1534 41.4449 73.1516 30.4453 59.5801 30.4453C46.0087 30.4453 35.0068 41.4449 35.0068 55.0135C35.0068 68.5821 46.0087 79.5816 59.5801 79.5816Z" fill="#FFB632"/>
<path d="M59.58 80.0897C54.6197 80.0897 49.7707 78.6188 45.6463 75.863C41.5219 73.1071 38.3074 69.1902 36.4091 64.6074C34.5109 60.0246 34.0142 54.9819 34.9819 50.1168C35.9496 45.2518 38.3383 40.783 41.8458 37.2755C45.3533 33.768 49.8221 31.3793 54.6871 30.4116C59.5522 29.4439 64.5949 29.9406 69.1777 31.8388C73.7605 33.737 77.6774 36.9516 80.4333 41.076C83.1891 45.2004 84.66 50.0493 84.66 55.0097C84.6519 61.6588 82.0069 68.0333 77.3053 72.735C72.6036 77.4366 66.2291 80.0816 59.58 80.0897ZM59.58 30.9534C54.8221 30.9534 50.1711 32.3643 46.215 35.0076C42.259 37.6509 39.1756 41.408 37.3549 45.8037C35.5341 50.1995 35.0577 55.0364 35.9859 59.7029C36.9141 64.3693 39.2053 68.6558 42.5696 72.0201C45.934 75.3844 50.2204 77.6756 54.8869 78.6038C59.5533 79.532 64.3902 79.0556 68.786 77.2348C73.1817 75.4141 76.9388 72.3307 79.5821 68.3747C82.2255 64.4186 83.6363 59.7676 83.6363 55.0097C83.6282 48.6321 81.0911 42.518 76.5814 38.0083C72.0718 33.4986 65.9576 30.9615 59.58 30.9534Z" fill="black"/>
<path d="M42.3882 37.8164L44.2001 39.6283L42.3882 37.8164Z" fill="#FFB632"/>
<path d="M44.1992 40.1422C44.1315 40.1419 44.0645 40.1282 44.0021 40.1018C43.9397 40.0755 43.8832 40.037 43.8358 39.9886L42.029 38.1818C41.9754 38.136 41.9319 38.0795 41.9012 38.016C41.8705 37.9525 41.8532 37.8833 41.8505 37.8128C41.8478 37.7424 41.8596 37.6721 41.8854 37.6064C41.9111 37.5407 41.9501 37.481 42 37.4312C42.0499 37.3813 42.1095 37.3423 42.1752 37.3165C42.2409 37.2908 42.3112 37.2789 42.3817 37.2816C42.4522 37.2844 42.5213 37.3016 42.5848 37.3323C42.6483 37.3631 42.7048 37.4066 42.7507 37.4602L44.5626 39.2669C44.6579 39.3628 44.7114 39.4926 44.7114 39.6278C44.7114 39.763 44.6579 39.8927 44.5626 39.9886C44.5152 40.037 44.4587 40.0755 44.3963 40.1018C44.3339 40.1282 44.2669 40.1419 44.1992 40.1422Z" fill="black"/>
<path d="M74.9609 70.3945L76.7728 72.2064L74.9609 70.3945Z" fill="#FFB632"/>
<path d="M76.7718 72.7161C76.7041 72.7158 76.6371 72.7021 76.5747 72.6758C76.5123 72.6494 76.4558 72.6109 76.4084 72.5626L74.5965 70.7558C74.5008 70.6594 74.4473 70.529 74.4478 70.3931C74.4482 70.2573 74.5027 70.1272 74.599 70.0315C74.6954 69.9358 74.8259 69.8823 74.9617 69.8828C75.0975 69.8833 75.2276 69.9377 75.3233 70.0341L77.1301 71.8409C77.2019 71.9122 77.2511 72.0032 77.2712 72.1024C77.2914 72.2016 77.2817 72.3045 77.2433 72.3982C77.205 72.4919 77.1397 72.5721 77.0558 72.6287C76.9718 72.6853 76.873 72.7157 76.7718 72.7161Z" fill="black"/>
<path d="M37.8269 55.5198H35.2677C35.1319 55.5198 35.0018 55.4658 34.9058 55.3699C34.8098 55.2739 34.7559 55.1437 34.7559 55.0079C34.7559 54.8722 34.8098 54.742 34.9058 54.646C35.0018 54.55 35.1319 54.4961 35.2677 54.4961H37.8269C37.9626 54.4961 38.0928 54.55 38.1888 54.646C38.2848 54.742 38.3387 54.8722 38.3387 55.0079C38.3387 55.1437 38.2848 55.2739 38.1888 55.3699C38.0928 55.4658 37.9626 55.5198 37.8269 55.5198Z" fill="black"/>
<path d="M83.8918 55.5198H81.3326C81.1969 55.5198 81.0667 55.4658 80.9707 55.3699C80.8747 55.2739 80.8208 55.1437 80.8208 55.0079C80.8208 54.8722 80.8747 54.742 80.9707 54.646C81.0667 54.55 81.1969 54.4961 81.3326 54.4961H83.8918C84.0276 54.4961 84.1578 54.55 84.2537 54.646C84.3497 54.742 84.4037 54.8722 84.4037 55.0079C84.4037 55.1437 84.3497 55.2739 84.2537 55.3699C84.1578 55.4658 84.0276 55.5198 83.8918 55.5198Z" fill="black"/>
<path d="M59.58 73.6922C69.8978 73.6922 78.262 65.328 78.262 55.0102C78.262 44.6924 69.8978 36.3281 59.58 36.3281C49.2622 36.3281 40.8979 44.6924 40.8979 55.0102C40.8979 65.328 49.2622 73.6922 59.58 73.6922Z" fill="#E9EEF2"/>
<path d="M59.5801 74.2042C55.7839 74.2042 52.073 73.0785 48.9166 70.9694C45.7602 68.8604 43.3 65.8627 41.8473 62.3555C40.3945 58.8482 40.0144 54.989 40.755 51.2658C41.4956 47.5425 43.3237 44.1225 46.008 41.4382C48.6923 38.7539 52.1123 36.9258 55.8356 36.1852C59.5588 35.4446 63.4181 35.8247 66.9253 37.2775C70.4325 38.7302 73.4302 41.1903 75.5392 44.3467C77.6483 47.5032 78.774 51.2141 78.774 55.0103C78.7686 60.0992 76.7446 64.978 73.1462 68.5764C69.5479 72.1748 64.669 74.1987 59.5801 74.2042ZM59.5801 36.8401C55.9864 36.8401 52.4734 37.9058 49.4853 39.9023C46.4972 41.8989 44.1683 44.7367 42.793 48.0569C41.4178 51.377 41.0579 55.0304 41.759 58.5551C42.4601 62.0798 44.1907 65.3174 46.7318 67.8586C49.273 70.3997 52.5106 72.1303 56.0353 72.8314C59.56 73.5325 63.2134 73.1726 66.5336 71.7974C69.8537 70.4221 72.6915 68.0932 74.6881 65.1051C76.6847 62.117 77.7503 58.604 77.7503 55.0103C77.7449 50.1929 75.8288 45.5744 72.4224 42.168C69.016 38.7616 64.3975 36.8455 59.5801 36.8401Z" fill="black"/>
<path d="M71.0966 54.2463H59.3243C59.1886 54.2463 59.0584 54.1924 58.9624 54.0964C58.8664 54.0004 58.8125 53.8702 58.8125 53.7345C58.8125 53.5987 58.8664 53.4686 58.9624 53.3726C59.0584 53.2766 59.1886 53.2227 59.3243 53.2227H71.0966C71.2323 53.2227 71.3625 53.2766 71.4585 53.3726C71.5545 53.4686 71.6084 53.5987 71.6084 53.7345C71.6084 53.8702 71.5545 54.0004 71.4585 54.0964C71.3625 54.1924 71.2323 54.2463 71.0966 54.2463Z" fill="black"/>
<path d="M69.1624 55.6571C69.0825 55.6565 69.0038 55.6372 68.9327 55.6008C68.8616 55.5643 68.8 55.5117 68.7529 55.4472C68.7128 55.3931 68.6838 55.3317 68.6675 55.2664C68.6513 55.2011 68.648 55.1332 68.658 55.0667C68.668 55.0001 68.691 54.9362 68.7257 54.8785C68.7605 54.8208 68.8062 54.7706 68.8604 54.7307L70.2321 53.707L68.8604 52.6833C68.8062 52.6434 68.7605 52.5931 68.7257 52.5355C68.691 52.4778 68.668 52.4139 68.658 52.3473C68.648 52.2808 68.6513 52.2129 68.6675 52.1476C68.6838 52.0823 68.7128 52.0208 68.7529 51.9667C68.8327 51.858 68.9522 51.7852 69.0855 51.7641C69.2187 51.743 69.3548 51.7754 69.4643 51.8541L71.3991 53.2668C71.4646 53.3143 71.518 53.3766 71.5548 53.4486C71.5916 53.5207 71.6108 53.6005 71.6108 53.6814C71.6108 53.7623 71.5916 53.8421 71.5548 53.9141C71.518 53.9862 71.4646 54.0485 71.3991 54.096L69.4643 55.5087C69.3833 55.5907 69.2769 55.6431 69.1624 55.6571Z" fill="black"/>
<path d="M59.8361 71.1358C59.7003 71.1358 59.5701 71.0818 59.4741 70.9858C59.3781 70.8899 59.3242 70.7597 59.3242 70.6239V58.8517C59.3242 58.7159 59.3781 58.5857 59.4741 58.4898C59.5701 58.3938 59.7003 58.3398 59.8361 58.3398C59.9718 58.3398 60.102 58.3938 60.198 58.4898C60.294 58.5857 60.3479 58.7159 60.3479 58.8517V70.6239C60.3479 70.7597 60.294 70.8899 60.198 70.9858C60.102 71.0818 59.9718 71.1358 59.8361 71.1358Z" fill="black"/>
<path d="M59.8362 71.1363C59.7554 71.1365 59.6758 71.1176 59.6037 71.0811C59.5316 71.0446 59.4692 70.9916 59.4216 70.9264L58.0089 68.9917C57.9302 68.8822 57.8978 68.746 57.9189 68.6128C57.94 68.4796 58.0128 68.3601 58.1215 68.2802C58.1756 68.2402 58.2371 68.2112 58.3024 68.1949C58.3677 68.1786 58.4355 68.1754 58.5021 68.1853C58.5687 68.1953 58.6326 68.2183 58.6903 68.2531C58.7479 68.2878 58.7981 68.3335 58.8381 68.3877L59.8618 69.7594L60.8854 68.3877C60.9254 68.3335 60.9756 68.2878 61.0333 68.2531C61.0909 68.2183 61.1549 68.1953 61.2214 68.1853C61.288 68.1754 61.3559 68.1786 61.4212 68.1949C61.4865 68.2112 61.5479 68.2402 61.602 68.2802C61.7107 68.3601 61.7836 68.4796 61.8046 68.6128C61.8257 68.746 61.7934 68.8822 61.7146 68.9917L60.302 70.9264C60.2495 70.9991 60.1789 71.0568 60.0971 71.0936C60.0154 71.1304 59.9254 71.1452 59.8362 71.1363Z" fill="black"/>
<path d="M59.5802 33.7704C59.4444 33.7704 59.3143 33.7164 59.2183 33.6204C59.1223 33.5245 59.0684 33.3943 59.0684 33.2585V30.6993C59.0684 30.5636 59.1223 30.4334 59.2183 30.3374C59.3143 30.2414 59.4444 30.1875 59.5802 30.1875C59.7159 30.1875 59.8461 30.2414 59.9421 30.3374C60.0381 30.4334 60.092 30.5636 60.092 30.6993V33.2585C60.092 33.3943 60.0381 33.5245 59.9421 33.6204C59.8461 33.7164 59.7159 33.7704 59.5802 33.7704Z" fill="black"/>
<path d="M59.5802 79.8368C59.4444 79.8368 59.3143 79.7828 59.2183 79.6869C59.1223 79.5909 59.0684 79.4607 59.0684 79.3249V76.7657C59.0684 76.63 59.1223 76.4998 59.2183 76.4038C59.3143 76.3078 59.4444 76.2539 59.5802 76.2539C59.7159 76.2539 59.8461 76.3078 59.9421 76.4038C60.0381 76.4998 60.092 76.63 60.092 76.7657V79.3249C60.092 79.4607 60.0381 79.5909 59.9421 79.6869C59.8461 79.7828 59.7159 79.8368 59.5802 79.8368Z" fill="black"/>
<path d="M42.3882 72.2064L44.2001 70.3945L42.3882 72.2064Z" fill="#FFB632"/>
<path d="M42.3871 72.7161C42.2859 72.7157 42.1871 72.6853 42.1031 72.6287C42.0192 72.5721 41.9539 72.4919 41.9156 72.3982C41.8772 72.3045 41.8675 72.2016 41.8877 72.1024C41.9079 72.0032 41.957 71.9122 42.0288 71.8409L43.8356 70.0341C43.9313 69.9377 44.0614 69.8833 44.1972 69.8828C44.333 69.8823 44.4635 69.9358 44.5599 70.0315C44.6563 70.1272 44.7107 70.2573 44.7112 70.3931C44.7116 70.529 44.6581 70.6594 44.5624 70.7558L42.7505 72.5626C42.7031 72.6109 42.6466 72.6494 42.5842 72.6758C42.5218 72.7021 42.4549 72.7158 42.3871 72.7161Z" fill="black"/>
<path d="M74.9609 39.6283L76.7728 37.8164L74.9609 39.6283Z" fill="#FFB632"/>
<path d="M74.96 40.1422C74.8923 40.1419 74.8253 40.1282 74.7629 40.1018C74.7005 40.0755 74.644 40.037 74.5966 39.9886C74.5013 39.8927 74.4478 39.763 74.4478 39.6278C74.4478 39.4926 74.5013 39.3628 74.5966 39.2669L76.4085 37.4602C76.4544 37.4066 76.5108 37.3631 76.5743 37.3323C76.6378 37.3016 76.707 37.2844 76.7775 37.2816C76.848 37.2789 76.9183 37.2908 76.984 37.3165C77.0496 37.3423 77.1093 37.3813 77.1592 37.4312C77.2091 37.481 77.2481 37.5407 77.2738 37.6064C77.2996 37.6721 77.3114 37.7424 77.3087 37.8128C77.306 37.8833 77.2887 37.9525 77.258 38.016C77.2273 38.0795 77.1838 38.136 77.1302 38.1818L75.3234 39.9886C75.276 40.037 75.2195 40.0755 75.1571 40.1018C75.0947 40.1282 75.0277 40.1419 74.96 40.1422Z" fill="black"/>
<path d="M62.053 53.8405C62.0521 53.5383 62.1305 53.2412 62.2805 52.9789C62.4306 52.7166 62.6468 52.4983 62.9077 52.3459C65.4004 50.8872 67.1099 46.987 67.1099 43.7266H51.8623C51.8623 46.987 53.5718 50.8923 56.0645 52.3459C56.3206 52.5015 56.5318 52.7212 56.6772 52.9833C56.8226 53.2453 56.8972 53.5408 56.8937 53.8405C56.8978 54.1396 56.8235 54.4345 56.678 54.6959C56.5325 54.9573 56.3209 55.1759 56.0645 55.3299C53.5718 56.804 51.8623 60.694 51.8623 63.9697H67.0843C67.0843 60.7093 65.3748 56.804 62.8822 55.3453C62.6234 55.1899 62.4104 54.9689 62.2648 54.7046C62.1192 54.4403 62.0461 54.1421 62.053 53.8405Z" fill="#A3D4F7"/>
<path d="M67.0835 64.4819H51.8614C51.7257 64.4819 51.5955 64.428 51.4995 64.332C51.4035 64.236 51.3496 64.1058 51.3496 63.9701C51.3496 60.7967 53.0182 56.5433 55.8026 54.9055C55.9803 54.794 56.1267 54.6393 56.2282 54.4557C56.3297 54.2722 56.383 54.0659 56.383 53.8562C56.383 53.6465 56.3297 53.4402 56.2282 53.2567C56.1267 53.0731 55.9803 52.9184 55.8026 52.8069C53.0182 51.1691 51.3496 46.9157 51.3496 43.7423C51.3496 43.6066 51.4035 43.4764 51.4995 43.3804C51.5955 43.2844 51.7257 43.2305 51.8614 43.2305H67.0835C67.2192 43.2305 67.3494 43.2844 67.4454 43.3804C67.5414 43.4764 67.5953 43.6066 67.5953 43.7423C67.5953 46.9157 65.9267 51.1691 63.1423 52.8069C62.9647 52.9184 62.8182 53.0731 62.7167 53.2567C62.6152 53.4402 62.5619 53.6465 62.5619 53.8562C62.5619 54.0659 62.6152 54.2722 62.7167 54.4557C62.8182 54.6393 62.9647 54.794 63.1423 54.9055C65.9267 56.5433 67.5953 60.7967 67.5953 63.9701C67.5953 64.1058 67.5414 64.236 67.4454 64.332C67.3494 64.428 67.2192 64.4819 67.0835 64.4819ZM52.3886 63.4583H66.5563C66.3874 60.3156 64.7239 57.0245 62.6254 55.7807C62.2939 55.5782 62.0201 55.2939 61.8301 54.9551C61.6401 54.6163 61.5403 54.2344 61.5403 53.846C61.5403 53.4575 61.6401 53.0756 61.8301 52.7368C62.0201 52.3981 62.2939 52.1138 62.6254 51.9112C64.7239 50.6777 66.3874 47.3866 66.5563 44.2337H52.3886C52.5575 47.3763 54.221 50.6675 56.3195 51.9112C56.6498 52.1147 56.9224 52.3993 57.1115 52.738C57.3006 53.0766 57.3999 53.4581 57.3999 53.846C57.3999 54.2338 57.3006 54.6153 57.1115 54.9539C56.9224 55.2926 56.6498 55.5772 56.3195 55.7807C54.2057 57.0091 52.5575 60.3002 52.3886 63.4583Z" fill="black"/>
<path d="M66.7607 42.8359H51.8867C51.3948 42.8359 50.9961 43.2347 50.9961 43.7265V43.7317C50.9961 44.2235 51.3948 44.6222 51.8867 44.6222H66.7607C67.2525 44.6222 67.6513 44.2235 67.6513 43.7317V43.7265C67.6513 43.2347 67.2525 42.8359 66.7607 42.8359Z" fill="#A3D4F7"/>
<path d="M66.7616 45.1303H51.8877C51.5297 45.1087 51.1935 44.9512 50.9476 44.6901C50.7018 44.429 50.5649 44.0839 50.5649 43.7253C50.5649 43.3667 50.7018 43.0216 50.9476 42.7605C51.1935 42.4994 51.5297 42.3419 51.8877 42.3203H66.7616C67.1196 42.3419 67.4558 42.4994 67.7016 42.7605C67.9474 43.0216 68.0843 43.3667 68.0843 43.7253C68.0843 44.0839 67.9474 44.429 67.7016 44.6901C67.4558 44.9512 67.1196 45.1087 66.7616 45.1303ZM51.8877 43.344C51.7872 43.344 51.6909 43.3839 51.6198 43.4549C51.5488 43.526 51.5089 43.6223 51.5089 43.7227C51.5089 43.8237 51.5486 43.9205 51.6195 43.9924C51.6904 44.0642 51.7867 44.1053 51.8877 44.1066H66.7616C66.8625 44.1053 66.9589 44.0642 67.0298 43.9924C67.1007 43.9205 67.1404 43.8237 67.1404 43.7227C67.1404 43.6223 67.1005 43.526 67.0294 43.4549C66.9584 43.3839 66.8621 43.344 66.7616 43.344H51.8877Z" fill="black"/>
<path d="M66.7607 63.3516H51.8867C51.3948 63.3516 50.9961 63.7503 50.9961 64.2422V64.2473C50.9961 64.7391 51.3948 65.1379 51.8867 65.1379H66.7607C67.2525 65.1379 67.6513 64.7391 67.6513 64.2473V64.2422C67.6513 63.7503 67.2525 63.3516 66.7607 63.3516Z" fill="#A3D4F7"/>
<path d="M66.7616 65.6537H51.8877C51.5297 65.6321 51.1935 65.4747 50.9476 65.2136C50.7018 64.9525 50.5649 64.6074 50.5649 64.2487C50.5649 63.8901 50.7018 63.545 50.9476 63.2839C51.1935 63.0228 51.5297 62.8654 51.8877 62.8438H66.7616C67.1196 62.8654 67.4558 63.0228 67.7016 63.2839C67.9474 63.545 68.0843 63.8901 68.0843 64.2487C68.0843 64.6074 67.9474 64.9525 67.7016 65.2136C67.4558 65.4747 67.1196 65.6321 66.7616 65.6537ZM51.8877 63.8674C51.7867 63.8688 51.6904 63.9098 51.6195 63.9817C51.5486 64.0535 51.5089 64.1504 51.5089 64.2513C51.5089 64.3518 51.5488 64.4481 51.6198 64.5191C51.6909 64.5902 51.7872 64.6301 51.8877 64.6301H66.7616C66.8621 64.6301 66.9584 64.5902 67.0294 64.5191C67.1005 64.4481 67.1404 64.3518 67.1404 64.2513C67.1404 64.1504 67.1007 64.0535 67.0298 63.9817C66.9589 63.9098 66.8625 63.8688 66.7616 63.8674H51.8877Z" fill="black"/>
<path d="M62.2976 49.375C62.2976 50.1637 61.9843 50.9201 61.4266 51.4778C60.869 52.0355 60.1126 52.3488 59.3239 52.3488C58.5352 52.3488 57.7788 52.0355 57.2211 51.4778C56.6634 50.9201 56.3501 50.1637 56.3501 49.375" fill="#A3D4F7"/>
<path d="M59.324 52.8607C58.4 52.8594 57.5142 52.4917 56.8608 51.8383C56.2074 51.1849 55.8397 50.2991 55.8384 49.3751C55.8384 49.2394 55.8923 49.1092 55.9883 49.0132C56.0843 48.9172 56.2145 48.8633 56.3502 48.8633C56.486 48.8633 56.6162 48.9172 56.7121 49.0132C56.8081 49.1092 56.8621 49.2394 56.8621 49.3751C56.8621 50.0281 57.1214 50.6543 57.5831 51.116C58.0448 51.5777 58.671 51.8371 59.324 51.8371C59.9769 51.8371 60.6031 51.5777 61.0648 51.116C61.5265 50.6543 61.7859 50.0281 61.7859 49.3751C61.7859 49.2394 61.8398 49.1092 61.9358 49.0132C62.0318 48.9172 62.162 48.8633 62.2978 48.8633C62.4335 48.8633 62.5637 48.9172 62.6597 49.0132C62.7557 49.1092 62.8096 49.2394 62.8096 49.3751C62.8082 50.2991 62.4406 51.1849 61.7872 51.8383C61.1338 52.4917 60.248 52.8594 59.324 52.8607Z" fill="black"/>
<path d="M58.4342 55.5393C58.2985 55.5393 58.1683 55.4853 58.0723 55.3893C57.9763 55.2934 57.9224 55.1632 57.9224 55.0274V53.84C57.9224 53.7042 57.9763 53.574 58.0723 53.478C58.1683 53.3821 58.2985 53.3281 58.4342 53.3281C58.5699 53.3281 58.7001 53.3821 58.7961 53.478C58.8921 53.574 58.946 53.7042 58.946 53.84V55.0274C58.946 55.1632 58.8921 55.2934 58.7961 55.3893C58.7001 55.4853 58.5699 55.5393 58.4342 55.5393Z" fill="black"/>
<path d="M59.6207 56.435C59.485 56.435 59.3548 56.3811 59.2588 56.2851C59.1628 56.1891 59.1089 56.0589 59.1089 55.9232V55.0275C59.1089 54.8917 59.1628 54.7615 59.2588 54.6655C59.3548 54.5696 59.485 54.5156 59.6207 54.5156C59.7565 54.5156 59.8867 54.5696 59.9826 54.6655C60.0786 54.7615 60.1326 54.8917 60.1326 55.0275V55.9232C60.1326 56.0589 60.0786 56.1891 59.9826 56.2851C59.8867 56.3811 59.7565 56.435 59.6207 56.435Z" fill="black"/>
<path d="M60.8141 55.8361C60.6783 55.8361 60.5481 55.7822 60.4522 55.6862C60.3562 55.5902 60.3022 55.46 60.3022 55.3243V53.5431C60.3022 53.4073 60.3562 53.2772 60.4522 53.1812C60.5481 53.0852 60.6783 53.0312 60.8141 53.0312C60.9498 53.0312 61.08 53.0852 61.176 53.1812C61.272 53.2772 61.3259 53.4073 61.3259 53.5431V55.3243C61.3259 55.46 61.272 55.5902 61.176 55.6862C61.08 55.7822 60.9498 55.8361 60.8141 55.8361Z" fill="black"/>
<path d="M55.1626 63.3537C55.2011 62.2357 55.6723 61.1764 56.4768 60.3992C57.2813 59.6219 58.3562 59.1875 59.4748 59.1875C60.5934 59.1875 61.6684 59.6219 62.4728 60.3992C63.2773 61.1764 63.7485 62.2357 63.787 63.3537H55.1626Z" fill="#A3D4F7"/>
<path d="M63.7872 63.8688H55.1627C55.027 63.8688 54.8968 63.8149 54.8008 63.7189C54.7048 63.6229 54.6509 63.4927 54.6509 63.357C54.6917 62.1047 55.2178 60.9174 56.118 60.0461C57.0183 59.1747 58.2221 58.6875 59.4749 58.6875C60.7278 58.6875 61.9316 59.1747 62.8319 60.0461C63.7321 60.9174 64.2582 62.1047 64.299 63.357C64.299 63.4927 64.2451 63.6229 64.1491 63.7189C64.0531 63.8149 63.9229 63.8688 63.7872 63.8688ZM55.7053 62.8451H63.2395C63.1137 61.9354 62.663 61.1019 61.9706 60.4986C61.2781 59.8953 60.3908 59.563 59.4724 59.563C58.554 59.563 57.6666 59.8953 56.9742 60.4986C56.2818 61.1019 55.831 61.9354 55.7053 62.8451Z" fill="black"/>
<g filter="url(#filter0_d_62_2043)">
<circle cx="59.5" cy="54.9297" r="50" fill="#3FBD5A" fill-opacity="0.06" shape-rendering="crispEdges"/>
</g>
<defs>
<filter id="filter0_d_62_2043" x="0.5" y="0.929688" width="116" height="116" filterUnits="userSpaceOnUse" color-interpolation-filters="sRGB">
<feFlood flood-opacity="0" result="BackgroundImageFix"/>
<feColorMatrix in="SourceAlpha" type="matrix" values="0 0 0 0 0 0 0 0 0 0 0 0 0 0 0 0 0 0 127 0" result="hardAlpha"/>
<feOffset dx="-1" dy="4"/>
<feGaussianBlur stdDeviation="4"/>
<feComposite in2="hardAlpha" operator="out"/>
<feColorMatrix type="matrix" values="0 0 0 0 0 0 0 0 0 0 0 0 0 0 0 0 0 0 0.07 0"/>
<feBlend mode="normal" in2="BackgroundImageFix" result="effect1_dropShadow_62_2043"/>
<feBlend mode="normal" in="SourceGraphic" in2="effect1_dropShadow_62_2043" result="shape"/>
</filter>
</defs>
</svg>
