<svg width="117" height="117" viewBox="0 0 117 117" fill="none" xmlns="http://www.w3.org/2000/svg">
<g clip-path="url(#clip0_62_1989)">
<path d="M62.2453 59.3757C61.8792 59.3757 61.5131 59.2841 61.2385 59.0096L53.4589 51.2299C53.1843 50.9553 53.0928 50.5892 53.0928 50.2231V39.2401C53.0928 38.5079 53.7335 37.8672 54.4657 37.8672C55.1979 37.8672 55.8385 38.5079 55.8385 39.2401V49.674L63.1606 56.996C63.7097 57.5452 63.7097 58.3689 63.1606 58.918C62.9775 59.1926 62.6114 59.3757 62.2453 59.3757Z" fill="#1976D2"/>
<path d="M63.1602 81.4301H65.906C64.6246 81.4301 63.6178 80.4233 63.6178 79.142V65.4131C63.6178 64.1318 64.6246 63.125 65.906 63.125H63.1602C61.8789 63.125 60.8721 64.1318 60.8721 65.4131V79.142C60.8721 80.4233 61.8789 81.4301 63.1602 81.4301Z" fill="#8FEECE"/>
<path d="M54.4661 71.3619C66.5976 71.3619 76.4322 61.5273 76.4322 49.3958C76.4322 37.2642 66.5976 27.4297 54.4661 27.4297C42.3346 27.4297 32.5 37.2642 32.5 49.3958C32.5 61.5273 42.3346 71.3619 54.4661 71.3619Z" fill="#1976D2"/>
<path d="M54.4662 67.7C64.5758 67.7 72.7713 59.5045 72.7713 49.3949C72.7713 39.2853 64.5758 31.0898 54.4662 31.0898C44.3566 31.0898 36.1611 39.2853 36.1611 49.3949C36.1611 59.5045 44.3566 67.7 54.4662 67.7Z" fill="#81D4FA"/>
<path d="M67.0038 62.7576C70.5733 59.4627 72.7699 54.7034 72.7699 49.3949C72.7699 39.3271 64.5326 31.0898 54.4648 31.0898V50.2187L67.0038 62.7576Z" fill="#FFC300"/>
<path d="M54.4657 31.0898C54.008 31.0898 53.5504 31.0898 53.0928 31.1814C62.5199 31.822 70.025 39.7848 70.025 49.3949C70.025 59.0051 62.5199 66.9678 53.0928 67.6085C53.5504 67.6085 54.008 67.7 54.4657 67.7C64.5335 67.7 72.7707 59.4627 72.7707 49.3949C72.7707 39.3271 64.5335 31.0898 54.4657 31.0898Z" fill="#D1A000"/>
<path d="M65.5402 61.2891C62.4284 64.8586 58.0351 67.2382 53.0928 67.6043C53.5504 67.6043 54.008 67.6958 54.4657 67.6958C59.3165 67.6958 63.7097 65.7738 67.0046 62.7535L65.5402 61.2891Z" fill="#4FC3F7"/>
<path d="M84.2111 81.4301H63.1602C61.8788 81.4301 60.8721 80.4233 60.8721 79.142V65.4131C60.8721 64.1318 61.8788 63.125 63.1602 63.125H84.2111C85.4924 63.125 86.4992 64.1318 86.4992 65.4131V79.142C86.4992 80.4233 85.4924 81.4301 84.2111 81.4301Z" fill="#33E0A6"/>
<path d="M84.2106 63.125H81.4648C82.7462 63.125 83.753 64.1318 83.753 65.4131V79.142C83.753 80.4233 82.7462 81.4301 81.4648 81.4301H84.2106C85.492 81.4301 86.4987 80.4233 86.4987 79.142V65.4131C86.4987 64.1318 85.492 63.125 84.2106 63.125Z" fill="#26A379"/>
<path d="M75.5165 78.6847H75.425C75.0589 78.5931 74.7843 78.4101 74.6928 78.044L72.2216 69.5321L70.4826 73.5592C70.2996 73.9253 70.025 74.1084 69.6589 74.1084H65.5403C64.9911 74.1084 64.625 73.7423 64.625 73.1931C64.625 72.644 64.9911 72.2779 65.5403 72.2779H69.0182L71.4894 66.4202C71.6725 66.0541 71.947 65.8711 72.4047 65.8711C72.7708 65.8711 73.1369 66.1457 73.2284 66.5118L75.8826 75.4813L77.5301 72.7355C77.7131 72.4609 77.9877 72.2779 78.3538 72.2779H82.0148C82.564 72.2779 82.9301 72.644 82.9301 73.1931C82.9301 73.7423 82.564 74.1084 82.0148 74.1084H78.903L76.3403 78.227C76.1572 78.5016 75.7911 78.6847 75.5165 78.6847Z" fill="#FAFAFA"/>
</g>
<g filter="url(#filter0_d_62_1989)">
<circle cx="59.5" cy="54.4297" r="50" fill="#3FBD5A" fill-opacity="0.06" shape-rendering="crispEdges"/>
</g>
<defs>
<filter id="filter0_d_62_1989" x="0.5" y="0.429688" width="116" height="116" filterUnits="userSpaceOnUse" color-interpolation-filters="sRGB">
<feFlood flood-opacity="0" result="BackgroundImageFix"/>
<feColorMatrix in="SourceAlpha" type="matrix" values="0 0 0 0 0 0 0 0 0 0 0 0 0 0 0 0 0 0 127 0" result="hardAlpha"/>
<feOffset dx="-1" dy="4"/>
<feGaussianBlur stdDeviation="4"/>
<feComposite in2="hardAlpha" operator="out"/>
<feColorMatrix type="matrix" values="0 0 0 0 0 0 0 0 0 0 0 0 0 0 0 0 0 0 0.07 0"/>
<feBlend mode="normal" in2="BackgroundImageFix" result="effect1_dropShadow_62_1989"/>
<feBlend mode="normal" in="SourceGraphic" in2="effect1_dropShadow_62_1989" result="shape"/>
</filter>
<clipPath id="clip0_62_1989">
<rect width="54" height="54" fill="white" transform="translate(32.5 27.4297)"/>
</clipPath>
</defs>
</svg>
