<svg width="117" height="117" viewBox="0 0 117 117" fill="none" xmlns="http://www.w3.org/2000/svg">
<g filter="url(#filter0_d_62_2144)">
<circle cx="59.5" cy="54.9297" r="50" fill="#3FBD5A" fill-opacity="0.06" shape-rendering="crispEdges"/>
</g>
<path d="M53.5107 32.381V27.6445H57.6565V32.381" fill="white"/>
<path d="M78.5284 55.2239C78.5284 63.7932 73.8346 71.2554 66.8837 75.1908C63.5442 77.0905 59.6858 78.1721 55.5802 78.1721C42.9139 78.1721 32.6406 67.8996 32.6406 55.2239C32.6406 42.5576 42.9139 32.2852 55.5802 32.2852C60.2569 32.2852 64.601 33.6822 68.2295 36.0846C72.2675 38.7504 75.4103 42.6687 77.1057 47.2778C77.9744 49.6119 78.4685 52.1332 78.5198 54.7656C78.5284 54.9178 78.5284 55.0709 78.5284 55.2239Z" fill="white"/>
<path d="M78.5284 55.2209C78.5284 63.7902 73.8347 71.2523 66.8838 75.1878V69.5151C66.8838 67.2066 68.7664 65.324 71.0748 65.324H71.4921V59.8129C71.4921 56.8744 73.886 54.4805 76.8245 54.4805C77.4033 54.4805 77.9744 54.5745 78.5199 54.7618C78.5284 54.9148 78.5284 55.0678 78.5284 55.2209Z" fill="#E6E6EF"/>
<path d="M77.107 47.2753C72.09 47.1812 68.0264 43.0671 68.0264 38.0331C68.0264 37.3602 68.0948 36.713 68.2307 36.082C72.2687 38.7487 75.4116 42.667 77.107 47.2753Z" fill="#E6E6EF"/>
<path d="M74.2172 55.1713V55.2226C74.2172 58.775 73.2203 62.1051 71.4916 64.9333C71.4146 65.0693 71.33 65.1975 71.2359 65.3249C70.0775 67.1391 68.5949 68.7405 66.8833 70.0443C63.7575 72.4468 59.8307 73.8686 55.5798 73.8686C45.2903 73.8686 36.9424 65.5207 36.9424 55.2226C36.9424 44.9331 45.2903 36.5938 55.5798 36.5938C65.8608 36.5929 74.1916 44.9066 74.2172 55.1713Z" fill="#5C9EFE"/>
<path d="M55.5836 42.5147C55.2297 42.5147 54.9424 42.2274 54.9424 41.8735V40.2311C54.9424 39.8771 55.2297 39.5898 55.5836 39.5898C55.9376 39.5898 56.2248 39.8771 56.2248 40.2311V41.8735C56.2248 42.2274 55.9376 42.5147 55.5836 42.5147Z" fill="white"/>
<path d="M48.9048 44.3019C48.6834 44.3019 48.4679 44.1865 48.3491 43.9813L47.5283 42.5595C47.3514 42.2534 47.4565 41.861 47.7626 41.684C48.0687 41.5062 48.4611 41.6122 48.6381 41.9182L49.4588 43.3401C49.6358 43.6461 49.5307 44.0386 49.2246 44.2155C49.1237 44.2745 49.0134 44.3019 48.9048 44.3019Z" fill="white"/>
<path d="M44.0156 49.1934C43.9071 49.1934 43.7968 49.1661 43.695 49.1071L42.2724 48.2863C41.9663 48.1093 41.8611 47.7178 42.0381 47.4108C42.2142 47.1047 42.6067 46.9979 42.9136 47.1766L44.3363 47.9973C44.6423 48.1743 44.7475 48.5659 44.5705 48.8728C44.4525 49.078 44.2371 49.1934 44.0156 49.1934Z" fill="white"/>
<path d="M42.2261 55.8723H40.5846C40.2306 55.8723 39.9434 55.585 39.9434 55.2311C39.9434 54.8771 40.2306 54.5898 40.5846 54.5898H42.2261C42.5801 54.5898 42.8673 54.8771 42.8673 55.2311C42.8673 55.585 42.5801 55.8723 42.2261 55.8723Z" fill="white"/>
<path d="M42.5938 63.3693C42.3724 63.3693 42.1569 63.2539 42.0381 63.0487C41.8611 62.7426 41.9663 62.3502 42.2724 62.1732L43.695 61.3516C44.002 61.1746 44.3927 61.2798 44.5705 61.5858C44.7475 61.8919 44.6423 62.2843 44.3363 62.4613L42.9136 63.2829C42.8136 63.3419 42.7033 63.3693 42.5938 63.3693Z" fill="white"/>
<path d="M48.0834 68.8601C47.9748 68.8601 47.8645 68.8328 47.7628 68.7738C47.4559 68.5968 47.3515 68.2044 47.5285 67.8983L48.3493 66.4765C48.5263 66.1704 48.9196 66.0652 49.2248 66.2422C49.5317 66.4192 49.636 66.8116 49.459 67.1177L48.6383 68.5395C48.5203 68.7455 48.3048 68.8601 48.0834 68.8601Z" fill="white"/>
<path d="M55.5836 70.8693C55.2297 70.8693 54.9424 70.582 54.9424 70.2281V68.5865C54.9424 68.2326 55.2297 67.9453 55.5836 67.9453C55.9376 67.9453 56.2248 68.2326 56.2248 68.5865V70.2281C56.2248 70.582 55.9376 70.8693 55.5836 70.8693Z" fill="white"/>
<path d="M63.0845 68.8601C62.8631 68.8601 62.6476 68.7447 62.5288 68.5395L61.708 67.1177C61.531 66.8116 61.6362 66.4192 61.9423 66.2422C62.2484 66.0652 62.6408 66.1704 62.8178 66.4765L63.6385 67.8983C63.8155 68.2044 63.7104 68.5968 63.4043 68.7738C63.3034 68.8328 63.1931 68.8601 63.0845 68.8601Z" fill="white"/>
<path d="M68.5726 63.3693C68.464 63.3693 68.3537 63.3419 68.252 63.2829L66.8302 62.4613C66.5232 62.2843 66.4189 61.8919 66.5959 61.5858C66.7737 61.2798 67.1662 61.1746 67.4714 61.3516L68.8932 62.1732C69.2001 62.3502 69.3044 62.7426 69.1275 63.0487C69.0095 63.2547 68.794 63.3693 68.5726 63.3693Z" fill="white"/>
<path d="M70.5835 55.8723H68.942C68.588 55.8723 68.3008 55.585 68.3008 55.2311C68.3008 54.8771 68.588 54.5898 68.942 54.5898H70.5835C70.9375 54.5898 71.2248 54.8771 71.2248 55.2311C71.2248 55.585 70.9375 55.8723 70.5835 55.8723Z" fill="white"/>
<path d="M67.1514 49.1927C66.93 49.1927 66.7146 49.0772 66.5957 48.872C66.4187 48.566 66.5239 48.1735 66.83 47.9966L68.2518 47.1758C68.5579 46.9988 68.9503 47.104 69.1273 47.4101C69.3043 47.7161 69.1991 48.1086 68.893 48.2855L67.4712 49.1063C67.3712 49.1644 67.2609 49.1927 67.1514 49.1927Z" fill="white"/>
<path d="M62.2631 44.3019C62.1545 44.3019 62.0442 44.2745 61.9425 44.2155C61.6355 44.0386 61.5312 43.6461 61.7082 43.3401L62.529 41.9182C62.706 41.6122 63.0984 41.5062 63.4045 41.684C63.7114 41.861 63.8157 42.2534 63.6387 42.5595L62.818 43.9813C62.7 44.1865 62.4837 44.3019 62.2631 44.3019Z" fill="white"/>
<path d="M57.9514 55.2273C57.9514 56.5311 56.8912 57.5912 55.5788 57.5912C54.275 57.5912 53.2148 56.5311 53.2148 55.2273C53.2148 53.9234 54.275 52.8633 55.5788 52.8633C56.8912 52.8633 57.9514 53.9234 57.9514 55.2273Z" fill="white"/>
<path d="M87.0322 81.6062H66.6105C66.3198 81.6062 66.1745 81.254 66.3814 81.0488L67.9904 79.456C68.9172 78.5386 69.4388 77.2887 69.4388 75.984V69.5162C69.4388 68.6116 70.1723 67.8789 71.076 67.8789H82.5668C83.4713 67.8789 84.204 68.6125 84.204 69.5162V75.984C84.204 77.2878 84.7256 78.5378 85.6523 79.456L87.2614 81.0488C87.4683 81.254 87.3238 81.6062 87.0322 81.6062Z" fill="white"/>
<path d="M84.2047 73.7371V69.5162C84.2047 68.6116 83.4712 67.8789 82.5675 67.8789H71.0767C70.1722 67.8789 69.4395 68.6125 69.4395 69.5162V73.7371H84.2047Z" fill="#E6E6EF"/>
<path d="M84.2047 72.111V69.5162C84.2047 68.6116 83.4712 67.8789 82.5675 67.8789H71.0767C70.1722 67.8789 69.4395 68.6125 69.4395 69.5162V72.111H84.2047Z" fill="#FEBC00"/>
<path d="M79.5995 59.8129V67.871H74.0439V59.8129C74.0439 58.2791 75.2879 57.0352 76.8217 57.0352C78.3564 57.036 79.5995 58.2791 79.5995 59.8129Z" fill="#FEBC00"/>
<path d="M71.0748 65.3242H71.2364C70.0779 67.1385 68.5954 68.7398 66.8838 70.0436V69.5153C66.8838 67.2069 68.7664 65.3242 71.0748 65.3242Z" fill="#3F8FEF"/>
<path d="M74.2178 55.1719V55.2232C74.2178 58.7756 73.2209 62.1057 71.4922 64.9339V59.8143C71.4922 57.8206 72.5908 56.0833 74.2178 55.1719Z" fill="#3F8FEF"/>
<path d="M77.2842 31.3281C80.9751 31.3281 83.9743 34.3273 83.9743 38.0294C83.9743 41.7202 80.9751 44.7195 77.2842 44.7195C73.5822 44.7195 70.583 41.7202 70.583 38.0294C70.583 34.3265 73.5822 31.3281 77.2842 31.3281Z" fill="#84D189"/>
<path d="M56.2259 52.2916V47.4303C56.2259 47.0763 55.9386 46.7891 55.5847 46.7891C55.2307 46.7891 54.9435 47.0763 54.9435 47.4303V52.2899C53.5917 52.5832 52.5752 53.7861 52.5752 55.2242C52.5752 56.8811 53.9235 58.2294 55.5804 58.2294C57.2425 58.2294 58.5942 56.8811 58.5942 55.2242C58.5942 53.7887 57.5776 52.5883 56.2259 52.2916ZM55.5795 56.9461C54.6297 56.9461 53.8568 56.174 53.8568 55.2233C53.8568 54.2726 54.6297 53.5006 55.5795 53.5006C56.5345 53.5006 57.3109 54.2726 57.3109 55.2233C57.3109 56.174 56.5345 56.9461 55.5795 56.9461Z" fill="#525987"/>
<path d="M87.713 80.5884L86.104 78.9956C85.3046 78.2048 84.8463 77.1062 84.8463 75.9802C84.8463 75.8682 84.8463 69.1302 84.8463 69.5132C84.8463 68.2564 83.8246 67.2347 82.567 67.2347H80.2406V59.8128C80.2406 58.7902 79.7807 57.8822 79.0668 57.2547C79.4498 52.9602 78.6589 48.8965 76.9781 45.345C77.0807 45.3493 77.1807 45.3604 77.2842 45.3604C81.3264 45.3604 84.6146 42.0714 84.6146 38.0299C84.6146 33.9817 81.3264 30.6875 77.2842 30.6875C73.7078 30.6875 70.7249 33.2584 70.0759 36.6492C66.7193 33.9628 62.6052 32.3051 58.2971 31.81V28.2824H59.6436C59.9976 28.2824 60.2849 27.9952 60.2849 27.6412C60.2849 27.2873 59.9976 27 59.6436 27C56.7821 27 54.3497 27 51.5215 27C51.1675 27 50.8802 27.2873 50.8802 27.6412C50.8802 27.9952 51.1675 28.2824 51.5215 28.2824H52.868V31.7998C41.1404 33.1498 32 43.1341 32 55.219C32 68.2265 42.5785 78.8084 55.5808 78.8084C60.4875 78.8084 65.0222 77.2686 68.7978 74.6917V75.9793C68.7978 77.1045 68.3395 78.2048 67.5392 78.9948L65.9302 80.5876C65.6506 80.8646 65.5668 81.2793 65.7165 81.6418C65.8661 82.006 66.2166 82.2411 66.6108 82.2411H87.0325C87.4258 82.2411 87.7772 82.006 87.9268 81.6418C88.0764 81.2775 87.9926 80.8646 87.713 80.5884ZM83.5639 69.5124C83.5639 69.6021 83.5639 71.5925 83.5639 71.466H70.0802C70.0802 71.377 70.0802 69.4055 70.0802 69.5124C70.0802 68.9626 70.5274 68.5163 71.0771 68.5163H82.5678C83.1167 68.5163 83.5639 68.9626 83.5639 69.5124ZM78.9582 59.8119V67.2287H74.6851V59.8119C74.6851 58.6338 75.6435 57.6753 76.8216 57.6753C77.9998 57.6753 78.9582 58.6338 78.9582 59.8119ZM77.2842 31.9699C80.6194 31.9699 83.3322 34.6887 83.3322 38.0299C83.3322 41.3643 80.6194 44.078 77.2842 44.078C73.9421 44.078 71.2242 41.3643 71.2242 38.0299C71.2242 34.6887 73.9429 31.9699 77.2842 31.9699ZM54.1522 28.2824H57.0155V31.6912C56.5392 31.6621 56.0613 31.639 55.5808 31.639C55.1003 31.639 54.625 31.6579 54.1522 31.6861V28.2824ZM55.5808 77.526C43.2856 77.526 33.2824 67.5194 33.2824 55.219C33.2824 42.9238 43.2856 32.9215 55.5808 32.9215C60.6952 32.9215 65.8148 34.6537 69.9511 38.212C70.0332 41.5379 72.3424 44.3148 75.4451 45.1185C77.2482 48.6443 78.0938 52.4489 77.8433 56.5665C77.5193 56.4639 77.1807 56.3937 76.8225 56.3937C74.9373 56.3937 73.4035 57.9276 73.4035 59.8128V67.2347H71.0771C69.8203 67.2347 68.7978 68.2564 68.7978 69.5132C68.7978 69.7979 68.7978 73.2734 68.7978 73.128C65.094 75.8733 60.5354 77.526 55.5808 77.526ZM81.3726 80.9604V74.7388C81.3726 74.3848 81.0853 74.0975 80.7314 74.0975C80.3774 74.0975 80.0902 74.3848 80.0902 74.7388V80.9604H77.4628V78.4998C77.4628 78.1458 77.1756 77.8585 76.8216 77.8585C76.4677 77.8585 76.1804 78.1458 76.1804 78.4998V80.9604H73.5539V76.9925C73.5539 76.6385 73.2667 76.3512 72.9127 76.3512C72.5588 76.3512 72.2715 76.6385 72.2715 76.9925V80.9604H67.3785L68.4421 79.9079C69.4834 78.8777 70.0811 77.4464 70.0811 75.9802V72.7493H83.5647V75.9802C83.5647 77.4464 84.1615 78.8785 85.2029 79.9079L86.2656 80.9604H81.3726Z" fill="#525987"/>
<path d="M76.5292 39.6384C76.4993 39.6384 76.4702 39.6367 76.4403 39.6324C76.2641 39.6076 76.1068 39.511 76.0042 39.3657L75.0963 38.0764C74.8928 37.7865 74.962 37.3864 75.251 37.1829C75.54 36.9786 75.941 37.047 76.1445 37.3385L76.6583 38.0678L78.5324 36.5528C78.8094 36.3305 79.2121 36.3724 79.4344 36.6477C79.6567 36.923 79.6139 37.3274 79.3386 37.5497L76.931 39.4956C76.8173 39.5879 76.6745 39.6384 76.5292 39.6384Z" fill="white"/>
<defs>
<filter id="filter0_d_62_2144" x="0.5" y="0.929688" width="116" height="116" filterUnits="userSpaceOnUse" color-interpolation-filters="sRGB">
<feFlood flood-opacity="0" result="BackgroundImageFix"/>
<feColorMatrix in="SourceAlpha" type="matrix" values="0 0 0 0 0 0 0 0 0 0 0 0 0 0 0 0 0 0 127 0" result="hardAlpha"/>
<feOffset dx="-1" dy="4"/>
<feGaussianBlur stdDeviation="4"/>
<feComposite in2="hardAlpha" operator="out"/>
<feColorMatrix type="matrix" values="0 0 0 0 0 0 0 0 0 0 0 0 0 0 0 0 0 0 0.07 0"/>
<feBlend mode="normal" in2="BackgroundImageFix" result="effect1_dropShadow_62_2144"/>
<feBlend mode="normal" in="SourceGraphic" in2="effect1_dropShadow_62_2144" result="shape"/>
</filter>
</defs>
</svg>
