<svg width="31" height="32" viewBox="0 0 31 32" fill="none" xmlns="http://www.w3.org/2000/svg">
<path d="M4.19309 9.03563C4.39025 8.67621 4.60623 8.32732 4.84104 7.99005C3.50748 5.95206 2.23485 3.55188 1.05801 0.839906C0.998758 0.703671 0.890212 0.598448 0.752315 0.545283C0.616634 0.492118 0.467661 0.495441 0.333087 0.555806C0.0484321 0.679857 -0.0756197 1.00051 0.0473245 1.28572C1.34987 4.28456 2.74268 6.88466 4.19309 9.03563Z" fill="white"/>
<path d="M24.0613 21.5614L25.0603 25.2818C25.1068 25.4485 25.0725 25.628 24.9684 25.7659C24.8637 25.9038 24.7003 25.9852 24.527 25.9852H19.936C13.7123 25.9852 10.9649 24.5132 9.09806 23.0727C6.55888 21.1117 4.96337 17.9617 4.93402 14.8526C4.92793 13.8923 5.07026 12.9309 5.35713 11.9944C5.6008 11.1632 5.96243 10.3607 6.42984 9.61476C7.14037 8.46894 8.07741 7.48926 9.14071 6.78206C11.8721 4.96835 15.4712 4.76732 18.0974 6.28197C20.4278 7.62827 20.8503 9.91436 20.5042 11.4622C20.1121 13.2167 19.1435 14.4112 17.6266 15.0132C15.541 15.8511 12.5178 15.3931 10.2754 13.8957C9.15898 13.1508 8.05415 12.1395 6.9842 10.883C6.79757 11.2512 6.64693 11.6345 6.51679 12.0244C7.53357 13.1585 8.58857 14.1011 9.65851 14.8122C11.2944 15.9082 13.3419 16.5362 15.2774 16.5362C16.2975 16.5362 17.2268 16.3706 18.0392 16.0444C19.89 15.3012 21.115 13.8015 21.5824 11.7081C22.0476 9.63912 21.321 6.86347 18.6506 5.325C15.6651 3.60046 11.5979 3.81368 8.5282 5.85499C7.52582 6.52066 6.66078 7.35247 5.9569 8.32661C5.95523 8.32883 5.95247 8.32938 5.9508 8.3316L5.95302 8.33326C5.48672 8.95684 5.09019 9.63303 4.77508 10.3425C4.14375 11.7541 3.8159 13.3158 3.82642 14.8598C3.85798 18.3554 5.57477 21.7519 8.418 23.945C10.4388 25.5011 13.3884 27.0922 19.936 27.0922H24.527C24.6998 27.0922 24.8632 27.1731 24.9684 27.3115C25.0725 27.4494 25.1068 27.6289 25.0603 27.7955L24.0247 31.4949L31.0004 26.5589L24.0618 21.5619L24.0613 21.5614Z" fill="white"/>
</svg>
