<svg width="63" height="64" viewBox="0 0 63 64" fill="none" xmlns="http://www.w3.org/2000/svg">
<path d="M54.1297 37.5741V9.67577C54.1297 7.693 52.5167 6.07985 50.5338 6.07985H45.9156V4.3252C45.9156 2.69631 44.5889 1.37109 42.958 1.37109C41.3271 1.37109 40.004 2.69631 40.004 4.3252V6.07985H35.6472V4.3252C35.6472 2.69631 34.3205 1.37109 32.6896 1.37109C31.0588 1.37109 29.7355 2.69631 29.7355 4.3252V6.07985H25.3787V4.3252C25.3787 2.69631 24.052 1.37109 22.4211 1.37109C20.7902 1.37109 19.467 2.69631 19.467 4.3252V6.07985H15.1102V4.3252C15.1102 2.69631 13.7835 1.37109 12.1526 1.37109C10.5217 1.37109 9.19849 2.69631 9.19849 4.3252V6.07985H4.5803C2.59752 6.07985 0.984375 7.693 0.984375 9.67577V54.3039C0.984375 56.2885 2.5974 57.9033 4.5803 57.9033H39.6979C42.0409 60.5216 45.4439 62.1725 49.2258 62.1725C56.2781 62.1725 62.0156 56.4364 62.0156 49.386C62.0156 44.0701 58.7554 39.5018 54.1297 37.5741ZM13.3875 6.07985H10.9211V4.3252C10.9211 3.64611 11.4735 3.09375 12.1526 3.09375C12.8317 3.09375 13.3875 3.64611 13.3875 4.3252V6.07985ZM23.656 6.07985H21.1898V4.3252C21.1898 3.64611 21.7421 3.09375 22.4212 3.09375C23.1003 3.09375 23.6561 3.64611 23.6561 4.3252V6.07985H23.656ZM33.9245 6.07985H31.4582V4.3252C31.4582 3.64611 32.0105 3.09375 32.6896 3.09375C33.3687 3.09375 33.9245 3.64611 33.9245 4.3252V6.07985ZM41.7267 4.3252C41.7267 3.64611 42.279 3.09375 42.9581 3.09375C43.6372 3.09375 44.193 3.64611 44.193 4.3252V6.07985H41.7267V4.3252Z" fill="#ECEFF1"/>
<path d="M38.6176 42.25C38.4644 42.1097 38.261 42.0234 38.0368 42.0234H33.3525C32.8768 42.0234 32.4912 42.4091 32.4912 42.8848V47.569C32.4912 48.0447 32.8768 48.4304 33.3525 48.4304H36.475C36.6433 46.154 37.4098 44.0415 38.6176 42.25Z" fill="#8AC9FE"/>
<path d="M50.5339 6.07812H41.7267V8.74627C41.7267 9.42537 42.279 9.97773 42.9581 9.97773C43.4338 9.97773 43.8195 10.3634 43.8195 10.8391C43.8195 11.3148 43.4338 11.7004 42.9581 11.7004C41.3292 11.7004 40.004 10.3752 40.004 8.74627V6.07812H31.4582V8.74627C31.4582 9.42537 32.0105 9.97773 32.6896 9.97773C33.1653 9.97773 33.5509 10.3634 33.5509 10.8391C33.5509 11.3148 33.1653 11.7004 32.6896 11.7004C31.0607 11.7004 29.7355 10.3752 29.7355 8.74627V6.07812H21.1897V8.74627C21.1897 9.42537 21.742 9.97773 22.4211 9.97773C22.8968 9.97773 23.2824 10.3634 23.2824 10.8391C23.2824 11.3148 22.8968 11.7004 22.4211 11.7004C20.7922 11.7004 19.467 10.3752 19.467 8.74627V6.07812H10.9211V8.74627C10.9211 9.42537 11.4735 9.97773 12.1526 9.97773C12.6283 9.97773 13.0139 10.3634 13.0139 10.8391C13.0139 11.3148 12.6283 11.7004 12.1526 11.7004C10.5237 11.7004 9.19849 10.3752 9.19849 8.74627V6.07812H4.5803C2.59752 6.07812 0.984375 7.69127 0.984375 9.67405V16.6047H54.1297V9.67405C54.1297 7.69127 52.5167 6.07812 50.5337 6.07812H50.5339Z" fill="#FE646F"/>
<path d="M50.5332 6.07812H48.6875C50.6703 6.07812 52.2834 7.69127 52.2834 9.67405V16.6047H54.1291V9.67405C54.1291 7.69127 52.5161 6.07812 50.5332 6.07812Z" fill="#FD4755"/>
<path d="M21.3503 42.0195H16.666C16.1903 42.0195 15.8047 42.4052 15.8047 42.8809V47.5651C15.8047 48.0408 16.1903 48.4265 16.666 48.4265H21.3503C21.826 48.4265 22.2116 48.0408 22.2116 47.5651V42.8809C22.2116 42.4052 21.826 42.0195 21.3503 42.0195Z" fill="#8AC9FE"/>
<path d="M13.0046 31.9102H8.32031C7.84461 31.9102 7.45898 32.2958 7.45898 32.7715V37.4558C7.45898 37.9315 7.84461 38.3171 8.32031 38.3171H13.0046C13.4803 38.3171 13.8659 37.9315 13.8659 37.4558V32.7715C13.8659 32.2958 13.4803 31.9102 13.0046 31.9102Z" fill="#8AC9FE"/>
<path d="M13.0046 21.7969H8.32031C7.84461 21.7969 7.45898 22.1825 7.45898 22.6582V27.3425C7.45898 27.8182 7.84461 28.2038 8.32031 28.2038H13.0046C13.4803 28.2038 13.8659 27.8182 13.8659 27.3425V22.6582C13.8659 22.1825 13.4803 21.7969 13.0046 21.7969Z" fill="#8AC9FE"/>
<path d="M13.0046 42.0195H8.32031C7.84461 42.0195 7.45898 42.4052 7.45898 42.8809V47.5651C7.45898 48.0408 7.84461 48.4265 8.32031 48.4265H13.0046C13.4803 48.4265 13.8659 48.0408 13.8659 47.5651V42.8809C13.8659 42.4052 13.4803 42.0195 13.0046 42.0195Z" fill="#8AC9FE"/>
<path d="M38.0368 31.9102H33.3525C32.8768 31.9102 32.4912 32.2958 32.4912 32.7715V37.4558C32.4912 37.9315 32.8768 38.3171 33.3525 38.3171H38.0368C38.5125 38.3171 38.8981 37.9315 38.8981 37.4558V32.7715C38.8981 32.2958 38.5125 31.9102 38.0368 31.9102Z" fill="#8AC9FE"/>
<path d="M33.3519 38.3171H38.0362C38.5119 38.3171 38.8975 37.9315 38.8975 37.4558V32.7715C38.8975 32.2958 38.5119 31.9102 38.0362 31.9102H37.8409C37.8498 31.9597 37.8552 32.0107 37.8552 32.0629V36.7471C37.8552 37.2228 37.4696 37.6085 36.9939 37.6085H32.5049C32.577 38.0112 32.9284 38.3171 33.3519 38.3171Z" fill="#60B7FF"/>
<path d="M38.0368 21.7969H33.3525C32.8768 21.7969 32.4912 22.1825 32.4912 22.6582V27.3425C32.4912 27.8182 32.8768 28.2038 33.3525 28.2038H38.0368C38.5125 28.2038 38.8981 27.8182 38.8981 27.3425V22.6582C38.8981 22.1825 38.5125 21.7969 38.0368 21.7969Z" fill="#8AC9FE"/>
<path d="M46.3806 21.7969H41.6963C41.2206 21.7969 40.835 22.1825 40.835 22.6582V27.3425C40.835 27.8182 41.2206 28.2038 41.6963 28.2038H46.3806C46.8563 28.2038 47.2419 27.8182 47.2419 27.3425V22.6582C47.2419 22.1825 46.8563 21.7969 46.3806 21.7969Z" fill="#8AC9FE"/>
<path d="M29.6931 21.7969H25.0088C24.5331 21.7969 24.1475 22.1825 24.1475 22.6582V27.3425C24.1475 27.8182 24.5331 28.2038 25.0088 28.2038H29.6931C30.1688 28.2038 30.5544 27.8182 30.5544 27.3425V22.6582C30.5544 22.1825 30.1688 21.7969 29.6931 21.7969Z" fill="#8AC9FE"/>
<path d="M29.6931 31.9102H25.0088C24.5331 31.9102 24.1475 32.2958 24.1475 32.7715V37.4558C24.1475 37.9315 24.5331 38.3171 25.0088 38.3171H29.6931C30.1688 38.3171 30.5544 37.9315 30.5544 37.4558V32.7715C30.5544 32.2958 30.1688 31.9102 29.6931 31.9102Z" fill="#8AC9FE"/>
<path d="M21.3503 31.9102H16.666C16.1903 31.9102 15.8047 32.2958 15.8047 32.7715V37.4558C15.8047 37.9315 16.1903 38.3171 16.666 38.3171H21.3503C21.826 38.3171 22.2116 37.9315 22.2116 37.4558V32.7715C22.2116 32.2958 21.826 31.9102 21.3503 31.9102Z" fill="#8AC9FE"/>
<path d="M21.3503 21.7969H16.666C16.1903 21.7969 15.8047 22.1825 15.8047 22.6582V27.3425C15.8047 27.8182 16.1903 28.2038 16.666 28.2038H21.3503C21.826 28.2038 22.2116 27.8182 22.2116 27.3425V22.6582C22.2116 22.1825 21.826 21.7969 21.3503 21.7969Z" fill="#8AC9FE"/>
<path d="M29.6931 42.0195H25.0088C24.5331 42.0195 24.1475 42.4052 24.1475 42.8809V47.5651C24.1475 48.0408 24.5331 48.4265 25.0088 48.4265H29.6931C30.1688 48.4265 30.5544 48.0408 30.5544 47.5651V42.8809C30.5544 42.4052 30.1688 42.0195 29.6931 42.0195Z" fill="#8AC9FE"/>
<path d="M13.004 21.793H12.8087C12.8176 21.8426 12.823 21.8935 12.823 21.9457V26.6299C12.823 27.1056 12.4374 27.4913 11.9617 27.4913H7.47266C7.54476 27.894 7.89618 28.1999 8.31971 28.1999H13.004C13.4797 28.1999 13.8653 27.8143 13.8653 27.3386V22.6543C13.8653 22.1786 13.4797 21.793 13.004 21.793Z" fill="#60B7FF"/>
<path d="M21.3507 42.0195H21.1554C21.1642 42.0691 21.1697 42.1201 21.1697 42.1722V46.8565C21.1697 47.3322 20.784 47.7178 20.3083 47.7178H15.8193C15.8914 48.1206 16.2429 48.4265 16.6664 48.4265H21.3507C21.8264 48.4265 22.212 48.0408 22.212 47.5651V42.8809C22.212 42.4052 21.8264 42.0195 21.3507 42.0195Z" fill="#60B7FF"/>
<path d="M13.004 31.9102H12.8087C12.8176 31.9597 12.823 32.0107 12.823 32.0629V36.7471C12.823 37.2228 12.4374 37.6085 11.9617 37.6085H7.47266C7.54476 38.0112 7.89618 38.3171 8.31971 38.3171H13.004C13.4797 38.3171 13.8653 37.9315 13.8653 37.4558V32.7715C13.8653 32.2958 13.4797 31.9102 13.004 31.9102Z" fill="#60B7FF"/>
<path d="M41.6957 28.1999H46.38C46.8557 28.1999 47.2413 27.8143 47.2413 27.3386V22.6543C47.2413 22.1786 46.8557 21.793 46.38 21.793H46.1847C46.1935 21.8426 46.199 21.8935 46.199 21.9457V26.6299C46.199 27.1056 45.8133 27.4913 45.3376 27.4913H40.8486C40.9207 27.894 41.2722 28.1999 41.6957 28.1999Z" fill="#60B7FF"/>
<path d="M33.3529 28.1999H38.0372C38.5129 28.1999 38.8985 27.8143 38.8985 27.3386V22.6543C38.8985 22.1786 38.5129 21.793 38.0372 21.793H37.8419C37.8508 21.8426 37.8562 21.8935 37.8562 21.9457V26.6299C37.8562 27.1056 37.4706 27.4913 36.9949 27.4913H32.5059C32.578 27.894 32.9294 28.1999 33.3529 28.1999Z" fill="#60B7FF"/>
<path d="M13.004 42.0195H12.8087C12.8176 42.0691 12.823 42.1201 12.823 42.1722V46.8565C12.823 47.3322 12.4374 47.7178 11.9617 47.7178H7.47266C7.54476 48.1206 7.89618 48.4265 8.31971 48.4265H13.004C13.4797 48.4265 13.8653 48.0408 13.8653 47.5651V42.8809C13.8653 42.4052 13.4797 42.0195 13.004 42.0195Z" fill="#60B7FF"/>
<path d="M21.3507 31.9102H21.1554C21.1642 31.9597 21.1697 32.0107 21.1697 32.0629V36.7471C21.1697 37.2228 20.784 37.6085 20.3083 37.6085H15.8193C15.8914 38.0112 16.2429 38.3171 16.6664 38.3171H21.3507C21.8264 38.3171 22.212 37.9315 22.212 37.4558V32.7715C22.212 32.2958 21.8264 31.9102 21.3507 31.9102Z" fill="#60B7FF"/>
<path d="M21.3507 21.793H21.1554C21.1642 21.8426 21.1697 21.8935 21.1697 21.9457V26.6299C21.1697 27.1056 20.784 27.4913 20.3083 27.4913H15.8193C15.8914 27.894 16.2429 28.1999 16.6664 28.1999H21.3507C21.8264 28.1999 22.212 27.8143 22.212 27.3386V22.6543C22.212 22.1786 21.8264 21.793 21.3507 21.793Z" fill="#60B7FF"/>
<path d="M29.6934 21.793H29.4982C29.507 21.8426 29.5124 21.8935 29.5124 21.9457V26.6299C29.5124 27.1056 29.1268 27.4913 28.6511 27.4913H24.1621C24.2342 27.894 24.5856 28.1999 25.0092 28.1999H29.6934C30.1691 28.1999 30.5548 27.8143 30.5548 27.3386V22.6543C30.5548 22.1786 30.1691 21.793 29.6934 21.793Z" fill="#60B7FF"/>
<path d="M29.6934 31.9102H29.4982C29.507 31.9597 29.5124 32.0107 29.5124 32.0629V36.7471C29.5124 37.2228 29.1268 37.6085 28.6511 37.6085H24.1621C24.2342 38.0112 24.5856 38.3171 25.0092 38.3171H29.6934C30.1691 38.3171 30.5548 37.9315 30.5548 37.4558V32.7715C30.5548 32.2958 30.1691 31.9102 29.6934 31.9102Z" fill="#60B7FF"/>
<path d="M29.6934 42.0195H29.4982C29.507 42.0691 29.5124 42.1201 29.5124 42.1722V46.8565C29.5124 47.3322 29.1268 47.7178 28.6511 47.7178H24.1621C24.2342 48.1206 24.5856 48.4265 25.0092 48.4265H29.6934C30.1691 48.4265 30.5548 48.0408 30.5548 47.5651V42.8809C30.5548 42.4052 30.1691 42.0195 29.6934 42.0195Z" fill="#60B7FF"/>
<path d="M43.8192 10.8407C43.8192 11.3164 43.4336 11.702 42.9579 11.702C41.329 11.702 40.0038 10.3768 40.0038 8.74788V4.3252C40.0038 2.69631 41.3289 1.37109 42.9579 1.37109C44.5869 1.37109 45.9154 2.69631 45.9154 4.3252V6.07985H44.1928V4.3252C44.1928 3.64611 43.6388 3.09375 42.9579 3.09375C42.2769 3.09375 41.7264 3.64611 41.7264 4.3252V8.74788C41.7264 9.42697 42.2788 9.97933 42.9579 9.97933C43.4336 9.97933 43.8192 10.365 43.8192 10.8407ZM32.6894 9.97933C32.0103 9.97933 31.4579 9.42697 31.4579 8.74788V4.3252C31.4579 3.64611 32.0103 3.09375 32.6894 3.09375C33.3685 3.09375 33.9243 3.64611 33.9243 4.3252V6.07985H35.6469V4.3252C35.6469 2.69631 34.3202 1.37109 32.6894 1.37109C31.0585 1.37109 29.7353 2.69631 29.7353 4.3252V8.74788C29.7353 10.3768 31.0603 11.702 32.6894 11.702C33.1651 11.702 33.5507 11.3164 33.5507 10.8407C33.5507 10.365 33.1651 9.97933 32.6894 9.97933ZM22.4209 9.97933C21.7418 9.97933 21.1894 9.42697 21.1894 8.74788V4.3252C21.1894 3.64611 21.7418 3.09375 22.4209 3.09375C23.1 3.09375 23.6558 3.64611 23.6558 4.3252V6.07985H25.3784V4.3252C25.3784 2.69631 24.0517 1.37109 22.4209 1.37109C20.79 1.37109 19.4668 2.69631 19.4668 4.3252V8.74788C19.4668 10.3768 20.7918 11.702 22.4209 11.702C22.8966 11.702 23.2822 11.3164 23.2822 10.8407C23.2822 10.365 22.8966 9.97933 22.4209 9.97933ZM12.1524 9.97933C11.4733 9.97933 10.9209 9.42697 10.9209 8.74788V4.3252C10.9209 3.64611 11.4733 3.09375 12.1524 3.09375C12.8314 3.09375 13.3873 3.64611 13.3873 4.3252V6.07985H15.1099V4.3252C15.1099 2.69631 13.7832 1.37109 12.1524 1.37109C10.5215 1.37109 9.19824 2.69631 9.19824 4.3252V8.74788C9.19824 10.3768 10.5233 11.702 12.1524 11.702C12.6281 11.702 13.0137 11.3164 13.0137 10.8407C13.0137 10.365 12.6281 9.97933 12.1524 9.97933Z" fill="#9FACBA"/>
<path d="M22.4197 11.6957C21.6974 11.6957 21.0352 11.4347 20.5215 11.0027C20.6069 11.9777 21.4243 12.7429 22.4216 12.7429C23.4756 12.7429 24.3302 11.8885 24.3302 10.8344C24.3302 9.78022 23.4757 8.92578 22.4216 8.92578C22.0085 8.92578 21.6271 9.05843 21.3148 9.28139C21.5153 9.69015 21.9347 9.97291 22.4199 9.97291C22.8956 9.97291 23.2812 10.3585 23.2812 10.8342C23.2812 11.3099 22.8956 11.6956 22.4199 11.6956L22.4197 11.6957Z" fill="#FD4755"/>
<path d="M42.9572 11.6957C42.2366 11.6957 41.5757 11.4361 41.0625 11.0059C41.1494 11.9794 41.9662 12.7429 42.9623 12.7429C44.0164 12.7429 44.8709 11.8885 44.8709 10.8344C44.8709 9.78022 44.0165 8.92578 42.9623 8.92578C42.5482 8.92578 42.1657 9.05916 41.853 9.28336C42.0539 9.69113 42.4726 9.97303 42.9572 9.97303C43.4329 9.97303 43.8185 10.3587 43.8185 10.8344C43.8185 11.3101 43.4329 11.6957 42.9572 11.6957Z" fill="#FD4755"/>
<path d="M12.1511 11.6957C11.4279 11.6957 10.7649 11.4341 10.251 11.0011C10.3356 11.977 11.1533 12.7429 12.1511 12.7429C13.2051 12.7429 14.0596 11.8885 14.0596 10.8344C14.0596 9.78022 13.2052 8.92578 12.1511 8.92578C11.7385 8.92578 11.3577 9.05793 11.0455 9.28052C11.2458 9.68978 11.6654 9.97303 12.1511 9.97303C12.6268 9.97303 13.0124 10.3587 13.0124 10.8344C13.0124 11.3101 12.6268 11.6957 12.1511 11.6957Z" fill="#FD4755"/>
<path d="M32.6875 11.6957C31.9661 11.6957 31.3046 11.4354 30.791 11.0043C30.8771 11.9786 31.6943 12.7429 32.691 12.7429C33.745 12.7429 34.5996 11.8885 34.5996 10.8344C34.5996 9.78022 33.7451 8.92578 32.691 8.92578C32.2773 8.92578 31.8955 9.05879 31.5828 9.28237C31.7835 9.69064 32.2026 9.97303 32.6874 9.97303C33.1631 9.97303 33.5487 10.3587 33.5487 10.8344C33.5487 11.3101 33.1631 11.6957 32.6874 11.6957H32.6875Z" fill="#FD4755"/>
<path d="M49.225 36.5938C42.1744 36.5938 36.4385 42.3313 36.4385 49.3837C36.4385 56.4362 42.1744 62.1703 49.225 62.1703C56.2756 62.1703 62.0149 56.4342 62.0149 49.3837C62.0149 42.3333 56.2773 36.5938 49.225 36.5938Z" fill="#6CF5C2"/>
<path d="M49.2255 36.5939C48.9776 36.5939 48.7317 36.6017 48.4873 36.6157C55.1973 36.9996 60.5388 42.5792 60.5388 49.3839C60.5388 56.1885 55.1973 61.7647 48.4873 62.1485C48.7317 62.1625 48.9776 62.1703 49.2255 62.1703C56.2778 62.1703 62.0153 56.4342 62.0153 49.3837C62.0153 42.3333 56.2779 36.5938 49.2255 36.5938V36.5939Z" fill="#00E499"/>
<path d="M37.8562 43.5361C38.0856 43.0917 38.3399 42.6623 38.6179 42.25C38.4647 42.1097 38.2613 42.0234 38.0371 42.0234H37.8418C37.8507 42.073 37.8561 42.124 37.8561 42.1761V43.5361H37.8562Z" fill="#60B7FF"/>
<path d="M36.5477 47.7227H32.5059C32.578 48.1254 32.9294 48.4313 33.3529 48.4313H36.4753C36.4929 48.1932 36.5171 47.9569 36.5476 47.7227H36.5477Z" fill="#60B7FF"/>
<path d="M41.6963 38.3171H42.8239C44.1624 37.5392 45.6541 36.9974 47.2419 36.7489V32.7715C47.2419 32.2958 46.8563 31.9102 46.3806 31.9102H41.6963C41.2206 31.9102 40.835 32.2958 40.835 32.7715V37.4558C40.835 37.9315 41.2206 38.3171 41.6963 38.3171Z" fill="#8AC9FE"/>
<path d="M46.1987 36.751C46.1987 36.8263 46.1881 36.8989 46.1699 36.9686C46.5216 36.882 46.8787 36.8095 47.241 36.7528V32.7754C47.241 32.2997 46.8554 31.9141 46.3797 31.9141H46.1844C46.1933 31.9637 46.1987 32.0146 46.1987 32.0668V36.751Z" fill="#60B7FF"/>
<path d="M41.6957 38.3219H42.8233C43.2777 38.0578 43.7497 37.8207 44.2372 37.6133H40.8486C40.9207 38.016 41.2722 38.3219 41.6957 38.3219Z" fill="#60B7FF"/>
<path d="M43.8162 50.8468C43.2371 50.2817 43.2232 49.3505 43.7883 48.7714C44.3533 48.1889 45.2846 48.175 45.8636 48.7401L47.5448 50.3759L52.5777 45.294C53.1532 44.722 54.081 44.7255 54.653 45.301C55.2251 45.8765 55.2217 46.8043 54.6496 47.3763L48.5911 53.4697C48.0261 54.0348 47.1088 54.0418 46.5333 53.4836L43.8162 50.8468Z" fill="white"/>
<path d="M37.5012 54.4822H4.5803C2.59752 54.4822 0.984375 52.8674 0.984375 50.8828V54.3009C0.984375 56.2856 2.5974 57.9003 4.5803 57.9003H39.6979C38.7952 56.8916 38.05 55.7392 37.5012 54.4822Z" fill="#D2D9DB"/>
<path d="M54.1299 37.5692V16.6016H52.2842V36.9616C52.9192 37.118 53.5358 37.3218 54.1299 37.5692Z" fill="#D2D9DB"/>
</svg>
