<svg width="62" height="63" viewBox="0 0 62 63" fill="none" xmlns="http://www.w3.org/2000/svg">
<path d="M12.5928 30.7891H16.4678V61.7891H12.5928V30.7891Z" fill="#7A838B"/>
<path d="M12.5928 30.7891H16.4678V32.7266H12.5928V30.7891Z" fill="#5D6972"/>
<path d="M12.5928 55.9766H16.4678V57.9141H12.5928V55.9766Z" fill="#5D6972"/>
<path d="M42.6074 1.71875C45.6906 1.71875 48.6474 2.94352 50.8275 5.12363C53.0076 7.30374 54.2324 10.2606 54.2324 13.3437V36.5937H30.9824V13.3437C30.9824 10.2606 32.2072 7.30374 34.3873 5.12363C36.5674 2.94352 39.5243 1.71875 42.6074 1.71875Z" fill="#7A838B"/>
<path d="M33.9062 13.3516H51.3437V22.0703C51.3437 24.3827 50.4252 26.6003 48.7901 28.2354C47.155 29.8705 44.9374 30.7891 42.625 30.7891C40.3126 30.7891 38.095 29.8705 36.4599 28.2354C34.8248 26.6003 33.9062 24.3827 33.9062 22.0703V13.3516Z" fill="#5D6972"/>
<path d="M44.5439 30.7812V26.9062H40.6689V30.7812C40.6689 31.2951 40.4648 31.7879 40.1015 32.1513C39.7381 32.5146 39.2453 32.7188 38.7314 32.7188H35.8252V36.5938H49.3877V32.7188H46.4814C45.9676 32.7188 45.4748 32.5146 45.1114 32.1513C44.7481 31.7879 44.5439 31.2951 44.5439 30.7812Z" fill="#FFD3B6"/>
<path d="M40.6885 30.5692C41.9629 30.8675 43.289 30.8675 44.5635 30.5692V26.918H40.6885V30.5692Z" fill="#F9B995"/>
<path d="M33.8887 11.4102H51.3262V20.1289C51.3262 22.4413 50.4076 24.6589 48.7725 26.294C47.1374 27.9291 44.9198 28.8477 42.6074 28.8477C40.2951 28.8477 38.0774 27.9291 36.4423 26.294C34.8073 24.6589 33.8887 22.4413 33.8887 20.1289V11.4102Z" fill="#FFD3B6"/>
<path d="M45.5313 25.9492C43.2189 25.9492 41.0012 25.0306 39.3662 23.3956C37.7311 21.7605 36.8125 19.5428 36.8125 17.2305V11.418H33.9063V20.1367C33.9047 22.0384 34.5254 23.8883 35.6736 25.4041C36.8218 26.92 38.4344 28.0185 40.2654 28.5321C42.0964 29.0457 44.0451 28.9461 45.8142 28.2484C47.5832 27.5508 49.0754 26.2936 50.0631 24.6685C48.6997 25.5056 47.1311 25.9489 45.5313 25.9492Z" fill="#F9B995"/>
<path d="M32.9199 15.2812H33.8887V19.1562H32.9199C32.4061 19.1562 31.9133 18.9521 31.5499 18.5888C31.1866 18.2254 30.9824 17.7326 30.9824 17.2187C30.9824 16.7049 31.1866 16.2121 31.5499 15.8487C31.9133 15.4854 32.4061 15.2812 32.9199 15.2812Z" fill="#F9B995"/>
<path d="M52.2939 19.1562H51.3252V15.2813H52.2939C52.8078 15.2813 53.3006 15.4854 53.664 15.8487C54.0273 16.2121 54.2314 16.7049 54.2314 17.2188C54.2314 17.7326 54.0273 18.2254 53.664 18.5888C53.3006 18.9521 52.8078 19.1562 52.2939 19.1562Z" fill="#FFD3B6"/>
<path d="M32.9209 9.46875V15.2812H42.9417C43.9693 15.281 44.9547 14.8726 45.6813 14.1459L46.4834 13.3438L47.2865 14.1459C48.013 14.8726 48.9985 15.281 50.0261 15.2812H52.2959V9.46875H32.9209Z" fill="#7A838B"/>
<path d="M59.0762 40.4687V61.7812L31.9696 61.7938L31.9512 46.2938H26.1387V40.4687C26.1387 38.4133 26.9552 36.4421 28.4086 34.9887C29.862 33.5353 31.8332 32.7188 33.8887 32.7188H37.8605C38.0829 33.8137 38.6769 34.7981 39.542 35.5052C40.4071 36.2123 41.4901 36.5986 42.6074 36.5986C43.7247 36.5986 44.8077 36.2123 45.6728 35.5052C46.5379 34.7981 47.132 33.8137 47.3543 32.7188H51.3262C53.3816 32.7188 55.3528 33.5353 56.8062 34.9887C58.2597 36.4421 59.0762 38.4133 59.0762 40.4687Z" fill="#A7D0E1"/>
<path d="M51.3446 58.8832V46.2972L48.4383 40.4847H33.3181C33.204 40.4847 33.0921 40.5166 32.9951 40.5766C32.8981 40.6367 32.8197 40.7226 32.7688 40.8247C32.5979 41.1697 32.3281 41.4559 31.9938 41.6469C31.6595 41.8379 31.2759 41.925 30.8919 41.897C30.508 41.869 30.141 41.7273 29.8379 41.4899C29.5348 41.2525 29.3094 40.9302 29.1902 40.5641C29.0941 40.223 29.0452 39.8703 29.0449 39.5159V37.5658C29.0444 36.2231 29.3951 34.9036 30.0621 33.7383C28.8711 34.4135 27.8805 35.3925 27.1912 36.5754C26.502 37.7584 26.1388 39.103 26.1387 40.4721V46.2972H31.9512L31.9696 61.7972L59.0762 61.7846V58.8783L51.3446 58.8832Z" fill="#80BBCE"/>
<path d="M31.9512 52.0929C31.9512 53.1206 31.5429 54.1062 30.8162 54.8329C30.0895 55.5596 29.1039 55.9679 28.0762 55.9679H12.5762C12.0623 55.9679 11.5695 55.7637 11.2062 55.4004C10.8428 55.037 10.6387 54.5442 10.6387 54.0304V50.1554C10.6387 49.6415 10.8428 49.1487 11.2062 48.7854C11.5695 48.422 12.0623 48.2179 12.5762 48.2179H16.4512C16.965 48.2179 17.4578 48.422 17.8212 48.7854C18.1845 49.1487 18.3887 49.6415 18.3887 50.1554H26.1387V46.293H31.9512V52.0929Z" fill="#FFD3B6"/>
<path d="M31 53.0742H18.4062C17.1216 53.0742 15.8896 52.5639 14.9812 51.6555C14.0728 50.7471 13.5625 49.5151 13.5625 48.2305H12.5937C12.0799 48.2305 11.5871 48.4346 11.2237 48.7979C10.8604 49.1613 10.6562 49.6541 10.6562 50.168V54.043C10.6562 54.5568 10.8604 55.0496 11.2237 55.413C11.5871 55.7763 12.0799 55.9805 12.5937 55.9805H28.0937C28.9701 55.9789 29.82 55.6803 30.5047 55.1335C31.1895 54.5866 31.6687 53.8238 31.8641 52.9696C31.581 53.037 31.2911 53.0721 31 53.0742Z" fill="#F9B995"/>
<path d="M53.2646 46.293H59.0771V61.7804H53.2646V46.293Z" fill="#FFD3B6"/>
<path d="M56.1893 55.7092V46.293H53.2646V61.7804H59.0771V58.5961C58.3115 58.5958 57.5773 58.2916 57.0358 57.7503C56.4943 57.209 56.1898 56.4749 56.1893 55.7092Z" fill="#F9B995"/>
<path d="M36.3281 30.793C36.7135 30.793 37.0831 30.9461 37.3556 31.2186C37.6282 31.4911 37.7812 31.8607 37.7812 32.2461V40.4805H34.875V32.2461C34.875 31.8607 35.0281 31.4911 35.3006 31.2186C35.5731 30.9461 35.9427 30.793 36.3281 30.793Z" fill="#F8C460"/>
<path d="M48.9219 30.793C49.3073 30.793 49.6769 30.9461 49.9494 31.2186C50.2219 31.4911 50.375 31.8607 50.375 32.2461V40.4805H47.4688V32.2461C47.4688 31.8607 47.6218 31.4911 47.8944 31.2186C48.1669 30.9461 48.5365 30.793 48.9219 30.793Z" fill="#F8C460"/>
<path d="M53.2812 61.7969H31.9688V46.2969L34.875 40.4844H50.375L53.2812 46.2969V61.7969Z" fill="#F8C460"/>
<path d="M34.875 44.3012C34.8753 43.6997 35.0153 43.1064 35.2838 42.5681L36.3281 40.4805H34.875L31.9688 46.293V61.793H53.2812V58.8867H49.4605C45.5922 58.8867 41.8823 57.35 39.147 54.6147C36.4117 51.8794 34.875 48.1695 34.875 44.3012Z" fill="#EAAC47"/>
<path d="M10.6562 26.918H18.4062V28.8555C18.4062 29.3693 18.2021 29.8621 17.8388 30.2255C17.4754 30.5888 16.9826 30.793 16.4688 30.793H12.5938C12.0799 30.793 11.5871 30.5888 11.2237 30.2255C10.8604 29.8621 10.6562 29.3693 10.6562 28.8555V26.918Z" fill="#7A838B"/>
<path d="M13.5625 28.8555V26.918H10.6562V28.8555C10.6562 29.3693 10.8604 29.8621 11.2237 30.2255C11.5871 30.5888 12.0799 30.793 12.5938 30.793H15.5C14.9861 30.793 14.4933 30.5888 14.13 30.2255C13.7666 29.8621 13.5625 29.3693 13.5625 28.8555Z" fill="#5D6972"/>
<path d="M26.1562 15.293C18.4062 10.1263 10.6562 10.1263 2.90625 15.293L10.6562 26.918H18.4062L26.1562 15.293Z" fill="#F8C460"/>
<path d="M5.69431 13.6562C4.73335 14.1441 3.80234 14.6889 2.90625 15.2876L10.6562 26.9126H18.4062L20.3437 24.0064C17.9598 24.0062 15.6127 23.4176 13.5108 22.2928C11.4089 21.168 9.61709 19.5418 8.29444 17.5584L5.69431 13.6562Z" fill="#EAAC47"/>
<path d="M34.875 38.543H37.7812V40.4805H34.875V38.543Z" fill="#EAAC47"/>
<path d="M47.4688 38.543H50.375V40.4805H47.4688V38.543Z" fill="#EAAC47"/>
<path d="M49.4053 43.3867H47.4678C47.2108 43.3867 46.9644 43.2847 46.7828 43.103C46.6011 42.9213 46.499 42.6749 46.499 42.418C46.499 42.161 46.6011 41.9146 46.7828 41.733C46.9644 41.5513 47.2108 41.4492 47.4678 41.4492H49.4053C49.6622 41.4492 49.9086 41.5513 50.0903 41.733C50.272 41.9146 50.374 42.161 50.374 42.418C50.374 42.6749 50.272 42.9213 50.0903 43.103C49.9086 43.2847 49.6622 43.3867 49.4053 43.3867Z" fill="white"/>
<path d="M46.5 17.2305C46.2431 17.2305 45.9967 17.3325 45.815 17.5142C45.6333 17.6959 45.5312 17.9423 45.5312 18.1992V19.168C45.5312 19.4249 45.6333 19.6713 45.815 19.853C45.9967 20.0347 46.2431 20.1367 46.5 20.1367C46.7569 20.1367 47.0033 20.0347 47.185 19.853C47.3667 19.6713 47.4688 19.4249 47.4688 19.168V18.1992C47.4688 17.9423 47.3667 17.6959 47.185 17.5142C47.0033 17.3325 46.7569 17.2305 46.5 17.2305Z" fill="#7A838B"/>
<path d="M38.75 17.2305C38.4931 17.2305 38.2467 17.3325 38.065 17.5142C37.8833 17.6959 37.7812 17.9423 37.7812 18.1992V19.168C37.7812 19.4249 37.8833 19.6713 38.065 19.853C38.2467 20.0347 38.4931 20.1367 38.75 20.1367C39.0069 20.1367 39.2533 20.0347 39.435 19.853C39.6167 19.6713 39.7188 19.4249 39.7188 19.168V18.1992C39.7188 17.9423 39.6167 17.6959 39.435 17.5142C39.2533 17.3325 39.0069 17.2305 38.75 17.2305Z" fill="#7A838B"/>
<path d="M10.124 18.0936C9.98993 18.1652 9.84 18.2018 9.68805 18.2002C9.5087 18.2018 9.33257 18.1526 9.18 18.0583C9.02743 17.964 8.90465 17.8285 8.82586 17.6673L6.60742 13.2208C7.20805 12.9495 7.79898 12.7073 8.39961 12.5039L10.5502 16.7955C10.608 16.9086 10.6429 17.032 10.6527 17.1587C10.6626 17.2853 10.6472 17.4127 10.6076 17.5334C10.568 17.654 10.5048 17.7657 10.4218 17.8618C10.3388 17.958 10.2376 18.0368 10.124 18.0936Z" fill="#EAAC47"/>
<path d="M22.4564 13.2208L20.238 17.6673C20.1592 17.8285 20.0364 17.964 19.8838 18.0583C19.7313 18.1526 19.5551 18.2018 19.3758 18.2002C19.2238 18.2018 19.0739 18.1652 18.9398 18.0936C18.8262 18.0368 18.725 17.958 18.642 17.8618C18.559 17.7657 18.4958 17.654 18.4562 17.5334C18.4166 17.4127 18.4013 17.2853 18.4111 17.1587C18.4209 17.032 18.4558 16.9086 18.5136 16.7955L20.6642 12.5039C21.2648 12.7073 21.8558 12.9495 22.4564 13.2208Z" fill="#EAAC47"/>
<path d="M15.5 11.447V17.2305C15.5 17.4874 15.3979 17.7338 15.2163 17.9155C15.0346 18.0972 14.7882 18.1992 14.5312 18.1992C14.2743 18.1992 14.0279 18.0972 13.8462 17.9155C13.6646 17.7338 13.5625 17.4874 13.5625 17.2305V11.447C14.2078 11.4083 14.8547 11.4083 15.5 11.447Z" fill="#EAAC47"/>
</svg>
