<svg width="66" height="66" viewBox="0 0 66 66" fill="none" xmlns="http://www.w3.org/2000/svg">
<path d="M35.1986 58.6148H30.7986C17.4334 58.6148 6.59863 47.7801 6.59863 34.4148C6.59863 21.0496 17.4334 10.2148 30.7986 10.2148H35.1986C48.5639 10.2148 59.3986 21.0496 59.3986 34.4148C59.3986 47.7801 48.5639 58.6148 35.1986 58.6148Z" fill="#FAA019"/>
<path d="M30.7986 58.6148C44.1639 58.6148 54.9986 47.7801 54.9986 34.4148C54.9986 21.0496 44.1639 10.2148 30.7986 10.2148C17.4333 10.2148 6.59863 21.0496 6.59863 34.4148C6.59863 47.7801 17.4333 58.6148 30.7986 58.6148Z" fill="#FFCD05"/>
<path d="M30.801 54.2211C41.7362 54.2211 50.601 45.3563 50.601 34.4211C50.601 23.4859 41.7362 14.6211 30.801 14.6211C19.8657 14.6211 11.001 23.4859 11.001 34.4211C11.001 45.3563 19.8657 54.2211 30.801 54.2211Z" fill="#D7E6F0"/>
<path d="M30.7996 36.6164C29.5845 36.6164 28.5996 35.6314 28.5996 34.4164V19.0164C28.5996 17.8015 29.5845 16.8164 30.7996 16.8164C32.0147 16.8164 32.9996 17.8015 32.9996 19.0164V34.4164C32.9996 35.6314 32.0147 36.6164 30.7996 36.6164Z" fill="#555A6E"/>
<path d="M30.7996 52.018C29.5845 52.018 28.5996 51.0329 28.5996 49.818V47.618C28.5996 46.403 29.5845 45.418 30.7996 45.418C32.0147 45.418 32.9996 46.403 32.9996 47.618V49.818C32.9996 51.0329 32.0147 52.018 30.7996 52.018Z" fill="#A5C3DC"/>
<path d="M46.1998 36.6188H43.9998C42.7847 36.6188 41.7998 35.6337 41.7998 34.4188C41.7998 33.2038 42.7847 32.2188 43.9998 32.2188H46.1998C47.4149 32.2188 48.3998 33.2038 48.3998 34.4188C48.3998 35.6337 47.4149 36.6188 46.1998 36.6188Z" fill="#A5C3DC"/>
<path d="M17.6002 36.6188H15.4002C14.1851 36.6188 13.2002 35.6337 13.2002 34.4188C13.2002 33.2038 14.1851 32.2188 15.4002 32.2188H17.6002C18.8153 32.2188 19.8002 33.2038 19.8002 34.4188C19.8002 35.6337 18.8153 36.6188 17.6002 36.6188Z" fill="#A5C3DC"/>
<path d="M23.1004 44.3187C22.5373 44.3187 21.9744 44.104 21.5448 43.6744C20.6856 42.8152 20.6856 41.4223 21.5448 40.5631L29.2448 32.8631C30.1039 32.004 31.4969 32.004 32.356 32.8631C33.2153 33.7223 33.2153 35.1152 32.356 35.9744L24.656 43.6744C24.2263 44.104 23.6634 44.3187 23.1004 44.3187Z" fill="#555A6E"/>
<path d="M30.8 37.725C32.6225 37.725 34.1 36.2475 34.1 34.425C34.1 32.6025 32.6225 31.125 30.8 31.125C28.9775 31.125 27.5 32.6025 27.5 34.425C27.5 36.2475 28.9775 37.725 30.8 37.725Z" fill="#555A6E"/>
<path d="M30.8004 32.2195C32.0136 32.2195 33.0004 33.2065 33.0004 34.4195C33.0004 35.6326 32.0136 36.6195 30.8004 36.6195C29.5872 36.6195 28.6004 35.6326 28.6004 34.4195C28.6004 33.2065 29.5872 32.2195 30.8004 32.2195ZM30.8004 30.0195C28.3704 30.0195 26.4004 31.9895 26.4004 34.4195C26.4004 36.8496 28.3704 38.8195 30.8004 38.8195C33.2304 38.8195 35.2004 36.8496 35.2004 34.4195C35.2004 31.9895 33.2304 30.0195 30.8004 30.0195Z" fill="#FAA019"/>
<path d="M58.8627 4.5879L54.5698 0.601638C54.3749 0.420825 54.119 0.320312 53.8533 0.320312C53.2716 0.320312 52.8001 0.7918 52.8001 1.37343V3.62018H30.8C22.5731 3.62018 14.8385 6.82393 9.0211 12.6413C3.20375 18.4588 0 26.1931 0 34.4202C0 42.6472 3.20375 50.3816 9.0211 56.1991C14.8385 62.0164 22.5731 65.2202 30.8 65.2202H31.9C32.5075 65.2202 33 64.7277 33 64.1202V61.9202C33 61.3127 32.5075 60.8202 31.9 60.8202H30.8C16.243 60.8202 4.4 48.9772 4.4 34.4202C4.4 19.8632 16.243 8.02018 30.8 8.02018H52.8V10.2671C52.8 10.8487 53.2715 11.3202 53.8531 11.3202C54.1189 11.3202 54.3749 11.2197 54.5696 11.0389L58.8625 7.05259C59.2053 6.73427 59.4 6.28781 59.4 5.82018C59.4 5.35254 59.2053 4.90608 58.8627 4.5879Z" fill="#2387C3"/>
<path d="M65.4619 4.5879L61.169 0.601638C60.9742 0.420825 60.7183 0.320312 60.4525 0.320312C59.8709 0.320312 59.3994 0.7918 59.3994 1.37343V10.2672C59.3994 10.8488 59.8709 11.3203 60.4525 11.3203C60.7183 11.3203 60.9743 11.2198 61.169 11.039L65.4619 7.05273C65.8046 6.73428 65.9993 6.28781 65.9993 5.82018C65.9993 5.35254 65.8046 4.90608 65.4619 4.5879Z" fill="#2387C3"/>
</svg>
